<svg width="3" height="87" fill="none" xmlns="http://www.w3.org/2000/svg"><path fill-rule="evenodd" clip-rule="evenodd" d="M1.5.75a.75.75 0 01.75.75v2.625a.75.75 0 01-1.5 0V1.5A.75.75 0 011.5.75zm0 7.875a.75.75 0 01.75.75v5.25a.75.75 0 01-1.5 0v-5.25a.75.75 0 01.75-.75zm0 10.5a.75.75 0 01.75.75v5.25a.75.75 0 01-1.5 0v-5.25a.75.75 0 01.75-.75zm0 10.5a.75.75 0 01.75.75v5.25a.75.75 0 01-1.5 0v-5.25a.75.75 0 01.75-.75zm0 10.5a.75.75 0 01.75.75v5.25a.75.75 0 01-1.5 0v-5.25a.75.75 0 01.75-.75zm0 10.5a.75.75 0 01.75.75v5.25a.75.75 0 01-1.5 0v-5.25a.75.75 0 01.75-.75zm0 10.5a.75.75 0 01.75.75v5.25a.75.75 0 01-1.5 0v-5.25a.75.75 0 01.75-.75zm0 10.5a.75.75 0 01.75.75v5.25a.75.75 0 01-1.5 0v-5.25a.75.75 0 01.75-.75zm0 10.5a.75.75 0 01.75.75V85.5a.75.75 0 01-1.5 0v-2.625a.75.75 0 01.75-.75z" fill="#6080AF"/></svg>