<svg width="608" height="104" fill="none" xmlns="http://www.w3.org/2000/svg"><g clip-path="url(#clip0_5_2362)"><path d="M143.863 68.871a11.997 11.997 0 00-8.361 3.482 12.13 12.13 0 00-3.582 8.357c0 9.218 11.943 23.29 11.943 23.29s11.942-14.072 11.942-23.29a12.13 12.13 0 00-3.582-8.357 11.996 11.996 0 00-8.36-3.482zm.054 16.65a5.349 5.349 0 01-2.982-.91 5.393 5.393 0 01-1.976-2.423 5.43 5.43 0 01-.305-3.119 5.403 5.403 0 011.469-2.764 5.34 5.34 0 015.849-1.17 5.376 5.376 0 012.409 1.99 5.426 5.426 0 01.495 5.064 5.396 5.396 0 01-2.905 2.92 5.339 5.339 0 01-2.054.411zm22.138-27.552a9.72 9.72 0 00-6.774 2.823 9.836 9.836 0 00-2.903 6.772c0 7.47 9.677 18.874 9.677 18.874s9.678-11.404 9.678-18.874a9.832 9.832 0 00-2.903-6.773 9.72 9.72 0 00-6.775-2.822zm.044 13.492c-.86 0-1.7-.257-2.416-.737a4.367 4.367 0 01-1.601-1.963 4.396 4.396 0 01.942-4.766 4.326 4.326 0 014.74-.948 4.356 4.356 0 011.951 1.61 4.39 4.39 0 01-.541 5.523 4.334 4.334 0 01-3.075 1.28zm16.008 3.046a6.415 6.415 0 00-4.471 1.862 6.488 6.488 0 00-1.917 4.47c0 4.93 6.388 12.459 6.388 12.459s6.388-7.528 6.388-12.46a6.487 6.487 0 00-1.916-4.469 6.418 6.418 0 00-4.472-1.862zm.029 8.907a2.878 2.878 0 01-2.653-1.783 2.904 2.904 0 01.623-3.147 2.863 2.863 0 014.418.438 2.903 2.903 0 01-.358 3.647 2.865 2.865 0 01-2.03.845zm-56.904-.84a5.155 5.155 0 00-3.593 1.497 5.211 5.211 0 00-1.539 3.591c0 3.961 5.132 10.009 5.132 10.009s5.132-6.048 5.132-10.009a5.216 5.216 0 00-1.539-3.591 5.158 5.158 0 00-3.593-1.497zm.023 7.156a2.3 2.3 0 01-2.132-1.432 2.337 2.337 0 01.5-2.529 2.295 2.295 0 013.549.351 2.325 2.325 0 01-.286 2.93 2.302 2.302 0 01-1.631.68zm-14.541-5.72a6.758 6.758 0 00-4.709 1.962 6.833 6.833 0 00-2.018 4.706c0 5.192 6.727 13.12 6.727 13.12s6.726-7.925 6.726-13.12a6.833 6.833 0 00-2.018-4.706 6.757 6.757 0 00-4.708-1.962zm.03 9.377a3.01 3.01 0 01-1.679-.512 3.04 3.04 0 01-1.286-3.12c.117-.59.405-1.132.828-1.557a3.013 3.013 0 014.65.46 3.054 3.054 0 01-.375 3.84 3.013 3.013 0 01-2.138.892v-.002zM86.326 74.439a8.15 8.15 0 00-5.68 2.365 8.242 8.242 0 00-2.434 5.677c0 6.261 8.114 15.821 8.114 15.821s8.113-9.56 8.113-15.82a8.242 8.242 0 00-2.434-5.678 8.15 8.15 0 00-5.68-2.365zm.037 11.31a3.63 3.63 0 01-2.026-.618 3.662 3.662 0 01-1.343-1.646 3.687 3.687 0 01.79-3.995 3.627 3.627 0 013.973-.795 3.651 3.651 0 011.637 1.35 3.681 3.681 0 01-.453 4.629 3.636 3.636 0 01-2.576 1.075h-.002zm10.961 3.578a3.495 3.495 0 00-2.435 1.014 3.535 3.535 0 00-1.043 2.434c0 2.685 3.478 6.784 3.478 6.784s3.478-4.099 3.478-6.784a3.532 3.532 0 00-1.043-2.434 3.495 3.495 0 00-2.435-1.014zm.016 4.849a1.557 1.557 0 01-1.445-.97 1.58 1.58 0 01.34-1.715 1.56 1.56 0 011.703-.34 1.566 1.566 0 01.965 1.453 1.58 1.58 0 01-.965 1.453c-.19.078-.393.12-.598.119zM4.05 60.19a4.068 4.068 0 00-2.835 1.18A4.114 4.114 0 000 64.204c0 3.125 4.05 7.898 4.05 7.898s4.048-4.771 4.048-7.898a4.115 4.115 0 00-1.214-2.833A4.068 4.068 0 004.05 60.19zm.018 5.645c-.36 0-.711-.107-1.01-.308a1.826 1.826 0 01-.773-1.876c.07-.355.243-.68.498-.936a1.815 1.815 0 011.98-.396c.332.138.616.372.816.673a1.835 1.835 0 01-.226 2.308 1.811 1.811 0 01-1.285.535zm9.216 4.449a7.239 7.239 0 00-5.044 2.102 7.32 7.32 0 00-2.16 5.042c0 5.563 7.204 14.055 7.204 14.055s7.204-8.492 7.204-14.055a7.321 7.321 0 00-2.16-5.042 7.239 7.239 0 00-5.044-2.102zm.033 10.048a3.23 3.23 0 01-1.8-.549 3.254 3.254 0 01-1.193-1.462 3.275 3.275 0 01.702-3.55 3.233 3.233 0 013.53-.706 3.242 3.242 0 011.453 1.2 3.27 3.27 0 01-.402 4.112 3.23 3.23 0 01-2.29.955zm19.755-17.521a4.69 4.69 0 00-3.267 1.361 4.743 4.743 0 00-1.4 3.267c0 3.603 4.667 9.104 4.667 9.104s4.668-5.5 4.668-9.104a4.742 4.742 0 00-1.4-3.266 4.69 4.69 0 00-3.268-1.362zm.022 6.509a2.09 2.09 0 01-1.166-.356 2.122 2.122 0 01-.319-3.247 2.095 2.095 0 012.287-.457c.384.16.711.43.942.777a2.119 2.119 0 01.195 1.98 2.111 2.111 0 01-1.136 1.145c-.254.106-.527.16-.803.16v-.002z" fill="#922B38"/><path d="M149.124 32.377a11.428 11.428 0 00-7.963 3.317 11.554 11.554 0 00-3.413 7.961c0 8.782 11.376 22.187 11.376 22.187s11.377-13.405 11.377-22.187a11.55 11.55 0 00-3.413-7.96 11.428 11.428 0 00-7.964-3.318zm.052 15.862a5.092 5.092 0 01-2.84-.867 5.134 5.134 0 01-1.883-2.307 5.171 5.171 0 01-.291-2.971 5.149 5.149 0 011.399-2.633 5.085 5.085 0 015.572-1.115 5.115 5.115 0 012.294 1.894 5.161 5.161 0 01-.635 6.493 5.1 5.1 0 01-3.616 1.506zM181.714.893a8.64 8.64 0 00-6.019 2.507 8.735 8.735 0 00-2.579 6.017c0 6.636 8.598 16.768 8.598 16.768s8.598-10.132 8.598-16.768a8.735 8.735 0 00-2.579-6.017 8.64 8.64 0 00-6.019-2.507zm.039 11.987a3.851 3.851 0 01-2.147-.655 3.887 3.887 0 01-1.423-1.743 3.911 3.911 0 01-.22-2.246 3.888 3.888 0 011.058-1.99 3.845 3.845 0 014.211-.842 3.871 3.871 0 011.734 1.432 3.906 3.906 0 01-.481 4.906 3.851 3.851 0 01-2.732 1.138zm7.695 11.847a5.113 5.113 0 00-3.565 1.484 5.17 5.17 0 00-1.527 3.565c0 3.93 5.092 9.93 5.092 9.93s5.092-6 5.092-9.93a5.174 5.174 0 00-1.526-3.565 5.113 5.113 0 00-3.566-1.484zm.024 7.1a2.293 2.293 0 01-2.115-1.42 2.31 2.31 0 01.496-2.51 2.285 2.285 0 012.494-.498 2.308 2.308 0 01.742 3.754 2.28 2.28 0 01-1.617.673zm-20.405-11.629a8.002 8.002 0 00-5.577 2.324 8.093 8.093 0 00-2.39 5.575c0 6.15 7.967 15.535 7.967 15.535s7.967-9.388 7.967-15.535a8.093 8.093 0 00-2.39-5.575 8.002 8.002 0 00-5.577-2.324zm.036 11.108c-.708 0-1.4-.21-1.989-.606a3.606 3.606 0 01-1.523-3.697c.138-.7.479-1.34.98-1.845a3.572 3.572 0 013.902-.78 3.58 3.58 0 011.607 1.327 3.613 3.613 0 01-.445 4.546 3.572 3.572 0 01-2.532 1.055zm-37.832 18.357a6.92 6.92 0 00-4.822 2.009 6.998 6.998 0 00-2.066 4.819c0 5.316 6.888 13.432 6.888 13.432s6.887-8.116 6.887-13.432a6.998 6.998 0 00-2.066-4.82 6.92 6.92 0 00-4.821-2.008zm.031 9.602a3.084 3.084 0 01-1.72-.525 3.127 3.127 0 01-.469-4.79 3.089 3.089 0 013.373-.674 3.104 3.104 0 011.911 2.876 3.12 3.12 0 01-.906 2.201 3.088 3.088 0 01-2.189.912zM70.5 40.406a6.274 6.274 0 00-4.37 1.822 6.345 6.345 0 00-1.873 4.368c0 4.821 6.246 12.18 6.246 12.18s6.246-7.359 6.246-12.18a6.35 6.35 0 00-1.877-4.37 6.278 6.278 0 00-4.373-1.82zm.028 8.708a2.796 2.796 0 01-1.56-.476 2.82 2.82 0 01-1.034-1.267 2.838 2.838 0 01.608-3.077 2.803 2.803 0 013.06-.612 2.81 2.81 0 011.26 1.04 2.835 2.835 0 01-.35 3.564 2.798 2.798 0 01-1.984.826v.002zM51.024 21.183a7.323 7.323 0 00-5.102 2.126 7.406 7.406 0 00-2.187 5.1c0 5.627 7.29 14.216 7.29 14.216s7.289-8.589 7.289-14.216a7.406 7.406 0 00-2.187-5.1 7.323 7.323 0 00-5.103-2.126zm.033 10.163a3.262 3.262 0 01-1.82-.556 3.29 3.29 0 01-1.206-1.478 3.312 3.312 0 01.71-3.59 3.26 3.26 0 013.57-.714 3.28 3.28 0 011.47 1.213 3.308 3.308 0 01-.407 4.16 3.267 3.267 0 01-2.317.965zm-35.365.579a2.552 2.552 0 00-1.777.74 2.58 2.58 0 00-.762 1.778c0 1.958 2.54 4.952 2.54 4.952s2.54-2.993 2.54-4.952a2.58 2.58 0 00-.763-1.777 2.551 2.551 0 00-1.778-.741zm.012 3.54a1.137 1.137 0 01-1.055-.708 1.155 1.155 0 01.248-1.252 1.14 1.14 0 011.949.812c0 .304-.12.596-.333.811a1.138 1.138 0 01-.806.338h-.003zm21.702-2.328a6.136 6.136 0 00-4.276 1.781 6.206 6.206 0 00-1.833 4.274c0 4.715 6.109 11.913 6.109 11.913s6.108-7.198 6.108-11.913a6.205 6.205 0 00-1.832-4.274 6.136 6.136 0 00-4.276-1.781zm.028 8.516a2.734 2.734 0 01-1.526-.465 2.775 2.775 0 01-.418-4.249 2.74 2.74 0 012.992-.599c.502.21.93.563 1.233 1.018a2.773 2.773 0 01-.341 3.486 2.737 2.737 0 01-1.94.809zm22.268-4.886a3.171 3.171 0 00-2.212.922 3.207 3.207 0 00-.947 2.212c0 2.438 3.159 6.159 3.159 6.159s3.158-3.72 3.158-6.16a3.207 3.207 0 00-.946-2.211 3.171 3.171 0 00-2.212-.922zm.012 4.403a1.414 1.414 0 01-1.312-.881 1.436 1.436 0 01.308-1.556 1.417 1.417 0 012.423 1.01c0 .379-.15.742-.416 1.01a1.415 1.415 0 01-1.003.417z" fill="#E8DACD"/><path d="M121.742 65.06a4.88 4.88 0 00-3.4 1.416 4.94 4.94 0 00-1.457 3.398c0 3.749 4.857 9.47 4.857 9.47s4.856-5.721 4.856-9.47a4.93 4.93 0 00-1.457-3.398 4.878 4.878 0 00-3.399-1.416zm.022 6.77c-.432 0-.854-.129-1.213-.37a2.19 2.19 0 01-.804-.985 2.21 2.21 0 01.474-2.392 2.177 2.177 0 013.358.333 2.204 2.204 0 01-.272 2.771 2.175 2.175 0 01-1.543.643zm-18.488-40.628c-10.199 0-18.466 8.606-18.466 18.306 0 14.254 18.466 36.013 18.466 36.013s18.466-21.759 18.466-36.013c0-9.7-8.267-18.306-18.466-18.306zm.084 25.745a8.266 8.266 0 01-4.61-1.407 8.336 8.336 0 01-3.057-3.745 8.39 8.39 0 01-.473-4.822 8.36 8.36 0 012.271-4.274 8.283 8.283 0 014.249-2.284 8.255 8.255 0 014.795.475 8.308 8.308 0 013.725 3.074 8.38 8.38 0 01-1.032 10.538 8.26 8.26 0 01-5.868 2.444zm78.153-19.992a4.003 4.003 0 00-2.79 1.163 4.046 4.046 0 00-1.196 2.79c0 3.077 3.986 7.774 3.986 7.774s3.986-4.7 3.986-7.774a4.05 4.05 0 00-1.195-2.79 4.004 4.004 0 00-2.791-1.163zm.019 5.559a1.802 1.802 0 01-1.759-2.154 1.803 1.803 0 011.408-1.416 1.784 1.784 0 011.84.766 1.81 1.81 0 01-.223 2.276 1.786 1.786 0 01-1.266.528zm-8.049 2.937a4.206 4.206 0 00-2.93 1.222 4.254 4.254 0 00-1.256 2.93c0 3.23 4.186 8.164 4.186 8.164s4.187-4.934 4.187-8.165a4.258 4.258 0 00-1.256-2.93 4.208 4.208 0 00-2.931-1.22zm.019 5.837a1.877 1.877 0 01-1.739-1.168 1.904 1.904 0 01.408-2.063 1.88 1.88 0 012.051-.41 1.886 1.886 0 011.162 1.748 1.9 1.9 0 01-.551 1.339 1.877 1.877 0 01-1.331.554zm-95.355 6.344a5.814 5.814 0 00-4.051 1.688 5.88 5.88 0 00-1.736 4.05c0 4.469 5.787 11.289 5.787 11.289s5.789-6.82 5.789-11.289a5.882 5.882 0 00-1.737-4.05 5.815 5.815 0 00-4.052-1.688zm.027 8.07a2.591 2.591 0 01-1.445-.44 2.63 2.63 0 01-.394-4.025 2.597 2.597 0 012.835-.568c.475.198.881.533 1.167.963a2.627 2.627 0 01-.325 3.305 2.6 2.6 0 01-1.84.765h.002zM67.72 68.47a6.262 6.262 0 00-4.361 1.82 6.333 6.333 0 00-1.87 4.36c0 4.812 6.232 12.158 6.232 12.158s6.234-7.346 6.234-12.157a6.333 6.333 0 00-1.87-4.363 6.262 6.262 0 00-4.364-1.817zm.03 8.692a2.79 2.79 0 01-1.557-.475 2.832 2.832 0 01-.425-4.336 2.797 2.797 0 013.054-.61c.512.213.95.574 1.257 1.037a2.83 2.83 0 01-1.257 4.17c-.34.141-.705.214-1.073.214zM21.818 53.73a6.466 6.466 0 00-4.505 1.876 6.538 6.538 0 00-1.93 4.503c0 4.968 6.435 12.55 6.435 12.55s6.436-7.579 6.436-12.55a6.54 6.54 0 00-1.931-4.503 6.465 6.465 0 00-4.505-1.877zm.03 8.971a2.88 2.88 0 01-1.607-.49 2.905 2.905 0 01-1.066-1.305 2.924 2.924 0 01.627-3.17 2.878 2.878 0 014.45.44 2.92 2.92 0 01-.36 3.674 2.884 2.884 0 01-2.044.851zm2.108-25.123a4.826 4.826 0 00-3.363 1.402 4.88 4.88 0 00-1.44 3.363c0 3.709 4.803 9.37 4.803 9.37s4.803-5.661 4.803-9.37a4.88 4.88 0 00-1.44-3.363 4.826 4.826 0 00-3.363-1.402zm.021 6.698a2.15 2.15 0 01-1.2-.366 2.17 2.17 0 01-.918-2.23c.083-.42.289-.807.59-1.111a2.155 2.155 0 012.354-.472 2.18 2.18 0 01.001 4.013c-.262.11-.543.166-.827.166zm27.481 1.175a13.157 13.157 0 00-9.17 3.82 13.306 13.306 0 00-3.928 9.166c0 10.11 13.097 25.543 13.097 25.543s13.098-15.433 13.098-25.543a13.307 13.307 0 00-3.929-9.166 13.158 13.158 0 00-9.168-3.82zm.06 18.261a5.863 5.863 0 01-3.27-.997 5.912 5.912 0 01-2.169-2.657 5.95 5.95 0 011.276-6.452 5.856 5.856 0 016.415-1.283 5.893 5.893 0 012.642 2.18 5.944 5.944 0 01-.732 7.475 5.884 5.884 0 01-4.163 1.734zM32.47 51.058a3.171 3.171 0 00-2.211.922 3.207 3.207 0 00-.947 2.211c0 2.438 3.159 6.16 3.159 6.16s3.157-3.721 3.157-6.16a3.207 3.207 0 00-.946-2.211 3.171 3.171 0 00-2.211-.922zm.015 4.403a1.414 1.414 0 01-1.312-.88 1.435 1.435 0 01.307-1.557 1.416 1.416 0 012.424 1.01c0 .378-.15.74-.416 1.009a1.415 1.415 0 01-1.003.418zM196.342 37.15a4.003 4.003 0 00-2.79 1.162 4.05 4.05 0 00-1.196 2.789c0 3.077 3.986 7.774 3.986 7.774s3.987-4.7 3.987-7.774a4.054 4.054 0 00-1.196-2.79 4.007 4.007 0 00-2.791-1.162zm.018 5.557a1.8 1.8 0 01-1.757-2.153 1.79 1.79 0 012.443-1.313 1.796 1.796 0 011.106 1.664c0 .478-.189.936-.525 1.274a1.786 1.786 0 01-1.266.528h-.001zm6.792 3.923a3.042 3.042 0 00-2.117.882 3.072 3.072 0 00-.908 2.117c0 2.335 3.025 5.9 3.025 5.9s3.026-3.565 3.026-5.9a3.081 3.081 0 00-.908-2.117 3.043 3.043 0 00-2.118-.883zm.014 4.218a1.37 1.37 0 01-1.341-1.637 1.36 1.36 0 012.7.27c0 .362-.143.71-.398.966a1.36 1.36 0 01-.961.403v-.002z" fill="#6181B0"/><path d="M233.387 21.214V4.301h2.402v16.913h-2.402zm5.767 0V4.301h2.401v16.913h-2.401zm5.767 0V4.301h2.401v16.913h-2.401zm15.737.244a18.478 18.478 0 01-2.114-.109 11.253 11.253 0 01-1.85-.374V4.543a11.185 11.185 0 011.85-.375 18.487 18.487 0 012.114-.109c1.731 0 2.993.379 3.784 1.136a4.394 4.394 0 011.19 3.335c.004.71-.161 1.41-.481 2.042a3.56 3.56 0 01-1.561 1.534v.1a3.427 3.427 0 012.102 1.607c.46.864.688 1.835.661 2.815 0 1.643-.429 2.86-1.285 3.65-.857.789-2.327 1.182-4.41 1.18zm-1.562-9.956h1.322a2.736 2.736 0 002.054-.725c.517-.61.772-1.4.709-2.199a2.971 2.971 0 00-.709-2.15 2.758 2.758 0 00-2.054-.725h-1.322v5.8zm0 8.312h1.562a3.418 3.418 0 002.473-.76 3.375 3.375 0 00.768-2.48 3.677 3.677 0 00-.768-2.623 3.366 3.366 0 00-2.475-.783h-1.562l.002 6.646zm14.729 1.644a5.37 5.37 0 01-2.932-.761 4.806 4.806 0 01-1.838-2.658 17.275 17.275 0 01-.636-5.28c-.061-1.782.15-3.563.625-5.28.277-1.063.903-2 1.777-2.658a4.907 4.907 0 012.763-.761c.724-.004 1.447.045 2.163.144a8.08 8.08 0 011.538.34v1.16h-3.051a2.76 2.76 0 00-1.752.603 4.084 4.084 0 00-1.213 2.127 16.227 16.227 0 00-.445 4.325 15.86 15.86 0 00.454 4.313 3.988 3.988 0 001.274 2.139 3.144 3.144 0 001.922.604h3.051v1.16c-.504.146-1.018.255-1.538.326a14.13 14.13 0 01-2.162.157zm5.742-.244V4.301h8.361v1.762h-5.958V11.5h5.238v1.79h-5.238v6.162h5.958v1.762h-8.361zm11.005.001V4.543a11.185 11.185 0 011.85-.374 18.487 18.487 0 012.114-.11 7.338 7.338 0 013.136.568 3.445 3.445 0 011.73 1.897 9.707 9.707 0 01.54 3.577 10.684 10.684 0 01-.519 3.685 3.564 3.564 0 01-1.549 1.945 5.304 5.304 0 01-2.62.58c-.288 0-.665-.024-1.129-.072a11.455 11.455 0 01-1.154-.17v5.146h-2.399zm2.401-6.694h1.563a3.326 3.326 0 001.694-.387 2.35 2.35 0 00.984-1.353 8.771 8.771 0 00.325-2.682 8.634 8.634 0 00-.325-2.67 2.34 2.34 0 00-.981-1.34 3.323 3.323 0 00-1.694-.386h-1.562l-.004 8.818zm14.321 6.937a5.06 5.06 0 01-2.823-.773 4.894 4.894 0 01-1.826-2.683 17.196 17.196 0 01-.637-5.243c-.06-1.767.155-3.532.637-5.232a4.96 4.96 0 011.826-2.682 5.492 5.492 0 015.658 0 4.996 4.996 0 011.818 2.682c.481 1.7.696 3.465.636 5.232a17.19 17.19 0 01-.636 5.243 4.933 4.933 0 01-1.818 2.683 5.047 5.047 0 01-2.835.773zm0-1.522c.38-.004.751-.117 1.069-.327.404-.286.727-.674.937-1.124a7.33 7.33 0 00.649-2.186 22.42 22.42 0 00.228-3.54 22.418 22.418 0 00-.228-3.54 7.33 7.33 0 00-.649-2.187 2.865 2.865 0 00-.937-1.124 1.913 1.913 0 00-2.142 0 2.776 2.776 0 00-.924 1.124 7.806 7.806 0 00-.65 2.187 21.504 21.504 0 00-.24 3.54 21.505 21.505 0 00.24 3.54c.109.757.327 1.494.65 2.186.203.451.522.84.924 1.124.319.21.692.324 1.073.327zm13.023 1.522a5.37 5.37 0 01-2.932-.761 4.801 4.801 0 01-1.838-2.658 17.276 17.276 0 01-.636-5.28 17.59 17.59 0 01.624-5.28c.278-1.063.904-2 1.778-2.658a4.907 4.907 0 012.763-.761c.724-.004 1.446.045 2.163.144a8.058 8.058 0 011.538.34v1.16h-3.051a2.76 2.76 0 00-1.752.603 4.092 4.092 0 00-1.214 2.127 16.227 16.227 0 00-.444 4.325 15.86 15.86 0 00.454 4.313 3.98 3.98 0 001.274 2.139 3.14 3.14 0 001.922.604h3.05v1.16c-.504.146-1.018.255-1.538.326-.715.108-1.438.16-2.161.157zm10.139 0a5.368 5.368 0 01-2.931-.761 4.801 4.801 0 01-1.838-2.658 17.245 17.245 0 01-.637-5.28 17.59 17.59 0 01.625-5.28 4.86 4.86 0 011.778-2.658 4.903 4.903 0 012.763-.761c.723-.004 1.446.045 2.163.144a8.053 8.053 0 011.537.34v1.16h-3.05a2.762 2.762 0 00-1.753.603 4.098 4.098 0 00-1.213 2.127 16.227 16.227 0 00-.444 4.325 15.86 15.86 0 00.454 4.313 3.986 3.986 0 001.273 2.139 3.148 3.148 0 001.923.604h3.051v1.16c-.505.146-1.018.255-1.538.326-.716.108-1.439.16-2.163.157zm5.742-.244V4.301h2.354v12.083h.12l4.686-12.083h2.691v16.913h-2.355V9.061h-.12l-4.803 12.155-2.573-.002zm13.215.001V4.3h2.354v12.083h.121l4.686-12.082h2.691v16.913h-2.356V9.062h-.118l-4.803 12.155-2.575-.002zm4.926-18.317a3.968 3.968 0 01-2.043-.508 3.812 3.812 0 01-1.369-1.353L351.984 0c.29.28.613.523.961.725a2.64 2.64 0 001.394.362c.489.011.971-.115 1.394-.362.348-.202.67-.446.96-.725l1.058 1.04a3.605 3.605 0 01-1.358 1.352 4.033 4.033 0 01-2.054.508v-.002zm13.167 18.56a5.37 5.37 0 01-2.932-.761 4.801 4.801 0 01-1.838-2.658 17.276 17.276 0 01-.637-5.28c-.06-1.782.151-3.563.625-5.28.278-1.063.904-2 1.778-2.658a4.907 4.907 0 012.763-.761c.724-.004 1.446.045 2.163.144a8.058 8.058 0 011.538.34v1.16h-3.051a2.76 2.76 0 00-1.752.603 4.084 4.084 0 00-1.213 2.127 16.186 16.186 0 00-.445 4.325 15.86 15.86 0 00.454 4.313 3.98 3.98 0 001.274 2.139 3.145 3.145 0 001.922.604h3.05v1.16c-.504.146-1.018.255-1.538.326-.715.108-1.438.16-2.161.157zm14.512 0a2.508 2.508 0 01-1.886-.725 4.22 4.22 0 01-.997-2.175l-.649-3.141a2.732 2.732 0 00-.805-1.692 2.085 2.085 0 00-1.31-.435h-.72v7.924h-2.402V4.301h2.402v7.201h.72c.4-.006.783-.166 1.07-.447a3.43 3.43 0 00.805-1.68l.649-2.415a4.905 4.905 0 011.08-2.175 2.396 2.396 0 011.805-.726c.513.008 1.023.09 1.513.242v1.16a1.763 1.763 0 00-1.273.399 2.376 2.376 0 00-.601 1.099l-.649 2.415a5.984 5.984 0 01-.877 2.103 2.524 2.524 0 01-1.285.87v.096a3.397 3.397 0 011.493.858c.503.6.82 1.335.912 2.114l.649 3.141c.078.4.275.767.565 1.052a1.765 1.765 0 001.309.447v1.16a5.376 5.376 0 01-1.518.243zm2.066-.244L388.265 4.3h3.268l4.18 16.915h-2.45l-1.081-4.301h-4.566l-1.081 4.301h-2.451zm3.894-6.09h3.845l-1.874-7.926h-.096l-1.875 7.927zm9.921 6.334c-.512-.02-1.02-.1-1.513-.241v-1.16a1.86 1.86 0 001.274-.387c.31-.298.52-.686.6-1.11l.529-2.053a5.348 5.348 0 01.756-1.837 2.17 2.17 0 011.046-.845v-.097a3.742 3.742 0 01-1.493-.652 4.133 4.133 0 01-1.286-1.51 5.162 5.162 0 01-.516-2.43c0-1.77.417-3.06 1.249-3.865.833-.806 2.218-1.21 4.157-1.209a18.84 18.84 0 012.127.11c.622.07 1.237.195 1.838.374v16.669h-2.402v-6.837h-.844a2.01 2.01 0 00-1.201.447 2.926 2.926 0 00-.913 1.68l-.529 2.053a4.61 4.61 0 01-1.081 2.175 2.446 2.446 0 01-1.798.725zm4.807-8.868h1.561V5.703h-1.561a2.948 2.948 0 00-2.26.797 3.799 3.799 0 00-.744 2.634c0 1.257.248 2.147.744 2.67a2.984 2.984 0 002.26.786zm13.335 8.624V4.301h9.611v16.913h-2.402V6.065h-4.803v15.15h-2.406zm12.974.001V4.543a11.21 11.21 0 011.85-.374 18.523 18.523 0 012.115-.11 7.337 7.337 0 013.136.568 3.446 3.446 0 011.73 1.897 9.707 9.707 0 01.54 3.577 10.683 10.683 0 01-.519 3.685 3.56 3.56 0 01-1.55 1.945 5.298 5.298 0 01-2.619.58 11.4 11.4 0 01-1.129-.072 11.366 11.366 0 01-1.153-.17v5.146h-2.401zm2.402-6.694h1.562a3.322 3.322 0 001.694-.387 2.34 2.34 0 00.985-1.353 8.74 8.74 0 00.324-2.682 8.634 8.634 0 00-.324-2.67 2.346 2.346 0 00-.985-1.341 3.322 3.322 0 00-1.694-.387h-1.562v8.82zm14.321 6.937a5.06 5.06 0 01-2.823-.773 4.899 4.899 0 01-1.826-2.682 17.164 17.164 0 01-.636-5.244 17.027 17.027 0 01.636-5.232 4.96 4.96 0 011.826-2.682 5.493 5.493 0 015.658 0 4.987 4.987 0 011.817 2.682c.483 1.7.697 3.465.637 5.232.06 1.77-.155 3.54-.637 5.244a4.923 4.923 0 01-1.817 2.682 5.045 5.045 0 01-2.835.773zm0-1.522c.38-.003.751-.117 1.07-.326a2.87 2.87 0 00.936-1.124 7.33 7.33 0 00.649-2.187 22.42 22.42 0 00.229-3.54 22.417 22.417 0 00-.229-3.54 7.33 7.33 0 00-.649-2.187 2.87 2.87 0 00-.936-1.124 1.919 1.919 0 00-2.139 0 2.778 2.778 0 00-.925 1.124 7.804 7.804 0 00-.649 2.187 21.288 21.288 0 00-.241 3.54 21.288 21.288 0 00.241 3.54c.108.757.327 1.494.649 2.187.203.45.523.838.925 1.124.318.21.689.323 1.069.326zm13.021 1.522a5.364 5.364 0 01-2.931-.761 4.803 4.803 0 01-1.839-2.658 17.275 17.275 0 01-.636-5.28 17.59 17.59 0 01.624-5.28 4.86 4.86 0 011.778-2.658 4.906 4.906 0 012.764-.761c.723-.004 1.446.045 2.162.144a8.063 8.063 0 011.538.34v1.16h-3.051a2.762 2.762 0 00-1.752.603 4.084 4.084 0 00-1.213 2.127 16.227 16.227 0 00-.445 4.325 15.86 15.86 0 00.454 4.313 3.988 3.988 0 001.274 2.139 3.145 3.145 0 001.922.604h3.051v1.16c-.504.146-1.018.255-1.538.326-.715.108-1.438.16-2.162.157zm9.708 0a18.5 18.5 0 01-2.114-.109 11.264 11.264 0 01-1.85-.374V4.543a11.197 11.197 0 011.85-.375 18.494 18.494 0 012.114-.109c1.731 0 2.993.379 3.785 1.136a4.41 4.41 0 011.189 3.335c.004.71-.161 1.41-.481 2.042a3.554 3.554 0 01-1.558 1.534v.1a3.418 3.418 0 012.102 1.607c.461.864.689 1.835.662 2.815 0 1.643-.429 2.86-1.286 3.65-.857.789-2.328 1.182-4.413 1.18zm-1.561-9.956h1.321a2.738 2.738 0 002.055-.725c.516-.61.771-1.4.708-2.199a2.952 2.952 0 00-.708-2.15 2.758 2.758 0 00-2.055-.725h-1.321v5.8zm0 8.312h1.561a3.416 3.416 0 002.475-.76 3.375 3.375 0 00.769-2.48 3.667 3.667 0 00-.769-2.623 3.352 3.352 0 00-2.475-.783h-1.561v6.646zm9.851 1.4V4.301h8.361v1.762h-5.959V11.5h5.238v1.79h-5.238v6.162h5.959v1.762h-8.361zm13.359.001V6.065h-3.797V4.304h10.021v1.763h-3.821v15.149h-2.403zm8.145-.001V4.301h2.355v12.083h.12l4.685-12.083h2.691v16.913h-2.355V9.061h-.12l-4.803 12.155-2.573-.002zm15.57.001V6.065h-3.796V4.304h10.02v1.763h-3.822v15.149h-2.402zm8.147-.001V4.301h8.361v1.762h-5.96V11.5h5.238v1.79h-5.238v6.162h5.958v1.762h-8.359zm10.834.244a5.555 5.555 0 01-1.514-.242v-1.16a1.948 1.948 0 001.61-.858c.433-.57.681-1.59.745-3.056l.6-11.841h8.338v16.913h-2.401V6.065h-3.609l-.529 10.077a10.376 10.376 0 01-.54 3.104 3.665 3.665 0 01-1.141 1.692 2.56 2.56 0 01-1.559.52zm17.108 0a18.53 18.53 0 01-2.115-.11 11.254 11.254 0 01-1.85-.373V4.3h2.402v6.839c.381-.076.767-.133 1.154-.17.463-.048.844-.072 1.129-.072 1.585 0 2.762.415 3.532 1.244.769.83 1.154 2.203 1.153 4.12 0 1.837-.416 3.162-1.249 3.975-.833.814-2.219 1.22-4.156 1.22zm-1.562-1.644h1.562a2.905 2.905 0 002.272-.81c.488-.538.732-1.452.732-2.74 0-1.338-.244-2.268-.732-2.791a2.978 2.978 0 00-2.272-.784h-1.562v7.125zm14.44 1.644a5.372 5.372 0 01-2.932-.761 4.8 4.8 0 01-1.837-2.658 17.245 17.245 0 01-.637-5.28 17.59 17.59 0 01.624-5.28c.278-1.063.905-2 1.779-2.658a4.9 4.9 0 012.763-.761c.723-.004 1.446.045 2.163.144a8.054 8.054 0 011.537.34v1.16h-3.05a2.764 2.764 0 00-1.753.603 4.09 4.09 0 00-1.213 2.127 16.227 16.227 0 00-.444 4.325 15.86 15.86 0 00.454 4.313 3.988 3.988 0 001.274 2.139 3.145 3.145 0 001.922.604h3.051v1.16c-.504.146-1.018.255-1.538.326-.716.108-1.439.16-2.163.157zm14.512 0a2.512 2.512 0 01-1.883-.725 4.217 4.217 0 01-.997-2.175l-.649-3.14a2.731 2.731 0 00-.805-1.692 2.082 2.082 0 00-1.309-.436h-.722v7.925h-2.401V4.3h2.401v7.201h.722a1.56 1.56 0 001.069-.447 3.411 3.411 0 00.804-1.68l.65-2.414a4.904 4.904 0 011.076-2.176 2.385 2.385 0 011.802-.725 5.393 5.393 0 011.513.241v1.16a1.763 1.763 0 00-1.273.399 2.367 2.367 0 00-.6 1.1l-.649 2.414a6.003 6.003 0 01-.878 2.103 2.522 2.522 0 01-1.285.87v.097a3.38 3.38 0 011.493.857c.503.6.821 1.335.913 2.115l.649 3.14c.078.4.275.767.564 1.052a1.778 1.778 0 001.31.448v1.159a5.38 5.38 0 01-1.515.243zm2.066-.244L583.557 4.3h3.268l4.181 16.915h-2.451l-1.081-4.301h-4.566l-1.081 4.301h-2.451zm3.894-6.09h3.844l-1.873-7.926h-.097l-1.874 7.927zm9.922 6.334a6.407 6.407 0 01-1.514-.241v-1.16c.457.033.911-.105 1.273-.387.311-.298.521-.686.601-1.11l.529-2.053a5.329 5.329 0 01.757-1.837c.25-.386.616-.682 1.045-.845v-.097a3.744 3.744 0 01-1.49-.652 4.133 4.133 0 01-1.286-1.51 5.162 5.162 0 01-.516-2.43c0-1.77.417-3.06 1.25-3.865.833-.806 2.217-1.21 4.154-1.209.71-.004 1.42.033 2.126.11.622.07 1.238.195 1.838.374v16.669h-2.401v-6.837h-.844a2.01 2.01 0 00-1.202.447 2.933 2.933 0 00-.913 1.68l-.528 2.053a4.61 4.61 0 01-1.081 2.175 2.44 2.44 0 01-1.798.725zm4.803-8.868h1.562V5.703h-1.562a2.943 2.943 0 00-2.259.797 3.804 3.804 0 00-.745 2.634c0 1.257.249 2.147.745 2.67a2.984 2.984 0 002.261.786h-.002zM238.673 58.968a5.061 5.061 0 01-2.823-.773 4.892 4.892 0 01-1.826-2.682 17.196 17.196 0 01-.637-5.244 17.07 17.07 0 01.637-5.229 4.961 4.961 0 011.826-2.682 5.496 5.496 0 015.658 0 4.996 4.996 0 011.818 2.682c.482 1.7.696 3.466.636 5.232.06 1.77-.155 3.54-.636 5.244a4.932 4.932 0 01-1.818 2.682c-.849.532-1.835.8-2.835.77zm0-1.522c.38-.004.751-.117 1.069-.326.404-.287.727-.674.938-1.124.329-.69.548-1.428.649-2.187a22.54 22.54 0 00.228-3.54 22.539 22.539 0 00-.228-3.54 7.33 7.33 0 00-.649-2.187 2.874 2.874 0 00-.938-1.124 1.913 1.913 0 00-2.138 0 2.777 2.777 0 00-.925 1.124 7.807 7.807 0 00-.649 2.187 21.397 21.397 0 00-.241 3.54 21.397 21.397 0 00.241 3.54c.108.757.327 1.494.649 2.187.203.45.523.838.925 1.124.318.21.689.322 1.069.326zm8.145 1.281V41.81h2.402v7.441h4.803V41.81h2.402v16.916h-2.402v-7.685h-4.803v7.685h-2.402zm12.808.241a5.555 5.555 0 01-1.514-.241v-1.16a1.95 1.95 0 001.61-.859c.433-.57.681-1.59.744-3.056l.601-11.841h8.338v16.916h-2.401V43.575h-3.605l-.528 10.077a10.381 10.381 0 01-.541 3.105 3.656 3.656 0 01-1.141 1.692 2.55 2.55 0 01-1.563.52zm11.893-.241L275.7 41.81h3.268l4.18 16.916h-2.45l-1.081-4.302h-4.566l-1.08 4.302h-2.452zm3.894-6.09h3.844l-1.875-7.923h-.097l-1.872 7.923zm9.851 6.09V41.81h2.354v12.083h.121l4.685-12.083h2.691v16.916h-2.355V46.572h-.12l-4.803 12.155h-2.573zm4.926-18.317a3.965 3.965 0 01-2.043-.508 3.813 3.813 0 01-1.37-1.353l1.058-1.039c.29.28.612.523.96.725a2.861 2.861 0 002.787 0c.349-.202.671-.445.962-.725l1.057 1.04a3.593 3.593 0 01-1.357 1.352 4.038 4.038 0 01-2.056.508h.002zm8.287 18.317V41.81h2.401v7.441h4.803V41.81h2.402v16.916h-2.402v-7.685h-4.803v7.685h-2.401zm12.014-6.356v-1.788h7.377v1.788h-7.377zm11.653 6.597c-.711.003-1.422-.05-2.126-.157a11.992 11.992 0 01-1.55-.326v-1.16h3.051a3.13 3.13 0 001.873-.568 3.77 3.77 0 001.25-1.958c.351-1.262.521-2.568.504-3.879h-4.998v-1.787h4.998a12.259 12.259 0 00-.528-3.564 3.664 3.664 0 00-1.202-1.828 2.786 2.786 0 00-1.657-.53h-3.051v-1.158a8.703 8.703 0 011.549-.338c.705-.1 1.416-.148 2.127-.145a4.95 4.95 0 012.791.76 4.814 4.814 0 011.765 2.659c.466 1.72.673 3.499.613 5.28a17.59 17.59 0 01-.624 5.28 4.755 4.755 0 01-1.827 2.658 5.416 5.416 0 01-2.958.761zm17.036 0a2.515 2.515 0 01-1.887-.725 4.227 4.227 0 01-.997-2.175l-.649-3.141a2.735 2.735 0 00-.804-1.691 2.09 2.09 0 00-1.31-.436h-.721v7.927h-2.401V41.81h2.401v7.201h.721a1.56 1.56 0 001.069-.447 3.422 3.422 0 00.805-1.68l.649-2.415a4.918 4.918 0 011.082-2.175 2.385 2.385 0 011.802-.725c.513.008 1.023.09 1.514.242v1.16a1.769 1.769 0 00-1.274.398 2.368 2.368 0 00-.6 1.1l-.649 2.416a6.022 6.022 0 01-.877 2.102 2.524 2.524 0 01-1.286.87v.097a3.385 3.385 0 011.493.858c.503.6.82 1.335.913 2.114l.649 3.141c.078.4.275.767.565 1.052a1.774 1.774 0 001.309.447v1.16a5.383 5.383 0 01-1.517.241zm7.953 0a5.37 5.37 0 01-2.932-.761 4.801 4.801 0 01-1.838-2.658 17.275 17.275 0 01-.636-5.28c-.061-1.782.15-3.563.625-5.28.277-1.063.903-2 1.777-2.658a4.908 4.908 0 012.763-.762c.724-.003 1.447.046 2.163.145a8.118 8.118 0 011.538.34v1.158h-3.051a2.76 2.76 0 00-1.752.604 4.084 4.084 0 00-1.213 2.127 16.187 16.187 0 00-.445 4.325 15.86 15.86 0 00.454 4.314 3.987 3.987 0 001.274 2.138c.558.407 1.233.62 1.922.604h3.051v1.163c-.504.146-1.019.255-1.538.326-.716.107-1.439.16-2.162.155zm5.742-.241V41.81h9.611v16.916h-2.401V43.575h-4.803v15.152h-2.407zm12.975 0V41.81h8.362v1.763h-5.96v5.436h5.238v1.788h-5.238v6.162h5.96v1.763l-8.362.004zm9.563 3.624v-5.389h1.201c.357-.693.64-1.422.844-2.175.215-.886.336-1.794.36-2.706l.481-10.27h8.097v15.151h1.561v5.39h-1.492a10.799 10.799 0 01-.492-1.633 15.07 15.07 0 01-.302-1.993h-7.975c-.057.67-.157 1.336-.301 1.993a10.922 10.922 0 01-.492 1.632h-1.49zm8.577-5.389V43.503h-3.363l-.409 8.578c-.024.913-.149 1.82-.373 2.706a12.698 12.698 0 01-.828 2.175h4.973zm6.248 1.765V41.81h2.354v12.083h.121l4.685-12.083h2.691v16.916h-2.355V46.572h-.117l-4.803 12.155h-2.576zm22.658 3.624a10.806 10.806 0 01-.493-1.632 15.07 15.07 0 01-.3-1.993h-8.65V41.811h2.401v15.151h4.566V41.811h2.401v15.151h1.563v5.39h-1.488zm3.771-3.624V41.81h2.355v12.083h.12l4.686-12.083h2.691v16.916h-2.355V46.572h-.12l-4.803 12.155h-2.574zm13.287.241c-.512-.02-1.02-.1-1.513-.241v-1.16c.457.033.911-.105 1.273-.387.31-.298.52-.686.601-1.11l.528-2.053a5.35 5.35 0 01.757-1.837 2.17 2.17 0 011.046-.849v-.096a3.744 3.744 0 01-1.49-.653 4.133 4.133 0 01-1.286-1.51 5.164 5.164 0 01-.519-2.429c0-1.771.416-3.06 1.249-3.866.832-.806 2.217-1.209 4.154-1.208a18.81 18.81 0 012.125.109c.623.07 1.238.196 1.839.375v16.674h-2.401v-6.84h-.844c-.438.014-.86.171-1.202.448a2.927 2.927 0 00-.913 1.68l-.528 2.053c-.16.81-.534 1.56-1.081 2.175a2.435 2.435 0 01-1.795.725zm4.803-8.868h1.562v-6.888h-1.562a2.942 2.942 0 00-2.259.797 3.8 3.8 0 00-.745 2.634c0 1.257.248 2.147.745 2.67a2.975 2.975 0 002.262.787h-.003zM229.584 99.46l-5.503-7.272 5.503-7.274 2.673 1.74-4.089 5.438v.19l4.089 5.44-2.673 1.739zm6.289 0l-5.503-7.272 5.503-7.274 2.672 1.74-4.089 5.438v.19l4.089 5.44-2.672 1.739zm5.189.633l1.258-22.136h4.089l4.968 15.021h.126l4.968-15.02h4.089l1.258 22.135h-3.62l-.85-14.99h-.124l-4.056 12.302h-3.459l-4.056-12.301h-.126l-.849 14.989h-3.616zm30.97.316a6.816 6.816 0 01-3.82-1.06 6.798 6.798 0 01-2.516-3.557 20.668 20.668 0 01-.897-6.767 20.52 20.52 0 01.897-6.752 6.892 6.892 0 012.516-3.557 7.327 7.327 0 017.64 0 6.906 6.906 0 012.516 3.558 20.46 20.46 0 01.895 6.751c.08 2.29-.223 4.578-.895 6.767a6.812 6.812 0 01-2.516 3.558 6.816 6.816 0 01-3.82 1.059zm0-2.213a2.198 2.198 0 001.273-.427 3.624 3.624 0 001.101-1.436c.388-.893.652-1.835.786-2.8.399-2.99.399-6.02 0-9.011a10.715 10.715 0 00-.786-2.799 3.624 3.624 0 00-1.101-1.436 2.113 2.113 0 00-2.546 0 3.625 3.625 0 00-1.104 1.436 10.757 10.757 0 00-.787 2.799 34.245 34.245 0 000 9.012c.134.964.399 1.906.787 2.799a3.626 3.626 0 001.104 1.436c.37.271.815.42 1.273.427zm11.162 2.213a9.195 9.195 0 01-2.201-.316v-1.74a2.585 2.585 0 001.509-.394 2.41 2.41 0 00.849-1.344l.786-2.688a7.132 7.132 0 011.1-2.404c.322-.469.754-.85 1.258-1.11v-.126a5.192 5.192 0 01-1.886-.854 5.823 5.823 0 01-1.777-1.977 6.274 6.274 0 01-.739-3.177c0-2.214.582-3.875 1.745-4.981 1.164-1.107 3.046-1.66 5.647-1.66a28.26 28.26 0 013.051.142c.83.09 1.651.254 2.453.49v21.82h-3.774v-8.851h-.786a2.147 2.147 0 00-1.195.569 4.059 4.059 0 00-1.163 2.119l-.787 2.688a6.451 6.451 0 01-1.478 2.846 3.507 3.507 0 01-2.612.948zm6.289-11.7h1.729v-8.696h-1.729a3.457 3.457 0 00-2.688 1.012c-.619.675-.928 1.76-.928 3.257 0 1.581.31 2.714.928 3.4a3.44 3.44 0 002.688 1.028zm24.368 11.7a7.745 7.745 0 01-4.072-.996 6.121 6.121 0 01-2.485-3.478 22.611 22.611 0 01-.832-6.91c-.08-2.331.196-4.662.817-6.91a6.181 6.181 0 012.405-3.478 7.109 7.109 0 013.852-.996 21.494 21.494 0 013.003.19c.689.081 1.368.23 2.028.443v1.74h-3.771a3.846 3.846 0 00-2.358.773 5.113 5.113 0 00-1.622 2.72 20.222 20.222 0 00-.585 5.518c-.06 1.853.141 3.706.598 5.502a4.99 4.99 0 001.701 2.734c.758.524 1.66.795 2.578.775h3.777v1.739a14.18 14.18 0 01-2.029.427c-.995.145-2 .214-3.005.207zm10.69-.316V80.485h-4.874v-2.53h13.521v2.53h-4.874v19.606l-3.773.002zm11.162 0v-21.82a14.677 14.677 0 012.467-.49 27.853 27.853 0 013.035-.142 9.684 9.684 0 014.228.79 4.933 4.933 0 012.39 2.53c.567 1.46.83 3.02.771 4.585a13.2 13.2 0 01-.723 4.807 4.988 4.988 0 01-2.154 2.612 7.187 7.187 0 01-3.57.806c-.231 0-.634-.031-1.21-.094a15.1 15.1 0 01-1.463-.222v6.641l-3.771-.003zm3.773-8.854h1.73c.7.025 1.392-.15 1.997-.506a3.112 3.112 0 001.21-1.74 11.42 11.42 0 00.409-3.447 10.874 10.874 0 00-.409-3.351 3.021 3.021 0 00-1.21-1.692 3.772 3.772 0 00-1.997-.49h-1.73V91.24zm9.748 8.854l5.66-22.136h4.716l5.66 22.136h-3.93l-1.384-5.534h-5.408l-1.384 5.534h-3.93zm5.814-8.064h4.371l-2.107-9.012h-.122l-2.142 9.012zm12.895 8.064V77.957h3.773V87.6h5.66v-9.642h3.773v22.135h-3.773v-9.96h-5.66v9.96h-3.773zm15.878 0l5.66-22.136h4.717l5.66 22.136h-3.93l-1.384-5.534h-5.408l-1.384 5.534h-3.931zm5.817-8.064h4.371l-2.106-9.012h-.126l-2.139 9.012zm19.495.475v-2.53h13.206v2.53h-13.206zm23.583 7.589l1.257-22.136h4.089l4.968 15.021h.125l4.969-15.02h4.089l1.258 22.135h-3.616l-.849-14.99h-.126l-4.056 12.302h-3.459l-4.056-12.301h-.126l-.849 14.989h-3.618zm30.971.316a6.819 6.819 0 01-3.82-1.06 6.81 6.81 0 01-2.516-3.557 20.641 20.641 0 01-.896-6.767c-.08-2.285.223-4.568.896-6.752a6.904 6.904 0 012.516-3.557 7.33 7.33 0 017.641 0 6.911 6.911 0 012.516 3.558 20.52 20.52 0 01.895 6.751 20.64 20.64 0 01-.895 6.767 6.81 6.81 0 01-2.516 3.558 6.82 6.82 0 01-3.821 1.059zm0-2.213a2.199 2.199 0 001.274-.427 3.63 3.63 0 001.1-1.436 10.68 10.68 0 00.786-2.8c.399-2.99.399-6.02 0-9.011a10.715 10.715 0 00-.786-2.799 3.63 3.63 0 00-1.1-1.436 2.116 2.116 0 00-2.547 0 3.613 3.613 0 00-1.103 1.436 10.676 10.676 0 00-.786 2.799 34.074 34.074 0 000 9.012c.133.964.398 1.906.786 2.799.24.565.62 1.059 1.103 1.436.37.271.815.42 1.273.427zm11.162 2.213a9.21 9.21 0 01-2.201-.316v-1.74a2.583 2.583 0 001.509-.394c.427-.338.726-.812.849-1.344l.786-2.688a7.153 7.153 0 011.101-2.404c.321-.469.753-.85 1.257-1.11v-.126a5.203 5.203 0 01-1.886-.854 5.81 5.81 0 01-1.776-1.977 6.286 6.286 0 01-.74-3.177c0-2.214.582-3.875 1.746-4.981 1.163-1.107 3.046-1.66 5.647-1.66 1.018-.008 2.037.04 3.05.142.831.09 1.652.254 2.453.49v21.82h-3.774v-8.851h-.786a2.153 2.153 0 00-1.195.569 4.068 4.068 0 00-1.163 2.119l-.786 2.688a6.465 6.465 0 01-1.478 2.846 3.522 3.522 0 01-2.613.948zm6.289-11.7h1.729v-8.696h-1.729a3.457 3.457 0 00-2.688 1.012c-.619.675-.928 1.76-.928 3.257 0 1.581.309 2.714.928 3.4a3.443 3.443 0 002.688 1.028zm17.765 11.384v-21.82a14.685 14.685 0 012.466-.49 27.877 27.877 0 013.035-.142 9.684 9.684 0 014.228.79 4.938 4.938 0 012.391 2.53c.567 1.46.829 3.02.77 4.585a13.178 13.178 0 01-.723 4.807 4.988 4.988 0 01-2.154 2.612 7.187 7.187 0 01-3.57.806c-.231 0-.634-.031-1.21-.094a15.075 15.075 0 01-1.462-.222v6.641l-3.771-.003zm3.774-8.854h1.729a3.673 3.673 0 001.996-.506 3.114 3.114 0 001.211-1.74 11.42 11.42 0 00.409-3.447 10.874 10.874 0 00-.409-3.351 3.028 3.028 0 00-1.211-1.692 3.77 3.77 0 00-1.996-.49h-1.729V91.24zm18.865 9.17a6.819 6.819 0 01-3.82-1.06 6.81 6.81 0 01-2.516-3.557 20.641 20.641 0 01-.896-6.767 20.5 20.5 0 01.896-6.752 6.904 6.904 0 012.516-3.557 7.327 7.327 0 017.641 0 6.904 6.904 0 012.515 3.558 20.49 20.49 0 01.896 6.751 20.641 20.641 0 01-.896 6.767 6.804 6.804 0 01-2.515 3.558 6.82 6.82 0 01-3.821 1.059zm0-2.213a2.199 2.199 0 001.274-.427 3.624 3.624 0 001.103-1.436 10.68 10.68 0 00.786-2.8c.399-2.99.399-6.02 0-9.011a10.676 10.676 0 00-.786-2.799 3.624 3.624 0 00-1.103-1.436 2.118 2.118 0 00-2.547 0 3.625 3.625 0 00-1.104 1.436 10.715 10.715 0 00-.786 2.799 34.16 34.16 0 000 9.012c.134.964.398 1.906.786 2.799a3.626 3.626 0 001.104 1.436c.37.271.815.42 1.273.427zm17.451 2.213a7.747 7.747 0 01-4.072-.996 6.126 6.126 0 01-2.484-3.478 22.612 22.612 0 01-.834-6.91 23.02 23.02 0 01.818-6.91 6.188 6.188 0 012.406-3.478 7.106 7.106 0 013.851-.996 21.494 21.494 0 013.003.19c.689.081 1.368.23 2.029.443v1.74h-3.774a3.846 3.846 0 00-2.358.773 5.113 5.113 0 00-1.623 2.72 20.26 20.26 0 00-.584 5.518c-.06 1.853.141 3.706.597 5.502a4.995 4.995 0 001.705 2.734 4.358 4.358 0 002.578.775h3.773v1.739c-.665.192-1.343.334-2.028.427-.995.145-1.998.214-3.003.207zm13.678 0a7.757 7.757 0 01-4.072-.994 6.125 6.125 0 01-2.484-3.479 22.58 22.58 0 01-.833-6.909 22.96 22.96 0 01.818-6.91 6.182 6.182 0 012.405-3.478 7.109 7.109 0 013.852-.996 21.488 21.488 0 013.003.19c.689.081 1.368.23 2.028.442v1.74h-3.773a3.841 3.841 0 00-2.358.774 5.107 5.107 0 00-1.623 2.72 20.222 20.222 0 00-.584 5.518 19.728 19.728 0 00.597 5.502 4.983 4.983 0 001.704 2.732 4.358 4.358 0 002.578.775h3.773v1.739a14.18 14.18 0 01-2.029.427c-.994.145-1.998.214-3.002.207zm7.703-.316V77.957h3.616v14.547h.158l5.816-14.547h3.931v22.136h-3.617V85.231h-.158l-5.971 14.862h-3.775zm18.237.316a9.21 9.21 0 01-2.201-.316v-1.74a2.581 2.581 0 001.509-.394c.427-.338.726-.813.849-1.344l.786-2.688a7.153 7.153 0 011.101-2.404c.321-.469.753-.85 1.258-1.11v-.126a5.2 5.2 0 01-1.887-.854 5.81 5.81 0 01-1.776-1.977 6.254 6.254 0 01-.739-3.177c0-2.214.581-3.875 1.745-4.981 1.163-1.107 3.045-1.66 5.644-1.66 1.018-.008 2.037.04 3.05.142.831.09 1.652.254 2.453.49v21.82h-3.774v-8.851h-.786a2.147 2.147 0 00-1.195.569 4.059 4.059 0 00-1.163 2.119l-.786 2.688a6.462 6.462 0 01-1.478 2.846 3.505 3.505 0 01-2.61.948zm6.289-11.7h1.729v-8.696h-1.729a3.455 3.455 0 00-2.688 1.012c-.619.675-.929 1.76-.928 3.257 0 1.581.309 2.714.928 3.4a3.432 3.432 0 002.688 1.028zm11.319 10.751l-2.673-1.739 4.089-5.439v-.19l-4.089-5.438 2.673-1.74 5.503 7.274-5.503 7.273zm6.289 0l-2.673-1.739 4.089-5.439v-.19l-4.089-5.438 2.673-1.74L608 92.188l-5.502 7.273z" fill="#E8DACD"/></g><defs><clipPath id="clip0_5_2362"><path fill="#fff" d="M0 0h608v104H0z"/></clipPath></defs></svg>