<svg width="17" height="20" fill="none" xmlns="http://www.w3.org/2000/svg"><path fill-rule="evenodd" clip-rule="evenodd" d="M4.5 1a1 1 0 011-1h6a1 1 0 110 2h-2v1.059a8.5 8.5 0 014.262 1.765l.83-.831a1 1 0 111.415 1.414l-.831.831a8.502 8.502 0 01-.666 11.272A8.5 8.5 0 011.824 6.238l-.831-.83a1 1 0 011.414-1.415l.831.831A8.5 8.5 0 017.5 3.06V2h-2a1 1 0 01-1-1zm4 4a6.5 6.5 0 00-4.532 1.84 1.013 1.013 0 01-.128.128 6.5 6.5 0 109.32 0 1.012 1.012 0 01-.128-.128A6.504 6.504 0 008.5 5zm0 2a1 1 0 011 1v3h1a1 1 0 110 2h-2a1 1 0 01-1-1V8a1 1 0 011-1z" fill="#6080AF"/></svg>