<svg width="1300" height="601" fill="none" xmlns="http://www.w3.org/2000/svg"><path d="M-96 74c37.63 54.976 159.89 175.462 347.887 217.6 234.996 52.673 673.887-126.07 906.583-97.575C1344.62 216.822 1486.39 304.84 1534 346" stroke="#6080AF" stroke-width="2" stroke-linejoin="round" stroke-dasharray="10 10"/><path d="M1550.13 261.963c-54.02-45.127-210.87-135.762-406.03-137.281-243.959-1.898-610.496 261.45-844.453 282.359C112.481 423.768-52.77 368.455-112 338.708" stroke="#6080AF" stroke-width="2" stroke-linejoin="round" stroke-dasharray="10 10"/><path d="M-34.243 90.098C8.447 76.96 125.898 63.776 254.19 116.124c160.363 65.436 440.526 333.535 676.69 353.553 236.161 20.017 391.731-100.781 482.431-108.483 72.55-6.161 125.83 3.244 143.4 8.717" stroke="#6080AF" stroke-width="2" stroke-linecap="round" stroke-linejoin="round" stroke-dasharray="10 10"/></svg>