<svg width="262" height="270" fill="none" xmlns="http://www.w3.org/2000/svg"><path d="M40 46.161C15.932 69.755 1 102.634 1 139c0 71.797 58.203 130 130 130s130-58.203 130-130S202.797 9 131 9c-12.672 0-24.92 1.813-36.5 5.194" stroke="#6080AF" stroke-width="2" stroke-linecap="round"/><path d="M70.87 47.428l4.417-2.66a2.441 2.441 0 001.165-1.903l1.152-16.646 4.52-2.724a4.882 4.882 0 002.22-3.012 4.902 4.902 0 00-.56-3.705v0a4.905 4.905 0 00-3.014-2.227 4.885 4.885 0 00-3.7.555l-4.521 2.724-15.256-6.76a2.446 2.446 0 00-2.226.141l-4.416 2.662 9.675 11.322-6.278 3.783-5.74-1.43a2.444 2.444 0 00-1.832.276l-5.42 3.266 9.24 5.867.869 10.91 5.42-3.266a2.44 2.44 0 001.1-1.49l1.418-5.744 6.279-3.783 5.489 13.844z" stroke="#6080AF" stroke-width="2" stroke-linecap="round" stroke-linejoin="round"/></svg>