<svg width="62" height="59" fill="none" xmlns="http://www.w3.org/2000/svg"><path d="M22.607 51.258l-2.024 1.34a2.667 2.667 0 01-3.695-.751L2.167 29.611a2.667 2.667 0 01.751-3.696L34.67 4.894a2.668 2.668 0 013.113.114l11.547 8.89.568.615 7.125 10.763a2.667 2.667 0 01-.752 3.695l-2.024 1.34" stroke="#6080AF" stroke-width="2.667" stroke-linecap="round" stroke-linejoin="round"/><path d="M9.527 40.729L49.55 14.23m-4.642 22.262L31.88 45.12m-7.57-1.384a5.334 5.334 0 105.888 8.896 5.334 5.334 0 00-5.887-8.896v0zm22.236-14.721a5.334 5.334 0 105.889 8.896 5.334 5.334 0 00-5.889-8.896v0zm-23.677 2.882l13.341-8.832-8.832-13.341-13.341 8.832 8.832 13.341z" stroke="#6080AF" stroke-width="2.667" stroke-linecap="round" stroke-linejoin="round"/></svg>