<svg width="50" height="48" fill="none" xmlns="http://www.w3.org/2000/svg"><path d="M3.237 11.972l3.386 3.68m31.621 4.873l-3.673 3.38M13.826 12.42a2.503 2.503 0 00-3.53-.149L2.95 19.032a2.493 2.493 0 00-.144 3.529l8.465 9.198 11.02-10.141-8.465-9.198zm15.4-3.98l6.207-5.713a2.494 2.494 0 013.53.15l1.693 1.84 7.373 18.185a2.499 2.499 0 01-.608 2.767l-21.69 19.96a2.494 2.494 0 01-3.123.293L9.696 37.42a2.502 2.502 0 01-.93-3.047c.149-.355.377-.671.668-.924l20.202-18.591-1.132-3.885a2.5 2.5 0 01.721-2.533v0z" stroke="#6080AF" stroke-width="2.667" stroke-linecap="round" stroke-linejoin="round"/></svg>