<svg width="51" height="47" fill="none" xmlns="http://www.w3.org/2000/svg"><path d="M16.056 18.118l2.442 1.324m15.687-17.28l14.652 7.945M39.07 4.81l-5.402 9.964M42.4 45.292L3.328 24.108a2.75 2.75 0 01-1.331-1.665 2.863 2.863 0 01.24-2.149L10.338 5.35a2.863 2.863 0 011.67-1.373 2.75 2.75 0 012.123.206l24.42 13.24a19.113 19.113 0 015.821 4.874c1.6 2 2.787 4.307 3.497 6.786.71 2.48.926 5.085.638 7.666a20.178 20.178 0 01-2.317 7.378 2.863 2.863 0 01-1.67 1.372 2.751 2.751 0 01-2.121-.206v0zm-3.849-27.87l-4.884-2.648-4.051 7.472a2.862 2.862 0 00-.24 2.15 2.75 2.75 0 001.331 1.666l17.876 9.691c.23-3.73-.591-7.433-2.367-10.677a19.166 19.166 0 00-7.665-7.654v0z" stroke="#6080AF" stroke-width="2.667" stroke-linecap="round" stroke-linejoin="round"/></svg>