<svg width="54" height="54" fill="none" xmlns="http://www.w3.org/2000/svg"><path fill-rule="evenodd" clip-rule="evenodd" d="M27 50.018c13.307 0 24-10.577 24-23.509S40.307 3 27 3 3 13.577 3 26.51c0 12.93 10.693 23.507 24 23.507zm0 3c14.912 0 27-11.868 27-26.509C54 11.87 41.912 0 27 0S0 11.868 0 26.51c0 14.64 12.088 26.508 27 26.508z" fill="#6080AF"/><path fill-rule="evenodd" clip-rule="evenodd" d="M25.973 18.664a.739.739 0 00-.452.13.67.67 0 00-.26.351l-6.16 20.127a1.5 1.5 0 01-2.714.344l-5.989-9.78a.69.69 0 00-.255-.244.742.742 0 00-.36-.093H6.625a1.5 1.5 0 110-2.998h3.158a3.74 3.74 0 011.825.475 3.688 3.688 0 011.358 1.31l4.24 6.925 5.188-16.947a3.667 3.667 0 011.412-1.929 3.74 3.74 0 012.258-.667h20.311a1.5 1.5 0 110 2.998H26.036c-.02 0-.042 0-.063-.002zm3.873 8.286a1.5 1.5 0 012.122-.02l3.365 3.303L38.7 26.93a1.5 1.5 0 012.121.02c.58.59.572 1.54-.02 2.12l-3.326 3.263 3.327 3.264a1.498 1.498 0 11-2.102 2.14l-3.366-3.303-3.365 3.302a1.5 1.5 0 01-2.122-.02 1.498 1.498 0 01.02-2.119l3.326-3.264-3.326-3.263a1.498 1.498 0 01-.02-2.12z" fill="#6080AF"/></svg>