<svg width="54" height="54" fill="none" xmlns="http://www.w3.org/2000/svg"><path fill-rule="evenodd" clip-rule="evenodd" d="M27 51c13.255 0 24-10.745 24-24S40.255 3 27 3 3 13.745 3 27s10.745 24 24 24zm0 3c14.912 0 27-12.088 27-27S41.912 0 27 0 0 12.088 0 27s12.088 27 27 27z" fill="#6080AF"/><path fill-rule="evenodd" clip-rule="evenodd" d="M33.5 16a1.5 1.5 0 011.5-1.5h9.1a3.437 3.437 0 012.392.971 3.322 3.322 0 011.008 2.386v5.572a3.322 3.322 0 01-1.008 2.386 3.437 3.437 0 01-2.392.971h-7.253l-7.288 3.562A1.5 1.5 0 0127.4 29v-2.559a3.356 3.356 0 01-1.636-1.717 3.32 3.32 0 01-.264-1.295v-3.715a1.5 1.5 0 013 0v3.715a.32.32 0 00.026.125c.017.04.043.08.079.115a.418.418 0 00.295.117 1.5 1.5 0 011.5 1.5v1.311l5.441-2.659c.206-.1.43-.152.659-.152h7.6a.438.438 0 00.295-.117.356.356 0 00.08-.115.32.32 0 00.025-.125v-5.572a.32.32 0 00-.026-.125.356.356 0 00-.079-.115.405.405 0 00-.13-.085.44.44 0 00-.165-.032H35a1.5 1.5 0 01-1.5-1.5z" fill="#6080AF"/><path fill-rule="evenodd" clip-rule="evenodd" d="M12.476 9.476a3.333 3.333 0 012.357-.976h18.334a3.333 3.333 0 013.333 3.333v5.5a3.333 3.333 0 01-3.333 3.334H14.833a3.333 3.333 0 01-3.333-3.334v-5.5c0-.884.351-1.732.976-2.357zm2.357 2.024a.333.333 0 00-.333.333v5.5a.333.333 0 00.333.334h18.334a.334.334 0 00.333-.334v-5.5a.332.332 0 00-.333-.333H14.833zm.797 16.204a5.167 5.167 0 016.79 7.663 6.997 6.997 0 013.08 5.8V43a1.5 1.5 0 01-1.5 1.5H13a1.5 1.5 0 01-1.5-1.5v-1.833a7 7 0 013.08-5.8 5.168 5.168 0 011.05-7.663zm2.865 6.463a2.161 2.161 0 01-1.527-.635 2.167 2.167 0 111.54.635m-.008 0h-.005.005zm-.006 3a4 4 0 00-3.994 4v.333h8v-.333a4 4 0 00-3.994-4h-.012z" fill="#6080AF"/></svg>