<svg width="54" height="54" fill="none" xmlns="http://www.w3.org/2000/svg"><path fill-rule="evenodd" clip-rule="evenodd" d="M27 51c13.255 0 24-10.745 24-24S40.255 3 27 3 3 13.745 3 27s10.745 24 24 24zm0 3c14.912 0 27-12.088 27-27S41.912 0 27 0 0 12.088 0 27s12.088 27 27 27z" fill="#6080AF"/><path fill-rule="evenodd" clip-rule="evenodd" d="M27 9.5a6.5 6.5 0 00-6.5 6.5v12a6.5 6.5 0 1013 0V16A6.5 6.5 0 0027 9.5zm1.5 27.88a9.5 9.5 0 008-9.38V16a9.5 9.5 0 10-19 0v12a9.5 9.5 0 008 9.38v5.12H21a1.5 1.5 0 000 3h12a1.5 1.5 0 000-3h-4.5v-5.12z" fill="#6080AF"/></svg>