<svg width="360" height="186" fill="none" xmlns="http://www.w3.org/2000/svg"><path fill-rule="evenodd" clip-rule="evenodd" d="M70.308 134.009l-.024-.006a.998.998 0 00-.744.104l-4.433 2.561c-.23.133-.397.351-.466.607l-2.312 8.629-.85-.966-.002-.002a2.817 2.817 0 00-2.798-.86 2.81 2.81 0 00-2.04 2.075l-4.275 15.953a2.81 2.81 0 001.988 3.441l27.983 7.498a2.808 2.808 0 003.442-1.987l4.297-16.039.002-.005a2.811 2.811 0 00-3.604-3.38l-1.226.419 2.782-10.384a2.815 2.815 0 00-1.004-2.958 2.796 2.796 0 00-.984-.485l-15.732-4.215zm-3.994 4.75l2.532.678a.997.997 0 001.225-.707l.678-2.532 14.773 3.958a.798.798 0 01.493.378.811.811 0 01.08.615l-3.129 11.68-10.715 3.661a.804.804 0 01-.835-.267l-.01-.012-.01-.012-7.48-8.492 2.398-8.948zm1.884-1.566l.2.054.053-.201-.253.147zm-6.326 11.218l-1.893-2.149v-.001a.804.804 0 00-.806-.247.817.817 0 00-.59.604l-.009.035-4.278 15.968a.812.812 0 00.574.993l27.982 7.497a.811.811 0 00.993-.573l4.296-16.033v-.002a.81.81 0 00-1.036-.974l-.004.001-2.742.937a.992.992 0 01-.257.131l-11.23 3.794-.003.001-.005.002a2.814 2.814 0 01-2.987-.801l-.003-.004-7.83-8.902a.99.99 0 01-.172-.277z" fill="#6080AF"/><path d="M-334.019 7.593c20.571-5.206 77.269-10.102 139.495 11.965C-137.686 39.714-39.957 108.905 48 146m388.024-16.451c13.977-4.215-27.023-13.549-69.336-4.215C323.839 134.787 256.711 177.266 142.5 168c-7.101-.576-40.746-6.68-48-8" stroke="#6080AF" stroke-width="2" stroke-linecap="round" stroke-linejoin="round" stroke-dasharray="10 10"/></svg>