<svg width="176" height="90" fill="none" xmlns="http://www.w3.org/2000/svg"><path d="M1 41c12.22-3.26 32.146-6.286 53.5-6.385M175 89c-5.424-6.78-16.57-20.1-46-36.633" stroke="#3E638C" stroke-linecap="round" stroke-linejoin="round" stroke-dasharray="10 10"/><path d="M95.144 42.81l24.06-8.22a3.06 3.06 0 013.924 3.68l-7.262 27.103a3.058 3.058 0 01-3.748 2.163L64.83 54.866a3.06 3.06 0 01-2.165-3.747l7.23-26.985a3.06 3.06 0 015.272-1.343l16.76 19.03a3.061 3.061 0 003.217.99v0zm-3.252-.871a3.062 3.062 0 003.252.871l18.982-6.413 5.543-20.69a3.07 3.07 0 00-.305-2.322 3.061 3.061 0 00-1.859-1.425l-26.6-7.127-7.493 4.329-4.75 17.733 13.23 15.044zm-8.48-32.778l5.911 1.584 1.584-5.912-7.495 4.329z" stroke="#3E638C" stroke-width="3" stroke-linecap="round" stroke-linejoin="round"/></svg>