<svg width="325" height="105" fill="none" xmlns="http://www.w3.org/2000/svg"><path d="M1 104c11.314-11.314 22.892-21.96 35.5-31.859M324 10.001C307.667 5.666 247.386-4.298 190 7c-28.298 5.57-52.425 12.401-73.5 20.376" stroke="#3E638C" stroke-linecap="round" stroke-linejoin="round" stroke-dasharray="10 10"/><path d="M97.868 47.968l11.363.86a4 4 0 004.029-5.485l-9.049-22.229a3.994 3.994 0 00-3.047-2.425 4.001 4.001 0 00-3.666 1.315l-7.532 8.551 7.902 19.413zm1.392 14.03L54.803 80.095A4 4 0 0149.59 77.9L34.508 40.85a4 4 0 012.197-5.213L81.163 17.54a4 4 0 015.213 2.197l15.082 37.049a4.004 4.004 0 01-2.198 5.212zM71.688 47.31l-9.673-2.541 4.525 11.114 5.148-8.574z" stroke="#3E638C" stroke-width="3" stroke-linecap="round" stroke-linejoin="round"/></svg>