<svg width="360" height="185" fill="none" xmlns="http://www.w3.org/2000/svg"><path d="M-342.019 7.593c20.571-5.206 77.269-10.102 139.495 11.965C-145.686 39.714-45.457 108.405 42.5 145.5m385.524-15.951c13.977-4.215-27.023-13.549-69.336-4.215C315.839 134.787 250.087 166.5 135.5 166.5c-10.041 0-39.246-3.679-46.5-5" stroke="#6080AF" stroke-width="2" stroke-linecap="round" stroke-linejoin="round" stroke-dasharray="10 10"/><path fill-rule="evenodd" clip-rule="evenodd" d="M73.054 136.731a15.803 15.803 0 00-9.116-.116 15.706 15.706 0 00-7.641 4.931 15.485 15.485 0 00-.72 19.155.991.991 0 01.185.25 15.666 15.666 0 004.963 4.276 15.795 15.795 0 0012.382 1.189.999.999 0 01.295-.097 15.744 15.744 0 004.706-2.569 15.58 15.58 0 005.157-7.456 15.48 15.48 0 00-1.024-11.878 15.665 15.665 0 00-9.187-7.685zm1.41 31.333a17.723 17.723 0 004.888-2.748 17.574 17.574 0 005.818-8.414 17.478 17.478 0 00-1.155-13.411 17.669 17.669 0 00-10.36-8.668 17.809 17.809 0 00-10.27-.13c-3.36.966-6.358 2.9-8.614 5.559a17.527 17.527 0 00-4.055 9.382 17.484 17.484 0 002.985 11.879l-5.59 10.864a1 1 0 00.78 1.451l11.89 1.304 10.471 5.745a1.002 1.002 0 001.47-.734l1.743-12.079zm-2.111.633a17.782 17.782 0 01-12.588-1.716 17.648 17.648 0 01-4.705-3.738l-4.505 8.756 10.642 1.167c.13.014.257.054.372.117l9.38 5.146 1.404-9.732zm-7.799-24.314a8.198 8.198 0 019.001.997 8.1 8.1 0 012.582 3.946 8.06 8.06 0 01-.06 4.71 8.12 8.12 0 01-4.024 4.745 8.205 8.205 0 01-6.215.528 8.157 8.157 0 01-3.902-2.663 8.063 8.063 0 01-.773-8.979 8.133 8.133 0 013.391-3.284zm4.432 1.13a6.203 6.203 0 00-3.517.648 6.139 6.139 0 00-2.558 2.476 6.066 6.066 0 00.583 6.755 6.152 6.152 0 002.946 2.009 6.198 6.198 0 004.698-.399 6.118 6.118 0 003.033-3.575 6.058 6.058 0 00.046-3.541 6.097 6.097 0 00-1.945-2.972 6.179 6.179 0 00-3.286-1.401z" fill="#6080AF"/></svg>