<svg width="360" height="190" fill="none" xmlns="http://www.w3.org/2000/svg"><path d="M667.716 7.593C647.145 2.387 590.447-2.51 528.221 19.558 471.383 39.714 381.457 102.905 293.5 140m-395.827-10.451c-13.977-4.215 27.023-13.549 69.336-4.215C9.858 134.787 78.789 180.766 193 171.5c7.101-.576 38.246-8.679 45.5-10" stroke="#6080AF" stroke-width="2" stroke-linecap="round" stroke-linejoin="round" stroke-dasharray="10 10"/><path fill-rule="evenodd" clip-rule="evenodd" d="M270.605 137.104a1.297 1.297 0 00-1.003-.006l-25.777 10.604a1.335 1.335 0 00-.72.721c-.138.33-.14.703-.006 1.035l8.744 21.709s0-.001 0 0c.134.331.391.593.712.729.32.136.68.139 1.002.006l25.777-10.604c.323-.133.583-.391.721-.721.137-.33.14-.702.006-1.035m0 0l-2.081-5.166s.001.001 0 0l-6.663-16.542a1.334 1.334 0 00-.712-.73m4.039 3.636l-1.472-3.653a3.33 3.33 0 00-1.783-1.823 3.301 3.301 0 00-2.548-.016l-25.776 10.604a3.328 3.328 0 00-1.806 1.801 3.368 3.368 0 00-.015 2.553l8.744 21.708c.33.82.971 1.476 1.783 1.822.814.346 1.73.352 2.547.016l25.777-10.604a3.33 3.33 0 001.805-1.801c.34-.815.346-1.732.017-2.551l-1.48-3.674 4.978.381h.003a3.295 3.295 0 001.646-.294 3.324 3.324 0 001.295-1.064 3.36 3.36 0 00.401-3.224l-5.247-13.027-.002-.004a3.346 3.346 0 00-1-1.345 3.307 3.307 0 00-4.573.416l-.002.002-3.292 3.777zm.838 2.082l4.121 10.23 5.969.457h.004c.222.018.446-.022.649-.116.204-.094.382-.24.516-.424a1.369 1.369 0 00.162-1.305v-.001l-5.244-13.019-.001-.002a1.347 1.347 0 00-.4-.538 1.297 1.297 0 00-1.809.166l-.002.004-3.965 4.548zm-18.111 8.643a1 1 0 011.005-.304l5.609 1.489a.997.997 0 01.603 1.477l-2.985 5.024a1 1 0 01-1.787-.137l-2.624-6.513a1.001 1.001 0 01.179-1.036zm2.423 2.141l1.122 2.786 1.276-2.149-2.398-.637z" fill="#6080AF"/></svg>