<svg width="243" height="242" fill="none" xmlns="http://www.w3.org/2000/svg"><path fill-rule="evenodd" clip-rule="evenodd" d="M214.56 145.838a98.204 98.204 0 01-2.002 6.548 1.199 1.199 0 102.269.782 100.312 100.312 0 003.143-11.195 1.2 1.2 0 10-2.344-.514c-.32 1.46-.675 2.92-1.066 4.379zm3.628-11.921a1.2 1.2 0 001.338-1.044c.379-3.079.61-6.15.698-9.206a1.2 1.2 0 10-2.399-.069 95.764 95.764 0 01-.681 8.981 1.2 1.2 0 001.044 1.338zm-9.38 30.537a1.2 1.2 0 00-1.616.52 95.815 95.815 0 01-3.341 5.974 1.199 1.199 0 102.051 1.246 98.528 98.528 0 003.426-6.124 1.2 1.2 0 00-.52-1.616zm10.126-48.743a1.2 1.2 0 001.119-1.276 98.092 98.092 0 00-1.04-9.174 1.2 1.2 0 00-2.369.382 95.693 95.693 0 011.014 8.95 1.2 1.2 0 001.276 1.118zm-2.678-18.022a1.2 1.2 0 00.86-1.463 98.79 98.79 0 00-2.735-8.818 1.2 1.2 0 00-2.257.817 96.557 96.557 0 012.669 8.604 1.2 1.2 0 001.463.86zm-5.993-17.208a1.2 1.2 0 00.573-1.597 100.068 100.068 0 00-2.066-4.129 1.2 1.2 0 00-2.121 1.124 95.828 95.828 0 012.016 4.029 1.2 1.2 0 001.598.573z" fill="#6080AF"/><path fill-rule="evenodd" clip-rule="evenodd" d="M208.248 76.333a1.15 1.15 0 00.478-1.555c-12.378-23.362-34.066-41.716-61.621-49.099C94.502 11.584 40.433 42.801 26.338 95.404 12.243 148.007 43.46 202.076 96.063 216.17c26.644 7.139 53.666 2.652 75.676-10.348a1.15 1.15 0 00-1.17-1.98c-21.5 12.699-47.888 17.079-73.91 10.106-51.377-13.766-81.865-66.574-68.1-117.95C42.327 44.623 95.135 14.134 146.51 27.901c26.912 7.21 48.092 25.133 60.184 47.954a1.15 1.15 0 001.554.478z" fill="#6080AF"/></svg>