<svg width="199" height="198" fill="none" xmlns="http://www.w3.org/2000/svg"><path fill-rule="evenodd" clip-rule="evenodd" d="M99.584 2.947c-2.301 0-4.583.08-6.843.24a1.2 1.2 0 01-.168-2.395A100.074 100.074 0 01104.2.653a1.2 1.2 0 11-.111 2.397 97.893 97.893 0 00-4.505-.103zm12.453-.42a1.2 1.2 0 011.355-1.021 98.263 98.263 0 019.074 1.708 1.2 1.2 0 01-.555 2.335 95.866 95.866 0 00-8.852-1.666 1.201 1.201 0 01-1.022-1.355zM80.113 3.686a1.2 1.2 0 01-.92 1.426 95.556 95.556 0 00-6.635 1.681 1.2 1.2 0 11-.673-2.303 97.952 97.952 0 016.802-1.724 1.2 1.2 0 011.426.92zm49.703 2.834a1.2 1.2 0 011.522-.75 97.98 97.98 0 018.592 3.379 1.2 1.2 0 01-.982 2.19 95.54 95.54 0 00-8.382-3.297 1.2 1.2 0 01-.75-1.522zm16.715 7.252a1.2 1.2 0 011.636-.452 98.614 98.614 0 017.809 4.923 1.2 1.2 0 11-1.373 1.969 96.369 96.369 0 00-7.62-4.804 1.2 1.2 0 01-.452-1.636zm15.07 10.242a1.2 1.2 0 011.692-.14 99.169 99.169 0 013.453 3.064 1.2 1.2 0 01-1.634 1.758 97.683 97.683 0 00-3.37-2.99 1.2 1.2 0 01-.141-1.692z" fill="#6080AF"/><path fill-rule="evenodd" clip-rule="evenodd" d="M165.087 27.033a1.15 1.15 0 011.625-.06c19.363 18.004 31.478 43.703 31.478 72.23 0 54.458-44.148 98.605-98.606 98.605-54.459 0-98.606-44.147-98.606-98.605 0-27.584 11.328-52.524 29.582-70.42a1.15 1.15 0 011.61 1.643C14.339 47.906 3.278 72.262 3.278 99.203c0 53.188 43.118 96.305 96.306 96.305 53.188 0 96.306-43.117 96.306-96.305 0-27.862-11.83-52.959-30.744-70.545a1.15 1.15 0 01-.059-1.625z" fill="#6080AF"/></svg>