<svg width="9" height="22" viewBox="0 0 9 22" fill="none" xmlns="http://www.w3.org/2000/svg">
<path fill-rule="evenodd" clip-rule="evenodd" d="M5.00242 21.8105C4.72494 22.0632 4.27506 22.0632 3.99758 21.8105L0.20811 18.3595C-0.069368 18.1068 -0.0693679 17.6972 0.20811 17.4445C0.485587 17.1918 0.935468 17.1918 1.21295 17.4445L4.5 20.4379L7.78706 17.4445C8.06453 17.1918 8.51441 17.1918 8.79189 17.4445C9.06937 17.6972 9.06937 18.1068 8.79189 18.3595L5.00242 21.8105Z" fill="#6080AF"/>
<path fill-rule="evenodd" clip-rule="evenodd" d="M4.49992 21.9998C4.10751 21.9998 3.7894 21.7101 3.7894 21.3527L3.7894 0.647052C3.7894 0.289695 4.10751 -3.60336e-07 4.49993 -3.27563e-07C4.89234 -2.94789e-07 5.21045 0.289695 5.21045 0.647052L5.21045 21.3527C5.21045 21.7101 4.89234 21.9998 4.49992 21.9998Z" fill="#6080AF"/>
</svg>
