<svg width="51" height="19" viewBox="0 0 51 19" fill="none" xmlns="http://www.w3.org/2000/svg">
<path fill-rule="evenodd" clip-rule="evenodd" d="M50.5611 8.43934C51.1469 9.02513 51.1469 9.97487 50.5611 10.5607L42.5611 18.5607C41.9754 19.1464 41.0256 19.1464 40.4398 18.5607C39.854 17.9749 39.854 17.0251 40.4398 16.4393L47.3792 9.5L40.4398 2.56066C39.854 1.97487 39.854 1.02513 40.4398 0.439339C41.0256 -0.146447 41.9754 -0.146447 42.5611 0.439339L50.5611 8.43934Z" fill="#6080AF"/>
<path fill-rule="evenodd" clip-rule="evenodd" d="M51 9.50024C51 10.3287 50.3284 11.0002 49.5 11.0002L1.5 11.0002C0.671574 11.0002 -1.01779e-07 10.3287 -6.55671e-08 9.50024C-2.93554e-08 8.67181 0.671574 8.00024 1.5 8.00024L49.5 8.00024C50.3284 8.00024 51 8.67182 51 9.50024Z" fill="#6080AF"/>
</svg>
