<svg width="73" height="73" viewBox="0 0 73 73" fill="none" xmlns="http://www.w3.org/2000/svg">
<path d="M49.2982 26.1767C49.5716 25.9034 49.5716 25.4602 49.2982 25.1868L47.5878 23.4764C47.3145 23.2031 46.8712 23.2031 46.5979 23.4764L36.8823 33.192C36.6089 33.4654 36.1657 33.4654 35.8923 33.192L26.1767 23.4764C25.9034 23.2031 25.4602 23.2031 25.1868 23.4764L23.4764 25.1868C23.2031 25.4602 23.2031 25.9034 23.4764 26.1767L33.192 35.8923C33.4654 36.1657 33.4654 36.6089 33.192 36.8823L23.4764 46.5979C23.2031 46.8712 23.2031 47.3145 23.4764 47.5878L25.1868 49.2982C25.4602 49.5716 25.9034 49.5716 26.1767 49.2982L35.8923 39.5826C36.1657 39.3092 36.6089 39.3092 36.8823 39.5826L46.5979 49.2982C46.8712 49.5716 47.3145 49.5716 47.5878 49.2982L49.2982 47.5878C49.5716 47.3145 49.5716 46.8712 49.2982 46.5979L39.5826 36.8823C39.3092 36.6089 39.3092 36.1657 39.5826 35.8923L49.2982 26.1767Z" fill="#D1DCF1"/>
</svg>
