<svg width="73" height="73" viewBox="0 0 73 73" fill="none" xmlns="http://www.w3.org/2000/svg">
<path d="M18 26.9463C18 26.4237 18.4237 26 18.9463 26H54.9056C55.4282 26 55.8519 26.4237 55.8519 26.9463V28.4948C55.8519 29.0174 55.4282 29.4411 54.9056 29.4411H18.9463C18.4237 29.4411 18 29.0174 18 28.4948V26.9463Z" fill="#224970"/>
<path d="M18 35.549C18 35.0264 18.4237 34.6027 18.9463 34.6027H54.9056C55.4282 34.6027 55.8519 35.0264 55.8519 35.549V37.0975C55.8519 37.6201 55.4282 38.0438 54.9056 38.0438H18.9463C18.4237 38.0438 18 37.6201 18 37.0975V35.549Z" fill="#224970"/>
<path d="M18 44.1517C18 43.6291 18.4237 43.2054 18.9463 43.2054H54.9056C55.4282 43.2054 55.8519 43.6291 55.8519 44.1517V45.7002C55.8519 46.2228 55.4282 46.6465 54.9056 46.6465H18.9463C18.4237 46.6465 18 46.2228 18 45.7002V44.1517Z" fill="#224970"/>
</svg>
