<svg width="54" height="54" viewBox="0 0 54 54" fill="none" xmlns="http://www.w3.org/2000/svg">
<path d="M13.3152 19.9329C13.3152 19.5463 13.6286 19.2329 14.0152 19.2329H40.6152C41.0018 19.2329 41.3152 19.5463 41.3152 19.9329V21.0784C41.3152 21.465 41.0018 21.7784 40.6152 21.7784H14.0152C13.6286 21.7784 13.3152 21.465 13.3152 21.0784V19.9329Z" fill="#81A2D1"/>
<path d="M13.3152 26.2965C13.3152 25.9099 13.6286 25.5965 14.0152 25.5965H40.6152C41.0018 25.5965 41.3152 25.9099 41.3152 26.2965V27.442C41.3152 27.8286 41.0018 28.142 40.6152 28.142H14.0152C13.6286 28.142 13.3152 27.8286 13.3152 27.442V26.2965Z" fill="#81A2D1"/>
<path d="M13.3152 32.6602C13.3152 32.2736 13.6286 31.9602 14.0152 31.9602H40.6152C41.0018 31.9602 41.3152 32.2736 41.3152 32.6602V33.8056C41.3152 34.1922 41.0018 34.5056 40.6152 34.5056H14.0152C13.6286 34.5056 13.3152 34.1922 13.3152 33.8056V32.6602Z" fill="#81A2D1"/>
</svg>
