<svg width="21" height="21" viewBox="0 0 21 21" fill="none" xmlns="http://www.w3.org/2000/svg">
<path fill-rule="evenodd" clip-rule="evenodd" d="M15.9104 6.08863C16.3249 6.45363 16.365 7.08552 16 7.5L8.82499 15.6609C8.63523 15.8764 8.362 15.9999 8.07487 16C7.78774 16.0001 7.51442 15.8768 7.32451 15.6615L4.00001 12.3229C3.6347 11.9087 3.67435 11.2767 4.08856 10.9114C4.50277 10.5461 5.1347 10.5858 5.5 11L8.07395 13.4875L14.499 6.17823C14.864 5.76374 15.4959 5.72363 15.9104 6.08863Z" fill="#D1DCF1"/>
<path fill-rule="evenodd" clip-rule="evenodd" d="M10.5 2C5.80558 2 2 5.80558 2 10.5C2 15.1944 5.80558 19 10.5 19C15.1944 19 19 15.1944 19 10.5C19 5.80558 15.1944 2 10.5 2ZM0 10.5C0 4.70101 4.70101 0 10.5 0C16.299 0 21 4.70101 21 10.5C21 16.299 16.299 21 10.5 21C4.70101 21 0 16.299 0 10.5Z" fill="#D1DCF1"/>
</svg>
