<svg width="23" height="12" viewBox="0 0 23 12" fill="none" xmlns="http://www.w3.org/2000/svg">
<path fill-rule="evenodd" clip-rule="evenodd" d="M15.5717 0.382355C16.1106 0.907039 16.1279 1.7752 15.6102 2.32146L6.8386 11.5784C6.58361 11.8475 6.23148 11.9997 5.86339 11.9999C5.4953 12 5.14305 11.8481 4.88785 11.5792L0.377942 6.82731C-0.140095 6.28147 -0.123524 5.41329 0.414954 4.88818C0.953433 4.36306 1.80991 4.37986 2.32795 4.92569L5.86208 8.64948L13.6588 0.421406C14.1764 -0.124845 15.0328 -0.142329 15.5717 0.382355ZM22.5843 0.382495C23.1232 0.907175 23.1404 1.77534 22.6228 2.3216L13.8513 11.5786C13.3337 12.1248 12.4772 12.1423 11.9383 11.6177C11.3995 11.093 11.3822 10.2248 11.8998 9.67855L20.6713 0.421562C21.1889 -0.124694 22.0454 -0.142185 22.5843 0.382495Z" fill="#6080AF"/>
</svg>
