<svg width="3" height="87" viewBox="0 0 3 87" fill="none" xmlns="http://www.w3.org/2000/svg">
<path fill-rule="evenodd" clip-rule="evenodd" d="M1.5 0.75C1.91421 0.75 2.25 1.08579 2.25 1.5V4.125C2.25 4.53921 1.91421 4.875 1.5 4.875C1.08579 4.875 0.75 4.53921 0.75 4.125V1.5C0.75 1.08579 1.08579 0.75 1.5 0.75ZM1.5 8.625C1.91421 8.625 2.25 8.96079 2.25 9.375V14.625C2.25 15.0392 1.91421 15.375 1.5 15.375C1.08579 15.375 0.75 15.0392 0.75 14.625V9.375C0.75 8.96079 1.08579 8.625 1.5 8.625ZM1.5 19.125C1.91421 19.125 2.25 19.4608 2.25 19.875V25.125C2.25 25.5392 1.91421 25.875 1.5 25.875C1.08579 25.875 0.75 25.5392 0.75 25.125V19.875C0.75 19.4608 1.08579 19.125 1.5 19.125ZM1.5 29.625C1.91421 29.625 2.25 29.9608 2.25 30.375V35.625C2.25 36.0392 1.91421 36.375 1.5 36.375C1.08579 36.375 0.75 36.0392 0.75 35.625V30.375C0.75 29.9608 1.08579 29.625 1.5 29.625ZM1.5 40.125C1.91421 40.125 2.25 40.4608 2.25 40.875V46.125C2.25 46.5392 1.91421 46.875 1.5 46.875C1.08579 46.875 0.75 46.5392 0.75 46.125V40.875C0.75 40.4608 1.08579 40.125 1.5 40.125ZM1.5 50.625C1.91421 50.625 2.25 50.9608 2.25 51.375V56.625C2.25 57.0392 1.91421 57.375 1.5 57.375C1.08579 57.375 0.75 57.0392 0.75 56.625V51.375C0.75 50.9608 1.08579 50.625 1.5 50.625ZM1.5 61.125C1.91421 61.125 2.25 61.4608 2.25 61.875V67.125C2.25 67.5392 1.91421 67.875 1.5 67.875C1.08579 67.875 0.75 67.5392 0.75 67.125V61.875C0.75 61.4608 1.08579 61.125 1.5 61.125ZM1.5 71.625C1.91421 71.625 2.25 71.9608 2.25 72.375V77.625C2.25 78.0392 1.91421 78.375 1.5 78.375C1.08579 78.375 0.75 78.0392 0.75 77.625V72.375C0.75 71.9608 1.08579 71.625 1.5 71.625ZM1.5 82.125C1.91421 82.125 2.25 82.4608 2.25 82.875V85.5C2.25 85.9142 1.91421 86.25 1.5 86.25C1.08579 86.25 0.75 85.9142 0.75 85.5V82.875C0.75 82.4608 1.08579 82.125 1.5 82.125Z" fill="#6080AF"/>
</svg>
