<svg width="608" height="104" viewBox="0 0 608 104" fill="none" xmlns="http://www.w3.org/2000/svg">
<g clip-path="url(#clip0_5_2362)">
<path d="M143.863 68.8711C140.731 68.8935 137.732 70.1427 135.502 72.3533C133.272 74.5639 131.987 77.5618 131.92 80.7102C131.92 89.9278 143.863 104 143.863 104C143.863 104 155.805 89.9278 155.805 80.7102C155.738 77.5618 154.453 74.5639 152.223 72.3533C149.993 70.1427 146.994 68.8935 143.863 68.8711ZM143.917 85.5203C142.856 85.5202 141.818 85.2035 140.935 84.6103C140.053 84.0171 139.365 83.174 138.959 82.1877C138.553 81.2013 138.447 80.116 138.654 79.069C138.861 78.022 139.372 77.0603 140.123 76.3055C140.874 75.5507 141.83 75.0368 142.871 74.8286C143.912 74.6205 144.992 74.7275 145.972 75.1361C146.953 75.5448 147.791 76.2367 148.381 77.1244C148.97 78.0122 149.285 79.0558 149.285 80.1233C149.285 80.8322 149.146 81.534 148.876 82.1889C148.606 82.8437 148.211 83.4387 147.712 83.9399C147.214 84.441 146.622 84.8385 145.971 85.1097C145.32 85.3809 144.622 85.5204 143.917 85.5203Z" fill="#922B38"/>
<path d="M166.055 57.9688C163.518 57.9872 161.088 58.9998 159.281 60.7916C157.474 62.5833 156.433 65.0129 156.378 67.5643C156.378 75.0345 166.055 86.4375 166.055 86.4375C166.055 86.4375 175.733 75.0345 175.733 67.5643C175.679 65.0128 174.637 62.5831 172.83 60.7913C171.023 58.9996 168.593 57.987 166.055 57.9688ZM166.099 71.4606C165.239 71.4606 164.399 71.2041 163.683 70.7235C162.968 70.243 162.411 69.5599 162.082 68.7608C161.753 67.9616 161.666 67.0823 161.834 66.2339C162.002 65.3855 162.416 64.6063 163.024 63.9946C163.633 63.383 164.407 62.9664 165.251 62.7977C166.095 62.6289 166.969 62.7155 167.764 63.0466C168.558 63.3776 169.237 63.9381 169.715 64.6574C170.193 65.3766 170.448 66.2221 170.448 67.0871C170.448 68.247 169.99 69.3595 169.174 70.1796C168.359 70.9998 167.253 71.4606 166.099 71.4606Z" fill="#922B38"/>
<path d="M182.107 74.5071C180.433 74.5191 178.828 75.1871 177.636 76.3694C176.443 77.5516 175.755 79.1549 175.719 80.8388C175.719 85.7698 182.107 93.298 182.107 93.298C182.107 93.298 188.495 85.7698 188.495 80.8388C188.459 79.155 187.772 77.5517 186.579 76.3694C185.386 75.1872 183.782 74.5191 182.107 74.5071ZM182.136 83.414C181.568 83.414 181.013 83.2446 180.541 82.9272C180.068 82.6099 179.7 82.1588 179.483 81.6311C179.266 81.1034 179.209 80.5227 179.32 79.9625C179.431 79.4023 179.704 78.8878 180.106 78.4839C180.507 78.0801 181.019 77.8051 181.576 77.6938C182.133 77.5824 182.711 77.6397 183.235 77.8584C183.76 78.077 184.208 78.4473 184.524 78.9223C184.839 79.3972 185.007 79.9556 185.007 80.5268C185.007 80.906 184.933 81.2815 184.789 81.6318C184.644 81.9822 184.433 82.3005 184.166 82.5686C183.9 82.8367 183.583 83.0493 183.235 83.1944C182.886 83.3394 182.513 83.4141 182.136 83.414Z" fill="#922B38"/>
<path d="M125.232 82.574C123.886 82.5837 122.597 83.1206 121.639 84.0707C120.681 85.0208 120.128 86.3092 120.1 87.6622C120.1 91.6232 125.232 97.671 125.232 97.671C125.232 97.671 130.364 91.6232 130.364 87.6622C130.335 86.3092 129.783 85.0208 128.825 84.0707C127.866 83.1206 126.577 82.5837 125.232 82.574ZM125.255 89.7295C124.799 89.7296 124.353 89.5937 123.973 89.3388C123.594 89.084 123.298 88.7217 123.123 88.2978C122.949 87.874 122.903 87.4075 122.992 86.9574C123.081 86.5074 123.301 86.0939 123.623 85.7694C123.946 85.4449 124.357 85.2239 124.804 85.1343C125.252 85.0448 125.716 85.0907 126.137 85.2662C126.559 85.4418 126.919 85.7391 127.172 86.1207C127.426 86.5022 127.561 86.9507 127.561 87.4096C127.561 88.0248 127.318 88.6147 126.886 89.0498C126.453 89.4848 125.867 89.7293 125.255 89.7295Z" fill="#922B38"/>
<path d="M110.714 84.01C108.95 84.0228 107.261 84.7265 106.005 85.9715C104.749 87.2165 104.025 88.9048 103.987 90.6779C103.987 95.87 110.714 103.798 110.714 103.798C110.714 103.798 117.44 95.8726 117.44 90.6779C117.402 88.9048 116.678 87.2165 115.422 85.9715C114.166 84.7265 112.477 84.0228 110.714 84.01ZM110.744 93.3875C110.146 93.3875 109.562 93.2092 109.065 92.8752C108.568 92.5412 108.18 92.0664 107.951 91.511C107.723 90.9555 107.663 90.3443 107.779 89.7546C107.896 89.1649 108.184 88.6232 108.607 88.1981C109.029 87.773 109.568 87.4834 110.154 87.3662C110.741 87.2489 111.348 87.3091 111.901 87.5391C112.453 87.7692 112.925 88.1589 113.257 88.6588C113.589 89.1587 113.767 89.7464 113.767 90.3476C113.767 90.7471 113.689 91.1426 113.537 91.5118C113.386 91.8809 113.163 92.2163 112.882 92.4989C112.602 92.7814 112.268 93.0056 111.901 93.1585C111.534 93.3114 111.141 93.3901 110.744 93.3901V93.3875Z" fill="#922B38"/>
<path d="M86.3256 74.4385C84.1985 74.4536 82.161 75.3022 80.646 76.804C79.1311 78.3057 78.258 80.3423 78.2123 82.4811C78.2123 88.7424 86.3256 98.302 86.3256 98.302C86.3256 98.302 94.4389 88.7424 94.4389 82.4811C94.3932 80.3423 93.5201 78.3057 92.0051 76.804C90.4902 75.3022 88.4527 74.4536 86.3256 74.4385ZM86.3626 85.7488C85.6415 85.7488 84.9366 85.5338 84.3371 85.1309C83.7375 84.728 83.2702 84.1554 82.9943 83.4854C82.7184 82.8154 82.6462 82.0782 82.7868 81.367C82.9275 80.6557 83.2747 80.0024 83.7846 79.4896C84.2945 78.9769 84.9441 78.6277 85.6513 78.4862C86.3585 78.3447 87.0916 78.4173 87.7578 78.6948C88.4239 78.9723 88.9933 79.4423 89.394 80.0453C89.7946 80.6482 90.0084 81.3571 90.0084 82.0823C90.0084 83.0542 89.6246 83.9864 88.9415 84.674C88.2583 85.3615 87.3317 85.7481 86.3652 85.7488H86.3626Z" fill="#922B38"/>
<path d="M97.324 89.3267C96.412 89.3334 95.5386 89.6974 94.8892 90.3412C94.2397 90.9851 93.8654 91.8582 93.8456 92.7752C93.8456 95.46 97.324 99.5586 97.324 99.5586C97.324 99.5586 100.802 95.46 100.802 92.7752C100.783 91.8582 100.408 90.9851 99.7588 90.3412C99.1093 89.6974 98.2359 89.3334 97.324 89.3267ZM97.3396 94.176C97.0303 94.176 96.7279 94.0838 96.4708 93.9109C96.2137 93.7381 96.0133 93.4925 95.8949 93.2051C95.7766 92.9177 95.7457 92.6015 95.8061 92.2965C95.8664 91.9914 96.0154 91.7112 96.2342 91.4914C96.4529 91.2715 96.7316 91.1217 97.0349 91.0611C97.3383 91.0005 97.6527 91.0318 97.9384 91.1509C98.2241 91.27 98.4682 91.4717 98.64 91.7303C98.8117 91.989 98.9033 92.2931 98.9032 92.6042C98.9032 92.8106 98.8627 93.0151 98.7841 93.2058C98.7055 93.3966 98.5904 93.5699 98.4451 93.7158C98.2999 93.8618 98.1276 93.9776 97.9379 94.0565C97.7482 94.1355 97.5449 94.1761 97.3396 94.176Z" fill="#922B38"/>
<path d="M4.04951 60.1895C2.98783 60.1972 1.97097 60.6208 1.21486 61.3704C0.458744 62.12 0.0229425 63.1364 0 64.2039C0 67.3293 4.04951 72.1023 4.04951 72.1023C4.04951 72.1023 8.09838 67.3306 8.09838 64.2039C8.07544 63.1365 7.63973 62.1202 6.88375 61.3706C6.12778 60.6211 5.11108 60.1974 4.04951 60.1895ZM4.06769 65.8352C3.70824 65.8352 3.35687 65.728 3.058 65.5271C2.75914 65.3263 2.5262 65.0408 2.38865 64.7069C2.25109 64.3729 2.2151 64.0054 2.28523 63.6509C2.35535 63.2963 2.52844 62.9707 2.7826 62.715C3.03677 62.4594 3.3606 62.2854 3.71313 62.2148C4.06567 62.1443 4.43108 62.1805 4.76317 62.3188C5.09525 62.4572 5.37909 62.6914 5.57878 62.992C5.77848 63.2926 5.88507 63.6459 5.88507 64.0074C5.88507 64.4922 5.69359 64.9571 5.35277 65.2998C5.01194 65.6426 4.54969 65.8352 4.06769 65.8352Z" fill="#922B38"/>
<path d="M13.2838 70.2844C11.3947 70.2984 9.5855 71.0524 8.24028 72.3863C6.89506 73.7201 6.11982 75.5288 6.07916 77.4282C6.07916 82.991 13.2838 91.4827 13.2838 91.4827C13.2838 91.4827 20.4884 82.991 20.4884 77.4282C20.4477 75.5288 19.6725 73.7201 18.3273 72.3863C16.9821 71.0524 15.1728 70.2984 13.2838 70.2844ZM13.3169 80.3317C12.6763 80.3318 12.05 80.1409 11.5173 79.783C10.9846 79.4252 10.5694 78.9165 10.3241 78.3214C10.0789 77.7262 10.0147 77.0712 10.1396 76.4394C10.2645 75.8075 10.5729 75.227 11.0258 74.7714C11.4787 74.3158 12.0558 74.0055 12.6841 73.8798C13.3124 73.7541 13.9637 73.8185 14.5555 74.065C15.1474 74.3115 15.6533 74.729 16.0092 75.2647C16.3651 75.8004 16.5551 76.4302 16.5551 77.0744C16.5551 77.9382 16.2139 78.7666 15.6067 79.3774C14.9994 79.9883 14.1758 80.3315 13.3169 80.3317Z" fill="#922B38"/>
<path d="M33.0724 62.811C31.8485 62.8199 30.6762 63.3083 29.8046 64.1725C28.933 65.0366 28.4307 66.2085 28.4044 67.4391C28.4044 71.0423 33.0724 76.5431 33.0724 76.5431C33.0724 76.5431 37.7405 71.0423 37.7405 67.4391C37.7142 66.2085 37.2119 65.0366 36.3402 64.1725C35.4686 63.3083 34.2963 62.8199 33.0724 62.811ZM33.0938 69.3197C32.6788 69.3198 32.273 69.1962 31.9278 68.9643C31.5827 68.7325 31.3136 68.403 31.1547 68.0174C30.9958 67.6318 30.9541 67.2074 31.035 66.798C31.1159 66.3886 31.3157 66.0125 31.6092 65.7173C31.9026 65.4221 32.2765 65.221 32.6836 65.1395C33.0906 65.0581 33.5126 65.0998 33.8961 65.2595C34.2796 65.4192 34.6073 65.6897 34.8379 66.0368C35.0685 66.3839 35.1916 66.7919 35.1916 67.2093C35.1921 67.4867 35.1383 67.7615 35.0331 68.0179C34.9279 68.2743 34.7734 68.5073 34.5786 68.7036C34.3837 68.9 34.1523 69.0557 33.8975 69.162C33.6428 69.2683 33.3697 69.3229 33.0938 69.3229V69.3197Z" fill="#922B38"/>
<path d="M149.124 32.3767C146.142 32.3983 143.285 33.5884 141.161 35.6943C139.036 37.8002 137.812 40.6559 137.748 43.6551C137.748 52.4366 149.124 65.8423 149.124 65.8423C149.124 65.8423 160.501 52.4366 160.501 43.6551C160.437 40.6559 159.213 37.8002 157.088 35.6943C154.964 33.5884 152.107 32.3983 149.124 32.3767ZM149.176 48.2387C148.165 48.2387 147.177 47.9372 146.336 47.3722C145.495 46.8072 144.84 46.0042 144.453 45.0646C144.066 44.1251 143.965 43.0912 144.162 42.0938C144.359 41.0964 144.846 40.1803 145.561 39.4612C146.276 38.7421 147.187 38.2524 148.179 38.054C149.171 37.8556 150.199 37.9574 151.133 38.3466C152.067 38.7357 152.866 39.3948 153.427 40.2403C153.989 41.0859 154.289 42.08 154.289 43.097C154.289 44.4606 153.75 45.7685 152.792 46.7327C151.833 47.697 150.532 48.2387 149.176 48.2387Z" fill="#E8DACD"/>
<path d="M181.714 0.893066C179.46 0.909357 177.301 1.80879 175.695 3.40034C174.09 4.99189 173.164 7.15017 173.116 9.41678C173.116 16.0534 181.714 26.1848 181.714 26.1848C181.714 26.1848 190.312 16.0534 190.312 9.41678C190.264 7.15017 189.338 4.99189 187.733 3.40034C186.127 1.80879 183.968 0.909357 181.714 0.893066ZM181.753 12.8803C180.989 12.8803 180.242 12.6524 179.606 12.2254C178.971 11.7984 178.476 11.1916 178.183 10.4815C177.891 9.77145 177.814 8.99013 177.963 8.23635C178.112 7.48257 178.48 6.79017 179.021 6.24672C179.561 5.70327 180.25 5.33318 180.999 5.18324C181.749 5.03331 182.526 5.11026 183.232 5.40437C183.938 5.69848 184.541 6.19654 184.966 6.83557C185.39 7.4746 185.617 8.22589 185.617 8.99445C185.617 10.025 185.21 11.0134 184.485 11.7422C183.761 12.4709 182.778 12.8803 181.753 12.8803Z" fill="#E8DACD"/>
<path d="M189.448 24.7271C188.113 24.7361 186.834 25.2686 185.883 26.2114C184.932 27.1542 184.384 28.4329 184.356 29.7755C184.356 33.7057 189.448 39.7059 189.448 39.7059C189.448 39.7059 194.54 33.7057 194.54 29.7755C194.512 28.4329 193.964 27.1542 193.014 26.2114C192.063 25.2686 190.784 24.7361 189.448 24.7271ZM189.472 31.8264C189.019 31.8266 188.576 31.6917 188.2 31.4388C187.823 31.186 187.53 30.8265 187.357 30.4059C187.183 29.9853 187.138 29.5225 187.226 29.076C187.315 28.6294 187.533 28.2193 187.853 27.8973C188.173 27.5754 188.581 27.3562 189.025 27.2674C189.469 27.1786 189.929 27.2242 190.347 27.3985C190.765 27.5728 191.123 27.8679 191.374 28.2465C191.626 28.6251 191.76 29.0702 191.76 29.5255C191.76 30.1357 191.519 30.721 191.089 31.1525C190.66 31.584 190.078 31.8264 189.472 31.8264Z" fill="#E8DACD"/>
<path d="M169.067 20.1982C166.978 20.2134 164.977 21.0468 163.49 22.5216C162.002 23.9964 161.145 25.9963 161.1 28.0966C161.1 34.2462 169.067 43.6323 169.067 43.6323C169.067 43.6323 177.034 34.2436 177.034 28.0966C176.989 25.9963 176.132 23.9964 174.644 22.5216C173.157 21.0468 171.156 20.2134 169.067 20.1982ZM169.103 31.3062C168.395 31.3064 167.703 31.0952 167.114 30.6996C166.525 30.3039 166.066 29.7415 165.795 29.0834C165.523 28.4253 165.452 27.7012 165.591 27.0025C165.729 26.3039 166.07 25.6622 166.571 25.1585C167.071 24.6548 167.71 24.3118 168.404 24.1729C169.099 24.0339 169.819 24.1053 170.473 24.3779C171.128 24.6506 171.687 25.1123 172.08 25.7046C172.474 26.2969 172.684 26.9933 172.684 27.7056C172.683 28.6605 172.306 29.5762 171.635 30.2514C170.963 30.9266 170.053 31.306 169.103 31.3062Z" fill="#E8DACD"/>
<path d="M131.271 49.6631C129.465 49.6761 127.735 50.3966 126.449 51.6715C125.163 52.9464 124.422 54.6753 124.383 56.4909C124.383 61.807 131.271 69.9227 131.271 69.9227C131.271 69.9227 138.158 61.807 138.158 56.4909C138.119 54.6753 137.378 52.9464 136.092 51.6715C134.806 50.3966 133.076 49.6761 131.271 49.6631ZM131.302 59.2652C130.69 59.2652 130.091 59.0826 129.582 58.7405C129.073 58.3985 128.676 57.9123 128.442 57.3434C128.208 56.7746 128.146 56.1487 128.266 55.5448C128.385 54.941 128.68 54.3863 129.113 53.9509C129.546 53.5156 130.097 53.2191 130.698 53.099C131.298 52.9788 131.921 53.0405 132.486 53.2761C133.052 53.5117 133.535 53.9107 133.876 54.4227C134.216 54.9346 134.397 55.5365 134.397 56.1522C134.397 56.9778 134.071 57.7696 133.491 58.3534C132.91 58.9372 132.123 59.2652 131.302 59.2652Z" fill="#E8DACD"/>
<path d="M70.4994 40.4058C68.8628 40.4184 67.2955 41.072 66.1301 42.2277C64.9647 43.3834 64.293 44.9503 64.2574 46.5959C64.2574 51.4171 70.5027 58.7763 70.5027 58.7763C70.5027 58.7763 76.7486 51.4171 76.7486 46.5959C76.712 44.9494 76.039 43.382 74.8723 42.2263C73.7055 41.0706 72.137 40.4176 70.4994 40.4058ZM70.528 49.1135C69.9728 49.1137 69.43 48.9482 68.9682 48.6381C68.5065 48.3279 68.1466 47.8871 67.934 47.3712C67.7214 46.8554 67.6658 46.2877 67.774 45.74C67.8822 45.1923 68.1496 44.6892 68.5421 44.2943C68.9347 43.8994 69.4349 43.6305 69.9794 43.5215C70.524 43.4125 71.0885 43.4684 71.6015 43.682C72.1145 43.8957 72.5529 44.2575 72.8614 44.7218C73.1699 45.1861 73.3346 45.732 73.3346 46.2904C73.3342 47.0388 73.0384 47.7564 72.5121 48.2856C71.9858 48.8147 71.2722 49.1121 70.528 49.1122V49.1135Z" fill="#E8DACD"/>
<path d="M51.0242 21.1833C49.1132 21.1972 47.2828 21.9597 45.9218 23.3089C44.5608 24.6582 43.7764 26.4879 43.7352 28.4094C43.7352 34.0362 51.0242 42.6251 51.0242 42.6251C51.0242 42.6251 58.3139 34.0362 58.3139 28.4094C58.2727 26.4878 57.4882 24.658 56.1271 23.3087C54.7659 21.9594 52.9354 21.197 51.0242 21.1833ZM51.0573 31.3455C50.4094 31.3455 49.7761 31.1523 49.2374 30.7903C48.6987 30.4283 48.2788 29.9137 48.0309 29.3118C47.7829 28.7098 47.718 28.0474 47.8444 27.4083C47.9708 26.7692 48.2828 26.1822 48.741 25.7215C49.1991 25.2607 49.7828 24.947 50.4182 24.8198C51.0537 24.6927 51.7123 24.758 52.3109 25.0073C52.9095 25.2567 53.4211 25.6789 53.7811 26.2207C54.141 26.7625 54.3331 27.3994 54.3331 28.051C54.3331 28.9248 53.988 29.7627 53.3737 30.3806C52.7593 30.9984 51.9261 31.3455 51.0573 31.3455Z" fill="#E8DACD"/>
<path d="M15.6924 31.925C15.0266 31.93 14.389 32.1957 13.9149 32.6658C13.4408 33.1359 13.1676 33.7733 13.1533 34.4427C13.1533 36.401 15.6924 39.3952 15.6924 39.3952C15.6924 39.3952 18.2322 36.4023 18.2322 34.4427C18.2178 33.7732 17.9445 33.1357 17.4703 32.6656C16.9961 32.1955 16.3583 31.9298 15.6924 31.925ZM15.7041 35.4656C15.4783 35.4656 15.2575 35.3983 15.0698 35.2721C14.882 35.1459 14.7357 34.9666 14.6493 34.7568C14.5629 34.547 14.5403 34.3161 14.5843 34.0934C14.6284 33.8707 14.7371 33.6661 14.8968 33.5055C15.0564 33.3449 15.2599 33.2356 15.4813 33.1913C15.7028 33.147 15.9324 33.1697 16.141 33.2566C16.3496 33.3435 16.5279 33.4907 16.6534 33.6795C16.7788 33.8683 16.8458 34.0903 16.8458 34.3174C16.846 34.6214 16.7262 34.9131 16.5127 35.1283C16.2993 35.3436 16.0096 35.4649 15.7073 35.4656H15.7041Z" fill="#E8DACD"/>
<path d="M37.4056 33.1367C35.8041 33.1482 34.2701 33.7872 33.1295 34.918C31.989 36.0487 31.3317 37.582 31.2972 39.1924C31.2972 43.9072 37.4056 51.1045 37.4056 51.1045C37.4056 51.1045 43.5139 43.9072 43.5139 39.1924C43.4795 37.582 42.8222 36.0487 41.6816 34.918C40.5411 33.7872 39.0071 33.1482 37.4056 33.1367ZM37.4335 41.6526C36.8904 41.653 36.3593 41.4914 35.9076 41.1882C35.4558 40.885 35.1036 40.4538 34.8955 39.9493C34.6874 39.4448 34.6328 38.8895 34.7386 38.3537C34.8443 37.818 35.1057 37.3258 35.4897 36.9395C35.8737 36.5531 36.3629 36.29 36.8956 36.1834C37.4283 36.0768 37.9804 36.1314 38.4822 36.3404C38.984 36.5495 39.4129 36.9035 39.7146 37.3577C40.0163 37.8119 40.1772 38.3459 40.1771 38.8921C40.1771 39.624 39.8881 40.3259 39.3736 40.8436C38.8591 41.3613 38.1613 41.6523 37.4335 41.6526Z" fill="#E8DACD"/>
<path d="M59.7016 36.7673C58.873 36.7729 58.0794 37.1035 57.4895 37.6887C56.8996 38.2739 56.5601 39.0675 56.5432 39.9006C56.5432 42.3386 59.7016 46.06 59.7016 46.06C59.7016 46.06 62.8599 42.3393 62.8599 39.9006C62.843 39.0675 62.5035 38.2739 61.9136 37.6887C61.3238 37.1035 60.5301 36.7729 59.7016 36.7673ZM59.7139 41.1702C59.4331 41.1702 59.1586 41.0864 58.9252 40.9295C58.6917 40.7727 58.5098 40.5497 58.4024 40.2888C58.295 40.0279 58.2669 39.7408 58.3217 39.4639C58.3765 39.1869 58.5118 38.9325 58.7104 38.7329C58.909 38.5333 59.162 38.3974 59.4374 38.3424C59.7128 38.2874 59.9982 38.3157 60.2576 38.4239C60.5169 38.532 60.7386 38.7151 60.8945 38.95C61.0504 39.1848 61.1335 39.4609 61.1334 39.7433C61.1332 40.1218 60.9836 40.4847 60.7174 40.7523C60.4512 41.0199 60.0903 41.1702 59.7139 41.1702Z" fill="#E8DACD"/>
<path d="M121.742 65.0598C120.469 65.069 119.249 65.577 118.342 66.4759C117.436 67.3748 116.913 68.5937 116.885 69.8739C116.885 73.6227 121.742 79.3448 121.742 79.3448C121.742 79.3448 126.598 73.6227 126.598 69.8739C126.571 68.5937 126.048 67.3748 125.141 66.4759C124.234 65.577 123.015 65.069 121.742 65.0598ZM121.764 71.8302C121.332 71.8302 120.91 71.7015 120.551 71.4602C120.192 71.219 119.912 70.8761 119.747 70.4749C119.582 70.0738 119.539 69.6323 119.623 69.2065C119.707 68.7806 119.915 68.3895 120.221 68.0825C120.526 67.7755 120.915 67.5665 121.338 67.4819C121.762 67.3972 122.201 67.4408 122.6 67.6071C122.998 67.7733 123.339 68.0548 123.579 68.4159C123.819 68.777 123.947 69.2014 123.947 69.6356C123.947 70.2177 123.717 70.7759 123.307 71.1874C122.898 71.599 122.343 71.8302 121.764 71.8302H121.764Z" fill="#6181B0"/>
<path d="M103.276 31.2019C93.0771 31.2019 84.81 39.8079 84.81 49.5085C84.81 63.7621 103.276 85.5211 103.276 85.5211C103.276 85.5211 121.742 63.7621 121.742 49.5085C121.742 39.8072 113.475 31.2019 103.276 31.2019ZM103.36 56.9467C101.719 56.9468 100.114 56.4574 98.7494 55.5404C97.3846 54.6234 96.3208 53.32 95.6926 51.7949C95.0644 50.2699 94.8999 48.5917 95.2201 46.9727C95.5402 45.3536 96.3305 43.8664 97.4911 42.6991C98.6517 41.5318 100.13 40.7369 101.74 40.4148C103.35 40.0927 105.019 40.2579 106.535 40.8896C108.052 41.5213 109.348 42.591 110.26 43.9636C111.172 45.3361 111.659 46.9498 111.659 48.6005C111.659 49.6965 111.444 50.7817 111.027 51.7942C110.61 52.8067 109.999 53.7267 109.228 54.5017C108.457 55.2766 107.543 55.8914 106.536 56.3108C105.529 56.7302 104.45 56.946 103.36 56.946V56.9467Z" fill="#6181B0"/>
<path d="M181.513 36.9553C180.468 36.9629 179.467 37.38 178.723 38.118C177.978 38.856 177.549 39.8568 177.527 40.9078C177.527 43.9849 181.513 48.6821 181.513 48.6821C181.513 48.6821 185.499 43.9823 185.499 40.9078C185.477 39.8568 185.048 38.8561 184.304 38.118C183.56 37.38 182.559 36.9629 181.513 36.9553ZM181.532 42.5136C181.177 42.5137 180.831 42.4081 180.536 42.2101C180.241 42.0121 180.011 41.7306 179.875 41.4013C179.74 41.0719 179.704 40.7095 179.773 40.3598C179.842 40.0102 180.013 39.689 180.264 39.4369C180.514 39.1848 180.834 39.0131 181.181 38.9436C181.529 38.8741 181.89 38.9099 182.217 39.0463C182.545 39.1828 182.824 39.4139 183.021 39.7104C183.218 40.0069 183.323 40.3554 183.323 40.7119C183.323 41.1897 183.134 41.6479 182.798 41.9857C182.462 42.3235 182.007 42.5134 181.532 42.5136Z" fill="#6181B0"/>
<path d="M173.483 45.4514C172.386 45.4596 171.334 45.8978 170.553 46.6728C169.771 47.4478 169.321 48.4987 169.297 49.6023C169.297 52.8335 173.483 57.767 173.483 57.767C173.483 57.767 177.67 52.8335 177.67 49.6023C177.646 48.4987 177.195 47.4478 176.414 46.6728C175.632 45.8978 174.581 45.4596 173.483 45.4514ZM173.502 51.2884C173.13 51.2884 172.766 51.1774 172.456 50.9693C172.147 50.7613 171.905 50.4657 171.763 50.1198C171.621 49.7739 171.583 49.3933 171.656 49.0261C171.729 48.6589 171.908 48.3216 172.171 48.0568C172.434 47.7921 172.77 47.6118 173.135 47.5388C173.5 47.4657 173.878 47.5032 174.222 47.6465C174.566 47.7898 174.86 48.0324 175.067 48.3437C175.274 48.655 175.384 49.021 175.384 49.3954C175.384 49.8974 175.186 50.3789 174.833 50.7339C174.48 51.0889 174.001 51.2884 173.502 51.2884Z" fill="#6181B0"/>
<path d="M78.1473 57.6321C76.6298 57.6431 75.1763 58.2487 74.0956 59.3202C73.0149 60.3916 72.3922 61.8446 72.3596 63.3705C72.3596 67.8386 78.1473 74.6586 78.1473 74.6586C78.1473 74.6586 83.9357 67.8386 83.9357 63.3705C83.9029 61.8446 83.28 60.3916 82.1992 59.3201C81.1185 58.2487 79.6649 57.6431 78.1473 57.6321ZM78.1739 65.7021C77.6594 65.7021 77.1565 65.5487 76.7286 65.2612C76.3008 64.9737 75.9674 64.5651 75.7705 64.0871C75.5736 63.609 75.5221 63.083 75.6225 62.5755C75.7228 62.068 75.9706 61.6018 76.3344 61.2359C76.6983 60.87 77.1618 60.6208 77.6664 60.5199C78.1711 60.4189 78.6941 60.4708 79.1695 60.6688C79.6448 60.8668 80.0511 61.2021 80.337 61.6324C80.6228 62.0626 80.7754 62.5684 80.7754 63.0859C80.7754 63.4297 80.708 63.7701 80.5771 64.0877C80.4462 64.4053 80.2544 64.6938 80.0125 64.9368C79.7707 65.1797 79.4836 65.3724 79.1677 65.5037C78.8517 65.6351 78.5132 65.7025 78.1713 65.7021H78.1739Z" fill="#6181B0"/>
<path d="M67.7208 68.4705C66.0868 68.483 64.522 69.1355 63.3586 70.2894C62.1952 71.4433 61.5248 73.0078 61.4897 74.6508C61.4897 79.4623 67.7208 86.8084 67.7208 86.8084C67.7208 86.8084 73.955 79.4623 73.955 74.6508C73.9199 73.0073 73.2491 71.4423 72.085 70.2883C70.9209 69.1343 69.3553 68.4821 67.7208 68.4705ZM67.7493 77.1619C67.1951 77.1619 66.6534 76.9967 66.1926 76.687C65.7318 76.3774 65.3727 75.9373 65.1606 75.4224C64.9485 74.9074 64.893 74.3409 65.0012 73.7942C65.1093 73.2476 65.3761 72.7455 65.768 72.3514C66.1599 71.9573 66.6591 71.6889 67.2027 71.5802C67.7462 71.4714 68.3096 71.5272 68.8216 71.7405C69.3336 71.9538 69.7712 72.315 70.0791 72.7784C70.387 73.2418 70.5513 73.7866 70.5513 74.344C70.5514 74.7141 70.479 75.0805 70.3382 75.4225C70.1974 75.7644 69.991 76.0751 69.7308 76.3368C69.4706 76.5984 69.1617 76.806 68.8217 76.9476C68.4817 77.0892 68.1173 77.162 67.7493 77.1619Z" fill="#6181B0"/>
<path d="M21.8176 53.7292C20.1305 53.7418 18.5147 54.4151 17.3132 55.6064C16.1117 56.7976 15.4192 58.4129 15.3828 60.1093C15.3828 65.0768 21.8183 72.6599 21.8183 72.6599C21.8183 72.6599 28.2538 65.0801 28.2538 60.1093C28.2173 58.4127 27.5247 56.7972 26.3229 55.6059C25.1212 54.4146 23.505 53.7414 21.8176 53.7292ZM21.8475 62.7014C21.2755 62.7014 20.7163 62.5308 20.2407 62.2112C19.765 61.8916 19.3943 61.4373 19.1754 60.9058C18.9565 60.3743 18.8992 59.7895 19.0108 59.2253C19.1224 58.661 19.3979 58.1428 19.8024 57.736C20.2069 57.3292 20.7222 57.0522 21.2832 56.9399C21.8443 56.8277 22.4258 56.8853 22.9543 57.1054C23.4828 57.3256 23.9345 57.6984 24.2523 58.1767C24.5701 58.6551 24.7397 59.2174 24.7397 59.7927C24.7397 60.5641 24.435 61.304 23.8926 61.8495C23.3502 62.395 22.6146 62.7014 21.8475 62.7014Z" fill="#6181B0"/>
<path d="M23.9557 37.5779C22.6959 37.5873 21.4894 38.0903 20.5925 38.9801C19.6956 39.8699 19.1791 41.0763 19.1526 42.343C19.1526 46.052 23.9557 51.7127 23.9557 51.7127C23.9557 51.7127 28.7587 46.052 28.7587 42.343C28.7322 41.0763 28.2157 39.8699 27.3188 38.9801C26.422 38.0903 25.2155 37.5873 23.9557 37.5779ZM23.9771 44.2758C23.55 44.2758 23.1326 44.1485 22.7775 43.9099C22.4224 43.6713 22.1456 43.3322 21.9821 42.9355C21.8187 42.5387 21.7758 42.1021 21.859 41.6809C21.9423 41.2597 22.1478 40.8727 22.4497 40.5689C22.7515 40.2651 23.1362 40.0582 23.555 39.9743C23.9738 39.8903 24.408 39.9331 24.8026 40.0973C25.1972 40.2615 25.5345 40.5396 25.772 40.8966C26.0094 41.2536 26.1363 41.6733 26.1365 42.1028C26.1368 42.3881 26.0811 42.6707 25.9727 42.9344C25.8643 43.1981 25.7052 43.4377 25.5047 43.6395C25.3041 43.8413 25.066 44.0014 24.8039 44.1106C24.5417 44.2198 24.2608 44.2759 23.9771 44.2758Z" fill="#6181B0"/>
<path d="M51.4578 45.4514C48.0236 45.4761 44.7343 46.8463 42.2886 49.271C39.8428 51.6956 38.4334 54.9837 38.3597 58.4367C38.3597 68.5466 51.4572 83.9804 51.4572 83.9804C51.4572 83.9804 64.5553 68.5466 64.5553 58.4367C64.4814 54.9839 63.072 51.696 60.6264 49.2714C58.1809 46.8468 54.8918 45.4764 51.4578 45.4514ZM51.5175 63.7123C50.3533 63.7123 49.2152 63.3651 48.2472 62.7146C47.2792 62.0642 46.5247 61.1396 46.0792 60.0579C45.6337 58.9762 45.5171 57.7859 45.7443 56.6375C45.9714 55.4892 46.532 54.4344 47.3552 53.6065C48.1785 52.7786 49.2273 52.2148 50.3691 51.9863C51.511 51.7579 52.6945 51.8752 53.7701 52.3232C54.8457 52.7713 55.765 53.53 56.4118 54.5036C57.0586 55.4771 57.4039 56.6216 57.4039 57.7925C57.4039 58.5699 57.2516 59.3397 56.9558 60.0579C56.66 60.7761 56.2264 61.4287 55.6798 61.9784C55.1332 62.5281 54.4843 62.9642 53.7701 63.2617C53.056 63.5592 52.2905 63.7123 51.5175 63.7123Z" fill="#6181B0"/>
<path d="M32.4707 51.0581C31.6422 51.0637 30.8485 51.3943 30.2586 51.9795C29.6688 52.5646 29.3293 53.3582 29.3124 54.1913C29.3124 56.6294 32.4707 60.3508 32.4707 60.3508C32.4707 60.3508 35.6284 56.63 35.6284 54.1913C35.6115 53.3583 35.2721 52.5649 34.6824 51.9797C34.0927 51.3945 33.2992 51.0639 32.4707 51.0581ZM32.485 55.461C32.2042 55.4611 31.9297 55.3775 31.6962 55.2207C31.4627 55.0639 31.2806 54.841 31.1731 54.5801C31.0656 54.3193 31.0373 54.0322 31.092 53.7553C31.1467 53.4783 31.2819 53.2239 31.4804 53.0242C31.6789 52.8244 31.9318 52.6884 32.2072 52.6333C32.4826 52.5781 32.768 52.6064 33.0274 52.7144C33.2868 52.8224 33.5086 53.0054 33.6646 53.2402C33.8206 53.475 33.9039 53.751 33.9039 54.0334C33.9039 54.4119 33.7544 54.7749 33.4883 55.0426C33.2223 55.3103 32.8614 55.4608 32.485 55.461Z" fill="#6181B0"/>
<path d="M196.342 37.1492C195.297 37.1567 194.296 37.5738 193.552 38.3116C192.807 39.0495 192.379 40.0502 192.356 41.101C192.356 44.1781 196.342 48.8753 196.342 48.8753C196.342 48.8753 200.329 44.1755 200.329 41.101C200.306 40.0501 199.877 39.0495 199.133 38.3116C198.388 37.5737 197.387 37.1567 196.342 37.1492ZM196.36 42.7068C196.006 42.7068 195.659 42.6011 195.365 42.4031C195.07 42.2052 194.841 41.9238 194.705 41.5946C194.57 41.2654 194.534 40.9031 194.603 40.5537C194.672 40.2042 194.843 39.8832 195.093 39.6312C195.344 39.3792 195.663 39.2077 196.011 39.1381C196.358 39.0686 196.718 39.1043 197.046 39.2407C197.373 39.377 197.653 39.6079 197.85 39.9042C198.046 40.2005 198.152 40.5488 198.152 40.9051C198.152 41.3827 197.963 41.8408 197.627 42.1786C197.292 42.5164 196.836 42.7064 196.361 42.7068H196.36Z" fill="#6181B0"/>
<path d="M203.152 46.6292C202.359 46.6356 201.6 46.9523 201.035 47.5122C200.47 48.0721 200.144 48.8312 200.127 49.6286C200.127 51.9641 203.152 55.5295 203.152 55.5295C203.152 55.5295 206.178 51.9641 206.178 49.6286C206.16 48.8311 205.834 48.0719 205.27 47.512C204.705 46.9521 203.945 46.6354 203.152 46.6292ZM203.166 50.8479C202.896 50.8487 202.632 50.7689 202.408 50.6186C202.183 50.4683 202.008 50.2543 201.904 50.0037C201.8 49.7531 201.773 49.4772 201.825 49.2109C201.878 48.9447 202.008 48.7 202.198 48.5081C202.389 48.3161 202.632 48.1854 202.897 48.1326C203.162 48.0797 203.436 48.1071 203.685 48.2113C203.935 48.3154 204.147 48.4916 204.297 48.7175C204.447 48.9435 204.526 49.209 204.525 49.4804C204.525 49.8431 204.382 50.1908 204.127 50.4475C203.872 50.7041 203.527 50.8488 203.166 50.8499V50.8479Z" fill="#6181B0"/>
<path d="M233.387 21.2144V4.30078H235.789V21.2144H233.387Z" fill="#E8DACD"/>
<path d="M239.154 21.2144V4.30078H241.555V21.2144H239.154Z" fill="#E8DACD"/>
<path d="M244.921 21.2144V4.30078H247.322V21.2144H244.921Z" fill="#E8DACD"/>
<path d="M260.658 21.458C259.952 21.4621 259.246 21.4257 258.544 21.349C257.918 21.2764 257.299 21.1512 256.694 20.975V4.54308C257.299 4.36627 257.918 4.24093 258.544 4.1684C259.246 4.09171 259.952 4.05532 260.658 4.05939C262.389 4.05939 263.651 4.43799 264.442 5.19519C264.86 5.6373 265.182 6.16225 265.387 6.73648C265.592 7.31071 265.675 7.9216 265.632 8.53013C265.636 9.23954 265.471 9.93956 265.151 10.572C264.804 11.2355 264.257 11.7722 263.59 12.1059V12.2065C264.028 12.3213 264.44 12.5224 264.801 12.7982C265.161 13.0739 265.464 13.4188 265.692 13.8129C266.152 14.6774 266.38 15.6479 266.353 16.6282C266.353 18.2715 265.924 19.4878 265.068 20.2772C264.211 21.0666 262.741 21.4602 260.658 21.458ZM259.096 11.5021H260.418C260.791 11.5281 261.166 11.4772 261.519 11.3525C261.872 11.2278 262.197 11.0319 262.472 10.7769C262.989 10.1676 263.244 9.37678 263.181 8.57843C263.209 8.19063 263.162 7.80094 263.04 7.43181C262.918 7.06267 262.725 6.72139 262.472 6.42759C262.196 6.17283 261.872 5.97719 261.519 5.85262C261.166 5.72805 260.791 5.67715 260.418 5.70303H259.096V11.5021ZM259.096 19.8144H260.658C261.55 19.8948 262.437 19.6219 263.131 19.0539C263.416 18.7121 263.63 18.3169 263.762 17.8911C263.894 17.4653 263.941 17.0174 263.899 16.5734C263.989 15.6324 263.714 14.6927 263.131 13.9513C262.79 13.6625 262.396 13.4445 261.971 13.31C261.547 13.1756 261.099 13.1273 260.656 13.168H259.094L259.096 19.8144Z" fill="#E8DACD"/>
<path d="M273.825 21.4581C272.795 21.4911 271.778 21.227 270.893 20.697C269.993 20.0518 269.344 19.1123 269.055 18.039C268.572 16.3229 268.357 14.5415 268.419 12.7588C268.358 10.977 268.569 9.19634 269.044 7.47866C269.321 6.41618 269.947 5.47933 270.821 4.82063C271.647 4.29726 272.609 4.03235 273.584 4.05952C274.308 4.05644 275.031 4.10486 275.747 4.20443C276.269 4.26689 276.784 4.38035 277.285 4.54321V5.70316H274.234C273.598 5.69632 272.98 5.9095 272.482 6.30696C271.87 6.87424 271.447 7.61657 271.269 8.43365C270.927 9.8486 270.778 11.3035 270.824 12.7588C270.777 14.2108 270.93 15.6624 271.278 17.0722C271.464 17.9037 271.911 18.6533 272.552 19.2107C273.11 19.6176 273.785 19.8297 274.474 19.8145H277.525V20.9751C277.021 21.1207 276.507 21.2298 275.987 21.3015C275.271 21.409 274.548 21.4614 273.825 21.4581Z" fill="#E8DACD"/>
<path d="M279.567 21.2144V4.30078H287.928V6.06323H281.97V11.5H287.208V13.2899H281.97V19.4519H287.928V21.2144H279.567Z" fill="#E8DACD"/>
<path d="M290.572 21.2147V4.54322C291.177 4.36641 291.796 4.24107 292.422 4.16854C293.124 4.09185 293.83 4.05546 294.536 4.05953C295.61 4.01673 296.68 4.21055 297.672 4.62743C298.47 5.01165 299.09 5.6913 299.402 6.52434C299.804 7.67157 299.988 8.88503 299.942 10.1008C299.986 11.3502 299.81 12.5977 299.423 13.7856C299.156 14.6002 298.606 15.2908 297.874 15.7308C297.064 16.1458 296.162 16.3456 295.254 16.3111C294.966 16.3111 294.589 16.287 294.125 16.2387C293.738 16.202 293.353 16.1456 292.971 16.0696V21.2147H290.572ZM292.973 14.5213H294.536C295.124 14.5448 295.709 14.4113 296.23 14.1342C296.712 13.8203 297.063 13.3385 297.214 12.781C297.46 11.9094 297.57 11.0044 297.539 10.0988C297.571 9.19709 297.461 8.29593 297.214 7.42841C297.061 6.87658 296.712 6.40036 296.233 6.08961C295.712 5.81276 295.128 5.67944 294.539 5.70317H292.977L292.973 14.5213Z" fill="#E8DACD"/>
<path d="M307.294 21.458C306.298 21.484 305.316 21.2151 304.471 20.6845C303.576 20.0257 302.932 19.0794 302.645 18.0023C302.164 16.2982 301.949 14.5292 302.008 12.7587C301.948 10.9921 302.163 9.22685 302.645 7.52689C302.937 6.45186 303.58 5.50697 304.471 4.84471C305.326 4.33088 306.304 4.05957 307.3 4.05957C308.296 4.05957 309.274 4.33088 310.129 4.84471C311.015 5.51045 311.655 6.45434 311.947 7.52689C312.428 9.22689 312.643 10.9921 312.583 12.7587C312.642 14.5292 312.428 16.2982 311.947 18.0023C311.659 19.077 311.019 20.0223 310.129 20.6845C309.281 21.2181 308.294 21.4872 307.294 21.458ZM307.294 19.9358C307.674 19.9322 308.045 19.8189 308.363 19.6094C308.767 19.3226 309.09 18.9353 309.3 18.4854C309.629 17.7952 309.848 17.0573 309.949 16.2987C310.118 15.1266 310.195 13.9429 310.177 12.7587C310.195 11.5746 310.118 10.3909 309.949 9.21884C309.848 8.46022 309.629 7.7223 309.3 7.0321C309.09 6.58222 308.767 6.19491 308.363 5.90805C308.047 5.69454 307.674 5.58055 307.292 5.58055C306.911 5.58055 306.538 5.69454 306.221 5.90805C305.819 6.19336 305.5 6.58137 305.297 7.0321C304.974 7.7249 304.756 8.46176 304.647 9.21884C304.47 10.39 304.389 11.5741 304.407 12.7587C304.389 13.9434 304.47 15.1275 304.647 16.2987C304.756 17.0557 304.974 17.7926 305.297 18.4854C305.5 18.9361 305.819 19.3241 306.221 19.6094C306.54 19.8195 306.913 19.9328 307.294 19.9358Z" fill="#E8DACD"/>
<path d="M320.317 21.4581C319.288 21.4912 318.27 21.2271 317.385 20.697C316.485 20.0518 315.835 19.1123 315.547 18.039C315.064 16.3228 314.849 14.5414 314.911 12.7588C314.85 10.977 315.061 9.19638 315.535 7.47866C315.813 6.41629 316.439 5.47951 317.313 4.82063C318.139 4.29726 319.101 4.03235 320.076 4.05952C320.8 4.05641 321.522 4.10484 322.239 4.20443C322.761 4.26674 323.276 4.38021 323.777 4.54321V5.70316H320.726C320.09 5.69643 319.472 5.9096 318.974 6.30696C318.362 6.87424 317.939 7.61657 317.76 8.43365C317.419 9.8486 317.269 11.3035 317.316 12.7588C317.269 14.2108 317.422 15.6624 317.77 17.0722C317.956 17.904 318.402 18.6537 319.044 19.2107C319.601 19.6177 320.277 19.8298 320.966 19.8145H324.016V20.9751C323.512 21.1207 322.998 21.2298 322.478 21.3015C321.763 21.409 321.04 21.4614 320.317 21.4581Z" fill="#E8DACD"/>
<path d="M330.456 21.4581C329.427 21.4912 328.41 21.227 327.525 20.697C326.625 20.0518 325.975 19.1123 325.687 18.039C325.203 16.3229 324.988 14.5415 325.05 12.7588C324.99 10.9771 325.2 9.19646 325.675 7.47868C325.952 6.41612 326.579 5.47928 327.453 4.82065C328.279 4.29716 329.24 4.03225 330.216 4.05953C330.939 4.05645 331.662 4.10488 332.379 4.20444C332.901 4.2669 333.416 4.38037 333.916 4.54323V5.70318H330.866C330.23 5.69634 329.611 5.90952 329.113 6.30698C328.502 6.87426 328.079 7.61659 327.9 8.43366C327.559 9.84861 327.409 11.3035 327.456 12.7588C327.409 14.2108 327.562 15.6624 327.91 17.0723C328.096 17.9038 328.542 18.6533 329.183 19.2107C329.741 19.6177 330.417 19.8298 331.106 19.8145H334.157V20.9751C333.652 21.1208 333.139 21.2299 332.619 21.3015C331.903 21.4091 331.18 21.4615 330.456 21.4581Z" fill="#E8DACD"/>
<path d="M336.198 21.2144V4.30078H338.552V16.384H338.672L343.358 4.30143H346.049V21.2144H343.694V9.06134H343.574L338.771 21.2163L336.198 21.2144Z" fill="#E8DACD"/>
<path d="M349.413 21.2146V4.30102H351.767V16.3842H351.888L356.574 4.30167H359.265V21.2146H356.909V9.06158H356.791L351.988 21.2166L349.413 21.2146ZM354.339 2.89759C353.625 2.91566 352.92 2.74048 352.296 2.3904C351.732 2.06461 351.261 1.5987 350.927 1.03723L351.984 0C352.274 0.27958 352.597 0.522867 352.945 0.724561C353.367 0.972518 353.85 1.09813 354.339 1.08749C354.828 1.09804 355.31 0.972433 355.733 0.724561C356.081 0.522702 356.403 0.27943 356.693 0L357.751 1.03919C357.428 1.60519 356.959 2.07278 356.393 2.39236C355.765 2.74139 355.056 2.91642 354.339 2.89955V2.89759Z" fill="#E8DACD"/>
<path d="M367.506 21.4581C366.477 21.4912 365.459 21.2271 364.574 20.697C363.674 20.0518 363.024 19.1123 362.736 18.039C362.252 16.3229 362.038 14.5415 362.099 12.7588C362.039 10.977 362.25 9.19634 362.724 7.47866C363.002 6.41629 363.628 5.47951 364.502 4.82063C365.328 4.29726 366.29 4.03235 367.265 4.05952C367.989 4.05641 368.711 4.10484 369.428 4.20443C369.95 4.26674 370.465 4.38021 370.966 4.54321V5.70316H367.915C367.279 5.69643 366.661 5.9096 366.163 6.30696C365.551 6.87424 365.128 7.61657 364.95 8.43365C364.608 9.8486 364.458 11.3035 364.505 12.7588C364.458 14.2108 364.611 15.6624 364.959 17.0722C365.145 17.904 365.591 18.6537 366.233 19.2107C366.791 19.6177 367.466 19.8298 368.155 19.8145H371.205V20.9751C370.701 21.1207 370.187 21.2298 369.667 21.3015C368.952 21.409 368.229 21.4614 367.506 21.4581Z" fill="#E8DACD"/>
<path d="M382.018 21.4579C381.671 21.4741 381.324 21.4181 381 21.2933C380.675 21.1685 380.38 20.9777 380.132 20.7327C379.597 20.1199 379.251 19.3644 379.135 18.5577L378.486 15.4166C378.425 14.7751 378.14 14.1759 377.681 13.7254C377.306 13.4355 376.844 13.2821 376.371 13.29H375.651V21.2144H373.249V4.30083H375.651V11.5021H376.371C376.771 11.496 377.154 11.336 377.441 11.0549C377.859 10.581 378.137 9.99949 378.246 9.37537L378.895 6.96017C379.067 6.15515 379.439 5.40689 379.975 4.78453C380.209 4.54356 380.49 4.35453 380.801 4.22962C381.112 4.10471 381.445 4.04669 381.78 4.05931C382.293 4.06717 382.803 4.14849 383.293 4.30083V5.46143C382.833 5.42225 382.377 5.56512 382.02 5.85962C381.725 6.16498 381.518 6.54476 381.419 6.95886L380.77 9.37407C380.615 10.1249 380.317 10.8387 379.893 11.4766C379.566 11.895 379.116 12.1993 378.608 12.3467V12.4433C379.17 12.5956 379.684 12.891 380.101 13.3011C380.604 13.9011 380.921 14.6361 381.013 15.4153L381.662 18.5564C381.74 18.9564 381.937 19.3231 382.227 19.608C382.404 19.7669 382.611 19.8884 382.836 19.9652C383.061 20.042 383.299 20.0726 383.536 20.0551V21.2144C383.044 21.3679 382.533 21.4499 382.018 21.4579Z" fill="#E8DACD"/>
<path d="M384.084 21.2144L388.265 4.29883H391.533L395.713 21.2144H393.263L392.182 16.9127H387.616L386.535 21.2144H384.084ZM387.978 15.1248H391.823L389.949 7.19838H389.853L387.978 15.1248Z" fill="#E8DACD"/>
<path d="M397.899 21.4583C397.387 21.4386 396.879 21.3575 396.386 21.2168V20.0568C396.843 20.0896 397.297 19.9521 397.66 19.6704C397.97 19.3723 398.18 18.9844 398.26 18.5607L398.789 16.5071C398.924 15.8525 399.181 15.2293 399.545 14.6702C399.796 14.2843 400.162 13.9883 400.591 13.8249V13.7283C400.052 13.6232 399.542 13.4004 399.098 13.0756C398.554 12.6848 398.112 12.1666 397.812 11.5657C397.445 10.8108 397.268 9.97673 397.296 9.13682C397.296 7.36524 397.713 6.07647 398.545 5.27054C399.378 4.4646 400.763 4.06185 402.702 4.06228C403.413 4.05848 404.122 4.09487 404.829 4.17129C405.451 4.24159 406.066 4.36697 406.667 4.54598V21.2148H404.265V14.3778H403.421C402.983 14.3915 402.562 14.5485 402.22 14.825C401.737 15.2658 401.415 15.8574 401.307 16.5045L400.778 18.5581C400.618 19.3675 400.245 20.1187 399.697 20.7331C399.462 20.9708 399.182 21.1578 398.873 21.2825C398.563 21.4072 398.232 21.467 397.899 21.4583ZM402.706 12.5899H404.267V5.70331H402.706C402.295 5.6706 401.881 5.7246 401.492 5.86185C401.103 5.9991 400.747 6.21657 400.446 6.50033C399.88 7.25413 399.614 8.19359 399.702 9.13421C399.702 10.3906 399.95 11.2807 400.446 11.8046C400.749 12.085 401.105 12.2995 401.494 12.4346C401.883 12.5697 402.295 12.6226 402.706 12.5899Z" fill="#E8DACD"/>
<path d="M416.041 21.2144V4.30078H425.652V21.2144H423.25V6.06519H418.447V21.2144H416.041Z" fill="#E8DACD"/>
<path d="M429.015 21.2147V4.54324C429.62 4.36655 430.239 4.24121 430.865 4.16855C431.567 4.0919 432.274 4.05551 432.98 4.05954C434.054 4.01668 435.124 4.2105 436.116 4.62744C436.914 5.01181 437.534 5.69138 437.846 6.52436C438.248 7.67164 438.432 8.88509 438.386 10.1008C438.43 11.3503 438.254 12.5977 437.867 13.7856C437.6 14.6005 437.05 15.2912 436.317 15.7309C435.508 16.1459 434.606 16.3457 433.698 16.3112C433.41 16.3112 433.033 16.287 432.569 16.2387C432.182 16.2021 431.797 16.1456 431.416 16.0696V21.2147H429.015ZM431.417 14.5213H432.979C433.567 14.545 434.152 14.4115 434.673 14.1342C435.156 13.8207 435.507 13.3388 435.658 12.781C435.904 11.9094 436.014 11.0045 435.982 10.0989C436.014 9.19711 435.905 8.29595 435.658 7.42843C435.504 6.87518 435.153 6.39805 434.673 6.08766C434.152 5.81067 433.567 5.67734 432.979 5.70123H431.417V14.5213Z" fill="#E8DACD"/>
<path d="M445.738 21.4583C444.742 21.4843 443.76 21.2154 442.915 20.6848C442.021 20.026 441.376 19.0797 441.089 18.0026C440.608 16.2986 440.393 14.5295 440.453 12.759C440.392 10.9924 440.607 9.22707 441.089 7.52718C441.381 6.45215 442.024 5.50727 442.915 4.845C443.77 4.3313 444.748 4.06006 445.744 4.06006C446.74 4.06006 447.718 4.3313 448.573 4.845C449.459 5.51035 450.099 6.4544 450.39 7.52718C450.873 9.22707 451.087 10.9924 451.027 12.759C451.087 14.5295 450.872 16.2986 450.39 18.0026C450.103 19.0776 449.463 20.023 448.573 20.6848C447.725 21.2185 446.738 21.4876 445.738 21.4583ZM445.738 19.9361C446.118 19.9325 446.489 19.8192 446.808 19.6097C447.211 19.3229 447.534 18.9356 447.744 18.4857C448.073 17.7955 448.292 17.0576 448.393 16.2989C448.563 15.1269 448.639 13.9432 448.622 12.759C448.639 11.5748 448.563 10.3911 448.393 9.21913C448.292 8.46052 448.073 7.7226 447.744 7.03239C447.534 6.58251 447.211 6.1952 446.808 5.90834C446.491 5.69553 446.119 5.58193 445.738 5.58193C445.358 5.58193 444.985 5.69553 444.669 5.90834C444.267 6.19365 443.947 6.58166 443.744 7.03239C443.422 7.72519 443.203 8.46206 443.095 9.21913C442.916 10.3903 442.836 11.5744 442.854 12.759C442.836 13.9437 442.916 15.1278 443.095 16.2989C443.203 17.056 443.422 17.7929 443.744 18.4857C443.947 18.9364 444.267 19.3244 444.669 19.6097C444.987 19.8193 445.358 19.9326 445.738 19.9361Z" fill="#E8DACD"/>
<path d="M458.759 21.4581C457.729 21.4912 456.712 21.227 455.828 20.697C454.927 20.0518 454.278 19.1123 453.989 18.039C453.506 16.3229 453.291 14.5415 453.353 12.7588C453.292 10.9771 453.503 9.19646 453.977 7.47868C454.254 6.41612 454.881 5.47928 455.755 4.82065C456.581 4.29716 457.543 4.03225 458.519 4.05953C459.242 4.05645 459.965 4.10488 460.681 4.20444C461.204 4.2669 461.718 4.38037 462.219 4.54323V5.70318H459.168C458.533 5.69634 457.914 5.90952 457.416 6.30698C456.804 6.87426 456.381 7.61659 456.203 8.43366C455.861 9.84861 455.712 11.3035 455.758 12.7588C455.711 14.2108 455.864 15.6624 456.212 17.0723C456.398 17.9038 456.845 18.6533 457.486 19.2107C458.044 19.6177 458.719 19.8298 459.408 19.8145H462.459V20.9751C461.955 21.1208 461.441 21.2299 460.921 21.3015C460.206 21.4091 459.483 21.4615 458.759 21.4581Z" fill="#E8DACD"/>
<path d="M468.467 21.458C467.761 21.462 467.055 21.4257 466.353 21.349C465.727 21.2763 465.108 21.1512 464.503 20.975V4.54308C465.108 4.36633 465.727 4.24099 466.353 4.1684C467.055 4.09173 467.761 4.05533 468.467 4.05939C470.198 4.05939 471.46 4.43799 472.252 5.19519C472.67 5.63736 472.992 6.16232 473.196 6.73655C473.401 7.31078 473.484 7.92165 473.441 8.53013C473.445 9.23953 473.28 9.93955 472.96 10.572C472.614 11.235 472.069 11.7716 471.402 12.1059V12.2065C471.841 12.3212 472.252 12.5223 472.613 12.798C472.974 13.0738 473.277 13.4187 473.504 13.8129C473.965 14.6772 474.193 15.6478 474.166 16.6282C474.166 18.2715 473.737 19.4878 472.88 20.2772C472.023 21.0666 470.552 21.4602 468.467 21.458ZM466.906 11.5021H468.227C468.601 11.5281 468.976 11.4772 469.329 11.3525C469.682 11.2278 470.006 11.0319 470.282 10.7769C470.798 10.1674 471.053 9.37674 470.99 8.57843C471.019 8.19064 470.971 7.80099 470.849 7.43187C470.728 7.06276 470.535 6.72146 470.282 6.42759C470.006 6.17283 469.682 5.97719 469.329 5.85262C468.975 5.72804 468.601 5.67715 468.227 5.70303H466.906V11.5021ZM466.906 19.8144H468.467C469.359 19.8956 470.248 19.6227 470.942 19.0539C471.227 18.7123 471.442 18.3171 471.574 17.8913C471.706 17.4654 471.753 17.0175 471.711 16.5734C471.802 15.6322 471.526 14.6924 470.942 13.9513C470.602 13.6624 470.208 13.4444 469.783 13.3099C469.358 13.1754 468.911 13.1272 468.467 13.168H466.906V19.8144Z" fill="#E8DACD"/>
<path d="M476.757 21.2144V4.30078H485.118V6.06323H479.159V11.5H484.397V13.2899H479.159V19.4519H485.118V21.2144H476.757Z" fill="#E8DACD"/>
<path d="M490.116 21.2149V6.06567H486.319V4.30322H496.34V6.06567H492.519V21.2149H490.116Z" fill="#E8DACD"/>
<path d="M498.261 21.2144V4.30078H500.616V16.384H500.736L505.421 4.30143H508.112V21.2144H505.757V9.06134H505.637L500.834 21.2163L498.261 21.2144Z" fill="#E8DACD"/>
<path d="M513.831 21.2149V6.06567H510.035V4.30322H520.055V6.06567H516.233V21.2149H513.831Z" fill="#E8DACD"/>
<path d="M521.978 21.2144V4.30078H530.339V6.06323H524.379V11.5H529.617V13.2899H524.379V19.4519H530.337V21.2144H521.978Z" fill="#E8DACD"/>
<path d="M532.812 21.4579C532.299 21.4477 531.789 21.3665 531.298 21.2163V20.0564C531.616 20.0555 531.928 19.9769 532.209 19.8273C532.489 19.6778 532.729 19.4618 532.908 19.198C533.341 18.6271 533.589 17.6083 533.653 16.1418L534.253 4.30078H542.591V21.2144H540.19V6.06519H536.581L536.052 16.1418C536.031 17.1983 535.849 18.2453 535.512 19.2463C535.299 19.9079 534.903 20.4948 534.371 20.9383C533.922 21.2789 533.374 21.4614 532.812 21.4579Z" fill="#E8DACD"/>
<path d="M549.92 21.4579C549.213 21.4619 548.507 21.4255 547.805 21.3489C547.179 21.2762 546.56 21.1511 545.955 20.9748V4.30078H548.357V11.1397C548.738 11.0637 549.124 11.0073 549.511 10.9707C549.974 10.9224 550.355 10.8982 550.64 10.8982C552.225 10.8982 553.402 11.3129 554.172 12.1424C554.941 12.9718 555.326 14.345 555.325 16.2619C555.325 18.0988 554.909 19.4239 554.076 20.2372C553.243 21.0505 551.857 21.4574 549.92 21.4579ZM548.358 19.8142H549.92C550.334 19.8493 550.751 19.7953 551.142 19.6557C551.534 19.5162 551.892 19.2943 552.192 19.0048C552.68 18.4656 552.924 17.5518 552.924 16.2632C552.924 14.9264 552.68 13.9962 552.192 13.4727C551.888 13.1907 551.529 12.9754 551.138 12.8405C550.747 12.7056 550.332 12.6542 549.92 12.6894H548.358V19.8142Z" fill="#E8DACD"/>
<path d="M562.798 21.4581C561.769 21.4911 560.751 21.227 559.866 20.697C558.966 20.0517 558.317 19.1123 558.029 18.039C557.545 16.3229 557.33 14.5415 557.392 12.7588C557.331 10.9771 557.542 9.19641 558.016 7.47869C558.294 6.41613 558.921 5.47929 559.795 4.82066C560.62 4.2971 561.582 4.03218 562.558 4.05954C563.281 4.05649 564.004 4.10491 564.721 4.20445C565.243 4.26692 565.758 4.38038 566.258 4.54324V5.70319H563.208C562.572 5.69646 561.953 5.90963 561.455 6.30699C560.844 6.87427 560.42 7.6166 560.242 8.43367C559.901 9.84866 559.751 11.3036 559.798 12.7588C559.751 14.2108 559.904 15.6624 560.252 17.0723C560.438 17.9038 560.885 18.6533 561.526 19.2107C562.084 19.6178 562.759 19.8299 563.448 19.8145H566.499V20.9751C565.995 21.1208 565.481 21.2299 564.961 21.3015C564.245 21.4091 563.522 21.4615 562.798 21.4581Z" fill="#E8DACD"/>
<path d="M577.31 21.4583C576.963 21.4741 576.617 21.4178 576.293 21.2931C575.969 21.1683 575.675 20.9777 575.427 20.7331C574.892 20.1207 574.546 19.365 574.43 18.5581L573.781 15.4171C573.72 14.7754 573.435 14.1762 572.976 13.7258C572.601 13.4359 572.14 13.2824 571.667 13.2904H570.945V21.2149H568.544V4.30126H570.945V11.5025H571.667C572.067 11.4963 572.45 11.3363 572.736 11.0553C573.154 10.5814 573.433 9.99985 573.54 9.3758L574.19 6.9606C574.361 6.15611 574.731 5.40796 575.266 4.78495C575.499 4.54421 575.78 4.3553 576.091 4.23039C576.401 4.10549 576.734 4.04735 577.068 4.05974C577.581 4.0676 578.091 4.14893 578.581 4.30126V5.46186C578.121 5.42282 577.664 5.56567 577.308 5.86005C577.013 6.16564 576.806 6.54535 576.708 6.95929L576.059 9.37449C575.903 10.1254 575.605 10.8392 575.181 11.477C574.854 11.8953 574.405 12.1997 573.896 12.3472V12.4438C574.459 12.5957 574.973 12.8912 575.389 13.3015C575.892 13.9013 576.21 14.6364 576.302 15.4158L576.951 18.5568C577.029 18.9568 577.226 19.3235 577.515 19.6084C577.693 19.7673 577.9 19.8887 578.125 19.9655C578.35 20.0423 578.588 20.073 578.825 20.0556V21.2149C578.334 21.368 577.824 21.45 577.31 21.4583Z" fill="#E8DACD"/>
<path d="M579.376 21.2144L583.557 4.29883H586.825L591.006 21.2144H588.555L587.474 16.9127H582.908L581.827 21.2144H579.376ZM583.27 15.1248H587.114L585.241 7.19838H585.144L583.27 15.1248Z" fill="#E8DACD"/>
<path d="M593.192 21.4583C592.679 21.4386 592.171 21.3576 591.678 21.2168V20.0568C592.135 20.0898 592.589 19.9522 592.951 19.6704C593.262 19.3725 593.472 18.9845 593.552 18.5607L594.081 16.5071C594.216 15.8525 594.473 15.2293 594.838 14.6703C595.088 14.2843 595.454 13.9883 595.883 13.8249V13.7283C595.345 13.6227 594.836 13.3999 594.393 13.0756C593.849 12.6848 593.407 12.1666 593.107 11.5657C592.74 10.8108 592.563 9.97673 592.591 9.13682C592.591 7.36524 593.008 6.07648 593.841 5.27054C594.674 4.4646 596.058 4.06185 597.995 4.06228C598.705 4.05847 599.415 4.09486 600.121 4.17129C600.743 4.24153 601.359 4.36691 601.959 4.54598V21.2148H599.558V14.3778H598.714C598.276 14.3916 597.854 14.5486 597.512 14.825C597.029 15.266 596.708 15.8575 596.599 16.5045L596.071 18.5581C595.911 19.3675 595.538 20.1188 594.99 20.7331C594.755 20.9708 594.475 21.1578 594.165 21.2825C593.856 21.4072 593.525 21.467 593.192 21.4583ZM597.995 12.5899H599.557V5.70332H597.995C597.584 5.67062 597.171 5.72462 596.782 5.86187C596.393 5.99912 596.036 6.21659 595.736 6.50033C595.17 7.25413 594.904 8.19359 594.991 9.13421C594.991 10.3906 595.24 11.2807 595.736 11.8046C596.039 12.0853 596.396 12.2999 596.785 12.435C597.174 12.5702 597.587 12.6229 597.997 12.5899H597.995Z" fill="#E8DACD"/>
<path d="M238.673 58.9683C237.677 58.9942 236.695 58.7253 235.85 58.1947C234.955 57.5363 234.311 56.5899 234.024 55.5126C233.543 53.8085 233.328 52.0395 233.387 50.269C233.328 48.5034 233.542 46.7393 234.024 45.0404C234.316 43.9654 234.959 43.0206 235.85 42.3582C236.706 41.8445 237.683 41.5732 238.679 41.5732C239.676 41.5732 240.653 41.8445 241.508 42.3582C242.394 43.0239 243.034 43.9678 243.326 45.0404C243.808 46.7403 244.022 48.5056 243.962 50.2722C244.022 52.0427 243.807 53.8117 243.326 55.5158C243.038 56.5906 242.398 57.536 241.508 58.198C240.659 58.7305 239.673 58.9985 238.673 58.9683ZM238.673 57.446C239.053 57.4424 239.424 57.3292 239.742 57.1196C240.146 56.8329 240.469 56.4456 240.68 55.9956C241.009 55.3055 241.228 54.5676 241.329 53.8089C241.498 52.6368 241.574 51.4532 241.557 50.269C241.574 49.0848 241.498 47.9011 241.329 46.729C241.228 45.9704 241.009 45.2324 240.68 44.5423C240.469 44.0924 240.146 43.705 239.742 43.4183C239.426 43.2055 239.054 43.0919 238.673 43.0919C238.293 43.0919 237.921 43.2055 237.604 43.4183C237.202 43.7035 236.882 44.0915 236.679 44.5423C236.357 45.2353 236.138 45.9721 236.03 46.729C235.852 47.9002 235.771 49.0843 235.789 50.269C235.771 51.4536 235.852 52.6377 236.03 53.8089C236.138 54.5658 236.357 55.3026 236.679 55.9956C236.882 56.4464 237.202 56.8344 237.604 57.1196C237.922 57.3291 238.293 57.4424 238.673 57.446Z" fill="#E8DACD"/>
<path d="M246.818 58.7266V41.811H249.22V49.2525H254.023V41.811H256.425V58.7266H254.023V51.0423H249.22V58.7266H246.818Z" fill="#E8DACD"/>
<path d="M259.626 58.9681C259.113 58.958 258.603 58.8767 258.112 58.7266V57.5667C258.43 57.5658 258.742 57.4872 259.023 57.3377C259.303 57.1881 259.543 56.9721 259.722 56.7083C260.155 56.1373 260.403 55.1186 260.466 53.6521L261.067 41.811H269.405V58.7266H267.004V43.5754H263.399L262.871 53.6521C262.85 54.7088 262.667 55.756 262.33 56.7572C262.117 57.4185 261.722 58.0051 261.189 58.4485C260.739 58.7901 260.19 58.9727 259.626 58.9681Z" fill="#E8DACD"/>
<path d="M271.519 58.7266L275.7 41.811H278.968L283.148 58.7266H280.698L279.617 54.4249H275.051L273.971 58.7266H271.519ZM275.413 52.637H279.257L277.382 44.7138H277.285L275.413 52.637Z" fill="#E8DACD"/>
<path d="M285.264 58.7266V41.811H287.618V53.8936H287.739L292.424 41.811H295.115V58.7266H292.76V46.5716H292.64L287.837 58.7266H285.264ZM290.19 40.4096C289.476 40.4277 288.77 40.2525 288.147 39.9024C287.583 39.5768 287.111 39.1108 286.777 38.5492L287.835 37.51C288.125 37.7896 288.447 38.0329 288.795 38.2346C289.222 38.4726 289.701 38.5975 290.189 38.5975C290.677 38.5975 291.156 38.4726 291.582 38.2346C291.931 38.0329 292.253 37.7896 292.544 37.51L293.601 38.5492C293.279 39.1153 292.81 39.583 292.244 39.9024C291.615 40.2515 290.906 40.4266 290.188 40.4096H290.19Z" fill="#E8DACD"/>
<path d="M298.477 58.7266V41.811H300.878V49.2525H305.681V41.811H308.083V58.7266H305.681V51.0423H300.878V58.7266H298.477Z" fill="#E8DACD"/>
<path d="M310.491 52.3713V50.5828H317.868V52.3713H310.491Z" fill="#E8DACD"/>
<path d="M322.144 58.9683C321.433 58.9712 320.722 58.9186 320.018 58.811C319.495 58.7365 318.977 58.6275 318.468 58.4846V57.3246H321.519C322.187 57.3407 322.844 57.142 323.392 56.7574C324.004 56.2537 324.441 55.5682 324.642 54.7991C324.993 53.537 325.163 52.2309 325.146 50.9204H320.148V49.1332H325.146C325.147 47.9254 324.968 46.7243 324.618 45.5691C324.412 44.8508 323.993 44.213 323.416 43.7414C322.934 43.3917 322.353 43.2055 321.759 43.2101H318.708V42.0534C319.213 41.8935 319.732 41.7801 320.257 41.7146C320.962 41.6152 321.673 41.5668 322.384 41.5697C323.369 41.5397 324.34 41.8046 325.175 42.3308C326.047 42.9885 326.67 43.9263 326.94 44.9888C327.406 46.7081 327.613 48.488 327.553 50.269C327.614 52.0507 327.403 53.8314 326.929 55.5491C326.647 56.6225 326.001 57.563 325.102 58.2072C324.209 58.7396 323.182 59.0037 322.144 58.9683Z" fill="#E8DACD"/>
<path d="M339.18 58.9682C338.833 58.9844 338.486 58.9284 338.161 58.8036C337.837 58.6788 337.541 58.4879 337.293 58.243C336.759 57.6303 336.412 56.8748 336.296 56.068L335.647 52.9269C335.586 52.2852 335.301 51.6859 334.843 51.2356C334.467 50.946 334.006 50.7925 333.533 50.8002H332.812V58.7267H330.411V41.8111H332.812V49.0123H333.533C333.933 49.0062 334.316 48.8462 334.602 48.5652C335.02 48.0911 335.299 47.5097 335.407 46.8856L336.056 44.4704C336.23 43.6657 336.601 42.9177 337.138 42.2954C337.371 42.0547 337.652 41.8658 337.963 41.7409C338.273 41.616 338.606 41.5579 338.94 41.5702C339.453 41.5781 339.963 41.6595 340.454 41.8117V42.9724C339.994 42.9331 339.537 43.076 339.18 43.3705C338.885 43.6761 338.678 44.0561 338.58 44.4704L337.931 46.8856C337.775 47.6365 337.477 48.3503 337.054 48.9882C336.727 49.4065 336.277 49.7109 335.768 49.8583V49.9549C336.331 50.1071 336.845 50.4025 337.261 50.8126C337.764 51.4126 338.081 52.1476 338.174 52.9269L338.823 56.068C338.901 56.4679 339.098 56.8345 339.388 57.1196C339.565 57.2785 339.773 57.3999 339.997 57.4767C340.222 57.5536 340.46 57.5842 340.697 57.5667V58.7267C340.205 58.8794 339.694 58.9607 339.18 58.9682Z" fill="#E8DACD"/>
<path d="M347.133 58.9681C346.103 59.0012 345.086 58.737 344.201 58.207C343.301 57.5618 342.651 56.6223 342.363 55.549C341.88 53.8329 341.665 52.0515 341.727 50.2688C341.666 48.487 341.877 46.7063 342.352 44.9887C342.629 43.9262 343.255 42.9893 344.129 42.3306C344.955 41.8073 345.917 41.5424 346.892 41.5695C347.616 41.5664 348.339 41.6148 349.055 41.7144C349.577 41.7771 350.092 41.8906 350.593 42.0532V43.2125H347.542C346.906 43.2057 346.288 43.4189 345.79 43.8163C345.178 44.3836 344.755 45.1259 344.577 45.943C344.235 47.358 344.085 48.8129 344.132 50.2682C344.085 51.7202 344.238 53.1717 344.586 54.5816C344.772 55.4131 345.219 56.1627 345.86 56.72C346.418 57.127 347.093 57.3391 347.782 57.3238H350.833V58.4871C350.329 58.6327 349.814 58.7418 349.295 58.8134C348.579 58.9204 347.856 58.9721 347.133 58.9681Z" fill="#E8DACD"/>
<path d="M352.875 58.7266V41.811H362.486V58.7266H360.085V43.5754H355.282V58.7266H352.875Z" fill="#E8DACD"/>
<path d="M365.85 58.7266V41.811H374.212V43.5735H368.252V49.0103H373.49V50.7982H368.252V56.9602H374.212V58.7227L365.85 58.7266Z" fill="#E8DACD"/>
<path d="M375.413 62.3514V56.9622H376.614C376.971 56.2694 377.254 55.5403 377.458 54.7872C377.673 53.9005 377.794 52.9933 377.818 52.0809L378.299 41.811H386.396V56.9622H387.957V62.3514H386.465C386.258 61.8212 386.094 61.2756 385.973 60.7195C385.828 60.0625 385.727 59.3965 385.671 58.726H377.696C377.639 59.3964 377.539 60.0624 377.395 60.7195C377.274 61.2755 377.109 61.8211 376.903 62.3514H375.413ZM383.99 56.9622V43.503H380.627L380.218 52.0809C380.194 52.9941 380.069 53.9018 379.845 54.7872C379.636 55.5362 379.359 56.2643 379.017 56.9622H383.99Z" fill="#E8DACD"/>
<path d="M390.238 58.7266V41.811H392.592V53.8936H392.713L397.398 41.811H400.089V58.7266H397.734V46.5716H397.617L392.814 58.7266H390.238Z" fill="#E8DACD"/>
<path d="M412.896 62.3514C412.689 61.8212 412.524 61.2755 412.403 60.7195C412.259 60.0624 412.158 59.3964 412.103 58.726H403.453V41.811H405.854V56.9622H410.42V41.811H412.821V56.9622H414.384V62.3514H412.896Z" fill="#E8DACD"/>
<path d="M416.667 58.7266V41.811H419.022V53.8936H419.142L423.828 41.811H426.519V58.7266H424.164V46.5716H424.044L419.241 58.7266H416.667Z" fill="#E8DACD"/>
<path d="M429.954 58.9681C429.442 58.9485 428.934 58.8675 428.441 58.7266V57.5667C428.898 57.5998 429.352 57.4622 429.714 57.1802C430.024 56.8822 430.234 56.4943 430.315 56.0705L430.843 54.017C430.979 53.3624 431.235 52.7393 431.6 52.1801C431.85 51.7929 432.216 51.4958 432.646 51.3315V51.2349C432.108 51.1293 431.599 50.9065 431.156 50.5822C430.612 50.1914 430.17 49.6732 429.87 49.0723C429.502 48.3177 429.324 47.4836 429.351 46.6434C429.351 44.8718 429.767 43.5831 430.6 42.7771C431.432 41.9712 432.817 41.5684 434.754 41.5689C435.464 41.5651 436.173 41.6015 436.879 41.6779C437.502 41.7481 438.117 41.8735 438.718 42.0526V58.7266H436.317V51.8877H435.473C435.035 51.9014 434.613 52.0584 434.271 52.3348C433.788 52.7756 433.466 53.3673 433.358 54.0144L432.83 56.0679C432.67 56.8773 432.296 57.6285 431.749 58.2429C431.514 58.4803 431.234 58.667 430.926 58.7917C430.617 58.9164 430.286 58.9764 429.954 58.9681ZM434.757 50.0998H436.319V43.2125H434.757C434.346 43.1798 433.933 43.2338 433.544 43.3711C433.154 43.5083 432.798 43.7258 432.498 44.0095C431.931 44.7633 431.666 45.7028 431.753 46.6434C431.753 47.9002 432.001 48.7903 432.498 49.3138C432.8 49.5947 433.158 49.8096 433.547 49.9448C433.937 50.0801 434.35 50.1328 434.76 50.0998H434.757Z" fill="#E8DACD"/>
<path d="M229.584 99.4608L224.081 92.1877L229.584 84.9141L232.257 86.6537L228.168 92.0924V92.2824L232.257 97.7212L229.584 99.4608ZM235.873 99.4608L230.37 92.1877L235.873 84.9141L238.545 86.6537L234.456 92.0924V92.2824L238.545 97.7212L235.873 99.4608Z" fill="#E8DACD"/>
<path d="M241.062 100.093L242.32 77.9575H246.409L251.377 92.9781H251.503L256.471 77.9575H260.56L261.818 100.093H258.198L257.348 85.1039H257.224L253.168 97.4051H249.709L245.653 85.1039H245.527L244.678 100.093H241.062Z" fill="#E8DACD"/>
<path d="M272.032 100.409C270.683 100.442 269.353 100.074 268.212 99.3496C267.007 98.474 266.123 97.2237 265.696 95.7921C265.024 93.6025 264.721 91.3152 264.799 89.025C264.72 86.7399 265.023 84.4575 265.696 82.2735C266.129 80.8451 267.012 79.5967 268.212 78.716C269.363 78.0127 270.685 77.6409 272.032 77.6409C273.379 77.6409 274.701 78.0127 275.852 78.716C277.051 79.5972 277.934 80.8454 278.368 82.2735C279.041 84.4575 279.344 86.7399 279.263 89.025C279.343 91.3152 279.04 93.6026 278.368 95.7921C277.94 97.2234 277.056 98.4735 275.852 99.3496C274.711 100.074 273.381 100.442 272.032 100.409ZM272.032 98.1956C272.49 98.1897 272.935 98.0405 273.305 97.7687C273.787 97.3914 274.166 96.8972 274.406 96.3326C274.794 95.4401 275.058 94.4983 275.192 93.5336C275.591 90.543 275.591 87.5122 275.192 84.5216C275.058 83.5571 274.794 82.6155 274.406 81.7232C274.166 81.1586 273.787 80.6645 273.305 80.2872C272.938 80.0101 272.491 79.8603 272.032 79.8603C271.573 79.8603 271.126 80.0101 270.759 80.2872C270.276 80.664 269.896 81.1582 269.655 81.7232C269.267 82.6156 269.003 83.5571 268.868 84.5216C268.471 87.5123 268.471 90.5429 268.868 93.5336C269.002 94.4983 269.267 95.4401 269.655 96.3326C269.896 96.8977 270.276 97.3919 270.759 97.7687C271.129 98.0405 271.574 98.1897 272.032 98.1956Z" fill="#E8DACD"/>
<path d="M283.194 100.409C282.45 100.393 281.711 100.287 280.993 100.093V98.3536C281.524 98.3806 282.051 98.2428 282.502 97.9587C282.928 97.6205 283.228 97.1465 283.351 96.6147L284.137 93.9266C284.351 93.0634 284.724 92.2482 285.237 91.5232C285.559 91.0544 285.991 90.6731 286.495 90.4135V90.2869C285.816 90.1319 285.174 89.8416 284.609 89.4331C283.873 88.9211 283.265 88.2445 282.832 87.4565C282.31 86.482 282.055 85.3853 282.093 84.2789C282.093 82.0647 282.675 80.4043 283.838 79.2977C285.002 78.191 286.884 77.6377 289.485 77.6377C290.504 77.6303 291.522 77.6778 292.536 77.78C293.366 77.8695 294.187 78.0335 294.989 78.2702V100.09H291.215V91.2386H290.429C289.981 91.2976 289.563 91.4967 289.234 91.8078C288.641 92.3782 288.235 93.1176 288.071 93.9266L287.284 96.6147C287.038 97.6736 286.53 98.6527 285.806 99.4607C285.457 99.7885 285.046 100.042 284.597 100.205C284.148 100.368 283.671 100.437 283.194 100.409ZM289.483 88.7098H291.212V80.0131H289.483C288.989 79.9794 288.494 80.0523 288.03 80.2268C287.566 80.4013 287.145 80.6734 286.795 81.0249C286.176 81.6998 285.867 82.7856 285.867 84.2821C285.867 85.8631 286.177 86.9961 286.795 87.6811C287.143 88.0374 287.563 88.3139 288.027 88.4914C288.491 88.669 288.987 88.7435 289.483 88.7098Z" fill="#E8DACD"/>
<path d="M313.851 100.409C312.428 100.458 311.02 100.113 309.779 99.4131C308.561 98.5922 307.679 97.3571 307.294 95.9346C306.662 93.6889 306.381 91.3578 306.462 89.0251C306.382 86.6936 306.658 84.3634 307.279 82.1157C307.648 80.7075 308.5 79.4756 309.684 78.6372C310.848 77.945 312.184 77.5995 313.536 77.641C314.54 77.6341 315.544 77.6976 316.539 77.831C317.228 77.912 317.907 78.0602 318.567 78.2736V80.0132H314.796C313.947 80.0032 313.118 80.2754 312.438 80.7873C311.624 81.4979 311.056 82.4505 310.816 83.5074C310.368 85.3107 310.172 87.1676 310.231 89.0251C310.171 90.8783 310.372 92.7307 310.829 94.5272C311.079 95.6029 311.678 96.5644 312.53 97.261C313.288 97.7851 314.19 98.0562 315.108 98.0358H318.885V99.7748C318.22 99.9666 317.542 100.109 316.856 100.202C315.861 100.347 314.856 100.416 313.851 100.409Z" fill="#E8DACD"/>
<path d="M324.541 100.093V80.485H319.667V77.9556H333.188V80.485H328.314V100.091L324.541 100.093Z" fill="#E8DACD"/>
<path d="M335.703 100.093V78.2735C336.51 78.0398 337.335 77.8758 338.17 77.7833C339.178 77.6807 340.191 77.6332 341.205 77.641C342.655 77.5841 344.1 77.8542 345.433 78.4315C346.509 78.955 347.359 79.8543 347.823 80.9615C348.39 82.4204 348.653 83.9812 348.594 85.5465C348.653 87.1801 348.407 88.8105 347.871 90.3534C347.478 91.4498 346.716 92.3735 345.717 92.9645C344.616 93.5372 343.386 93.8151 342.147 93.7713C341.916 93.7713 341.513 93.7397 340.937 93.6766C340.361 93.6135 339.873 93.5395 339.474 93.4547V100.096L335.703 100.093ZM339.476 91.2386H341.206C341.906 91.2638 342.598 91.0884 343.203 90.7327C343.796 90.3137 344.225 89.6982 344.413 88.9937C344.724 87.8725 344.862 86.7099 344.822 85.5465C344.861 84.4146 344.723 83.2834 344.413 82.1946C344.222 81.5042 343.793 80.9046 343.203 80.5027C342.595 80.1576 341.904 79.9882 341.206 80.0131H339.476V91.2386Z" fill="#E8DACD"/>
<path d="M349.224 100.093L354.884 77.9575H359.6L365.26 100.093H361.33L359.946 94.5591H354.538L353.154 100.093H349.224ZM355.038 92.029H359.409L357.302 83.017H357.18L355.038 92.029Z" fill="#E8DACD"/>
<path d="M367.933 100.093V77.9575H371.706V87.6001H377.366V77.9575H381.139V100.093H377.366V90.1321H371.706V100.093H367.933Z" fill="#E8DACD"/>
<path d="M383.811 100.093L389.471 77.9575H394.188L399.848 100.093H395.918L394.534 94.5591H389.126L387.742 100.093H383.811ZM389.628 92.029H393.999L391.893 83.017H391.767L389.628 92.029Z" fill="#E8DACD"/>
<path d="M409.123 92.5036V89.9741H422.329V92.5036H409.123Z" fill="#E8DACD"/>
<path d="M432.706 100.093L433.963 77.9575H438.052L443.02 92.9781H443.145L448.114 77.9575H452.203L453.461 100.093H449.845L448.996 85.1039H448.87L444.814 97.4051H441.355L437.299 85.1039H437.173L436.324 100.093H432.706Z" fill="#E8DACD"/>
<path d="M463.677 100.409C462.328 100.442 460.999 100.074 459.857 99.3496C458.653 98.4738 457.769 97.2236 457.341 95.7921C456.669 93.6025 456.366 91.3152 456.445 89.025C456.365 86.7399 456.668 84.4575 457.341 82.2735C457.775 80.8452 458.658 79.5969 459.857 78.716C461.009 78.0127 462.33 77.6409 463.677 77.6409C465.025 77.6409 466.346 78.0127 467.498 78.716C468.697 79.5971 469.579 80.8453 470.014 82.2735C470.686 84.4576 470.989 86.7399 470.909 89.025C470.988 91.3152 470.686 93.6025 470.014 95.7921C469.586 97.2235 468.702 98.4736 467.498 99.3496C466.356 100.074 465.027 100.442 463.677 100.409ZM463.677 98.1956C464.136 98.1897 464.581 98.0405 464.951 97.7687C465.433 97.3914 465.811 96.8972 466.051 96.3326C466.439 95.4401 466.704 94.4983 466.837 93.5336C467.236 90.543 467.236 87.5122 466.837 84.5216C466.703 83.5571 466.439 82.6155 466.051 81.7232C465.811 81.1586 465.432 80.6645 464.951 80.2872C464.583 80.0101 464.137 79.8603 463.677 79.8603C463.218 79.8603 462.771 80.0101 462.404 80.2872C461.921 80.664 461.541 81.1582 461.301 81.7232C460.913 82.6155 460.648 83.5571 460.515 84.5216C460.116 87.5122 460.116 90.5429 460.515 93.5336C460.648 94.4983 460.913 95.4401 461.301 96.3326C461.541 96.8977 461.921 97.3919 462.404 97.7687C462.774 98.0405 463.219 98.1897 463.677 98.1956Z" fill="#E8DACD"/>
<path d="M474.839 100.409C474.096 100.393 473.357 100.287 472.638 100.093V98.3536C473.17 98.3806 473.696 98.2428 474.147 97.9587C474.574 97.6206 474.873 97.1466 474.996 96.6147L475.782 93.9266C475.997 93.0634 476.37 92.2482 476.883 91.5232C477.204 91.0544 477.636 90.6731 478.14 90.4135V90.2869C477.461 90.1318 476.82 89.8415 476.254 89.4331C475.518 88.9211 474.91 88.2445 474.478 87.4565C473.956 86.4819 473.701 85.3853 473.738 84.2789C473.738 82.0647 474.32 80.4043 475.484 79.2977C476.647 78.191 478.53 77.6377 481.131 77.6377C482.149 77.6302 483.168 77.6777 484.181 77.78C485.012 77.8694 485.833 78.0335 486.634 78.2702V100.09H482.86V91.2386H482.074C481.627 91.2976 481.209 91.4967 480.879 91.8078C480.286 92.3786 479.881 93.1178 479.716 93.9266L478.93 96.6147C478.684 97.6734 478.175 98.6523 477.452 99.4607C477.103 99.7885 476.692 100.042 476.243 100.205C475.793 100.368 475.316 100.437 474.839 100.409ZM481.128 88.7092H482.857V80.0131H481.128C480.634 79.9794 480.139 80.0522 479.675 80.2267C479.211 80.4012 478.79 80.6733 478.44 81.0249C477.821 81.6998 477.512 82.7856 477.512 84.2821C477.512 85.8631 477.821 86.9961 478.44 87.6811C478.788 88.0373 479.208 88.3137 479.672 88.4913C480.136 88.6688 480.633 88.7434 481.128 88.7098V88.7092Z" fill="#E8DACD"/>
<path d="M498.893 100.093V78.2735C499.7 78.0398 500.525 77.8758 501.359 77.7833C502.368 77.6807 503.381 77.6332 504.394 77.641C505.844 77.5841 507.289 77.8542 508.622 78.4315C509.698 78.9549 510.548 79.8542 511.013 80.9615C511.58 82.4205 511.842 83.9812 511.783 85.5465C511.842 87.1802 511.597 88.8105 511.06 90.3534C510.667 91.4498 509.905 92.3735 508.906 92.9645C507.805 93.5372 506.575 93.8151 505.336 93.7713C505.105 93.7713 504.702 93.7397 504.126 93.6766C503.55 93.6135 503.063 93.5395 502.664 93.4547V100.096L498.893 100.093ZM502.667 91.2386H504.396C505.095 91.2639 505.788 91.0884 506.392 90.7327C506.986 90.3137 507.414 89.6982 507.603 88.9937C507.914 87.8725 508.052 86.7099 508.012 85.5465C508.051 84.4146 507.913 83.2834 507.603 82.1946C507.411 81.5042 506.982 80.9046 506.392 80.5027C505.784 80.1575 505.093 79.9881 504.396 80.0131H502.667V91.2386Z" fill="#E8DACD"/>
<path d="M521.532 100.409C520.183 100.442 518.854 100.074 517.712 99.3496C516.508 98.4738 515.624 97.2236 515.196 95.7921C514.524 93.6025 514.221 91.3152 514.3 89.025C514.22 86.7399 514.523 84.4576 515.196 82.2735C515.63 80.8452 516.513 79.5969 517.712 78.716C518.863 78.0127 520.185 77.6409 521.532 77.6409C522.88 77.6409 524.201 78.0127 525.353 78.716C526.552 79.5971 527.434 80.8453 527.868 82.2735C528.541 84.4576 528.844 86.7399 528.764 89.025C528.843 91.3152 528.54 93.6025 527.868 95.7921C527.441 97.2235 526.557 98.4736 525.353 99.3496C524.211 100.074 522.882 100.442 521.532 100.409ZM521.532 98.1956C521.991 98.1897 522.436 98.0405 522.806 97.7687C523.289 97.3918 523.668 96.8976 523.909 96.3326C524.297 95.4401 524.562 94.4983 524.695 93.5336C525.094 90.543 525.094 87.5122 524.695 84.5216C524.562 83.5571 524.297 82.6155 523.909 81.7232C523.668 81.1583 523.289 80.6641 522.806 80.2872C522.438 80.0101 521.991 79.8603 521.532 79.8603C521.073 79.8603 520.626 80.0101 520.259 80.2872C519.776 80.664 519.396 81.1582 519.155 81.7232C518.767 82.6155 518.503 83.5571 518.369 84.5216C517.971 87.5122 517.971 90.5429 518.369 93.5336C518.503 94.4983 518.767 95.4401 519.155 96.3326C519.396 96.8977 519.776 97.3919 520.259 97.7687C520.629 98.0405 521.074 98.1897 521.532 98.1956Z" fill="#E8DACD"/>
<path d="M538.983 100.409C537.561 100.458 536.152 100.113 534.911 99.4131C533.694 98.5919 532.812 97.3569 532.427 95.9346C531.794 93.689 531.513 91.3578 531.593 89.0251C531.514 86.6935 531.79 84.3634 532.411 82.1157C532.781 80.7075 533.633 79.4756 534.817 78.6372C535.981 77.945 537.316 77.5995 538.668 77.641C539.672 77.6341 540.676 77.6976 541.671 77.831C542.36 77.9121 543.039 78.0603 543.7 78.2736V80.0132H539.926C539.077 80.0032 538.248 80.2754 537.568 80.7873C536.754 81.4977 536.185 82.4504 535.945 83.5074C535.498 85.3107 535.302 87.1676 535.361 89.0251C535.301 90.8783 535.502 92.7307 535.958 94.5272C536.21 95.6032 536.809 96.5648 537.663 97.261C538.42 97.7852 539.322 98.0562 540.241 98.0358H544.014V99.7748C543.349 99.9666 542.671 100.109 541.986 100.202C540.991 100.347 539.988 100.416 538.983 100.409Z" fill="#E8DACD"/>
<path d="M552.661 100.409C551.239 100.458 549.831 100.114 548.589 99.4151C547.372 98.594 546.49 97.3589 546.105 95.9365C545.472 93.6909 545.191 91.3598 545.272 89.0271C545.192 86.6955 545.468 84.3654 546.09 82.1177C546.459 80.7095 547.311 79.4776 548.495 78.6391C549.659 77.9469 550.995 77.6015 552.347 77.643C553.351 77.636 554.354 77.6995 555.35 77.8329C556.039 77.914 556.718 78.0622 557.378 78.2755V80.0151H553.605C552.755 80.0052 551.926 80.2773 551.247 80.7893C550.432 81.4997 549.864 82.4524 549.624 83.5093C549.177 85.3126 548.98 87.1695 549.04 89.0271C548.979 90.8803 549.181 92.7327 549.637 94.5292C549.888 95.6045 550.487 96.5654 551.341 97.261C552.098 97.7851 553 98.0562 553.919 98.0358H557.692V99.7747C557.027 99.9666 556.349 100.109 555.663 100.202C554.669 100.347 553.665 100.416 552.661 100.409Z" fill="#E8DACD"/>
<path d="M560.364 100.093V77.9575H563.98V92.5036H564.138L569.954 77.9575H573.885V100.093H570.268V85.2306H570.11L564.139 100.093H560.364Z" fill="#E8DACD"/>
<path d="M578.601 100.409C577.858 100.393 577.119 100.287 576.4 100.093V98.3536C576.932 98.3806 577.459 98.2428 577.909 97.9587C578.336 97.6205 578.635 97.1465 578.758 96.6147L579.544 93.9266C579.759 93.0634 580.132 92.2482 580.645 91.5232C580.966 91.0544 581.398 90.6731 581.903 90.4135V90.2869C581.223 90.1318 580.582 89.8415 580.016 89.4331C579.28 88.9211 578.672 88.2445 578.24 87.4565C577.717 86.482 577.462 85.3853 577.501 84.2789C577.501 82.0647 578.082 80.4043 579.246 79.2977C580.409 78.191 582.291 77.6377 584.89 77.6377C585.908 77.6303 586.927 77.6778 587.94 77.78C588.771 77.8695 589.592 78.0335 590.393 78.2702V100.09H586.619V91.2386H585.833C585.385 91.2976 584.967 91.4967 584.638 91.8078C584.045 92.3782 583.639 93.1176 583.475 93.9266L582.689 96.6147C582.443 97.6736 581.934 98.6527 581.211 99.4607C580.862 99.7881 580.451 100.041 580.003 100.204C579.554 100.367 579.077 100.437 578.601 100.409ZM584.89 88.7091H586.619V80.0131H584.89C584.396 79.9794 583.9 80.0523 583.437 80.2268C582.973 80.4013 582.552 80.6734 582.202 81.0249C581.583 81.6998 581.273 82.7856 581.274 84.2821C581.274 85.8631 581.583 86.9961 582.202 87.6811C582.549 88.0374 582.97 88.3139 583.434 88.4914C583.898 88.669 584.394 88.7435 584.89 88.7098V88.7091Z" fill="#E8DACD"/>
<path d="M596.209 99.4608L593.536 97.7212L597.625 92.2824V92.0924L593.536 86.6537L596.209 84.9141L601.712 92.1877L596.209 99.4608ZM602.498 99.4608L599.825 97.7212L603.914 92.2824V92.0924L599.825 86.6537L602.498 84.9141L608 92.1877L602.498 99.4608Z" fill="#E8DACD"/>
</g>
<defs>
<clipPath id="clip0_5_2362">
<rect width="608" height="104" fill="white"/>
</clipPath>
</defs>
</svg>
