<svg width="19" height="20" viewBox="0 0 19 20" fill="none" xmlns="http://www.w3.org/2000/svg">
<path fill-rule="evenodd" clip-rule="evenodd" d="M0 5.5C0 1 4.04545 -0.00291991 5.50106 1.1146e-05L5.50224 1.36494e-05L5.50001 1.00001V1.1146e-05H5.50106H18C18.5523 1.1146e-05 19 0.447726 19 1.00001C19 1.5523 18.5523 2.00001 18 2.00001H5.50001L5.49778 2.00001C4.57218 1.99795 3.68367 2.36366 3.02771 3.0167C2.37175 3.66974 2.00207 4.55662 2.00001 5.48222V5.49776L2.00002 5.50224C1.99899 5.96055 2.08825 6.41458 2.26269 6.83839C2.43713 7.26221 2.69335 7.64751 3.0167 7.97231C3.34005 8.29711 3.72421 8.55504 4.14725 8.73137C4.57028 8.9077 5.02391 8.99899 5.48222 9.00001L5.49701 9.00001L5.50001 9L11 9.00001C11.5523 9.00001 12 9.44772 12 10C12 10.5523 11.5523 11 11 11H5.50001L5.50301 11L5.50001 10V11L5.47776 11C4.75706 10.9983 4.04299 10.8547 3.37776 10.5774C2.7123 10.3 2.10799 9.8943 1.59934 9.38337C1.09068 8.87244 0.687642 8.26633 0.413229 7.59964C0.138817 6.93295 -0.00159401 6.21873 1.36505e-05 5.49778" fill="#6080AF"/>
<path fill-rule="evenodd" clip-rule="evenodd" d="M11 1.11461e-05C11.5523 1.11461e-05 12 0.447726 12 1.00001V18H14V1.00001C14 0.447726 14.4477 1.11461e-05 15 1.11461e-05C15.5523 1.11461e-05 16 0.447726 16 1.00001V18H17C17.5523 18 18 18.4477 18 19C18 19.5523 17.5523 20 17 20H9C8.44771 20 8 19.5523 8 19C8 18.4477 8.44771 18 9 18H10V1.00001C10 0.447726 10.4477 1.11461e-05 11 1.11461e-05Z" fill="#6080AF"/>
</svg>
