<svg width="17" height="20" viewBox="0 0 17 20" fill="none" xmlns="http://www.w3.org/2000/svg">
<path fill-rule="evenodd" clip-rule="evenodd" d="M4.5 1C4.5 0.447715 4.94771 0 5.5 0H11.5C12.0523 0 12.5 0.447715 12.5 1C12.5 1.55228 12.0523 2 11.5 2H9.5V3.05902C10.8271 3.21624 12.1034 3.68485 13.2223 4.43251C13.4076 4.5563 13.5875 4.687 13.7616 4.82422L14.5929 3.99289C14.9834 3.60237 15.6166 3.60237 16.0071 3.99289C16.3976 4.38342 16.3976 5.01658 16.0071 5.40711L15.1758 6.23844C15.6559 6.84759 16.0529 7.52285 16.353 8.24719C16.9963 9.80036 17.1646 11.5094 16.8367 13.1583C16.5087 14.8071 15.6992 16.3217 14.5104 17.5104C13.3217 18.6992 11.8071 19.5087 10.1583 19.8367C8.50943 20.1646 6.80036 19.9963 5.24719 19.353C3.69402 18.7096 2.3665 17.6202 1.43251 16.2223C0.498516 14.8245 0 13.1811 0 11.5C0 9.58157 0.648538 7.73 1.8242 6.23842L0.992894 5.40711C0.60237 5.01658 0.60237 4.38342 0.992894 3.99289C1.38342 3.60237 2.01658 3.60237 2.40711 3.99289L3.23842 4.8242C4.46883 3.85439 5.9442 3.24327 7.5 3.059V2H5.5C4.94771 2 4.5 1.55228 4.5 1ZM8.5 5C6.80628 5 5.18072 5.66104 3.96825 6.84025C3.94906 6.86322 3.92868 6.88554 3.90711 6.90711C3.88554 6.92868 3.86322 6.94906 3.84025 6.96825C2.66104 8.18072 2 9.80628 2 11.5C2 12.7856 2.38122 14.0423 3.09545 15.1112C3.80968 16.1801 4.82484 17.0132 6.01256 17.5052C7.20028 17.9972 8.50721 18.1259 9.76809 17.8751C11.029 17.6243 12.1872 17.0052 13.0962 16.0962C14.0052 15.1872 14.6243 14.029 14.8751 12.7681C15.1259 11.5072 14.9972 10.2003 14.5052 9.01256C14.1886 8.24824 13.7308 7.55539 13.1597 6.9682C13.1367 6.94903 13.1145 6.92866 13.0929 6.90711C13.0713 6.88554 13.0509 6.86322 13.0318 6.84025C12.7495 6.56576 12.4416 6.31623 12.1112 6.09545C11.0423 5.38122 9.78558 5 8.5 5ZM8.5 7C9.05228 7 9.5 7.44772 9.5 8V11H10.5C11.0523 11 11.5 11.4477 11.5 12C11.5 12.5523 11.0523 13 10.5 13H8.5C7.94771 13 7.5 12.5523 7.5 12V8C7.5 7.44772 7.94771 7 8.5 7Z" fill="#6080AF"/>
</svg>
