<svg width="1300" height="601" viewBox="0 0 1300 601" fill="none" xmlns="http://www.w3.org/2000/svg">
<path d="M-96.0002 74C-58.3701 128.976 63.8895 249.462 251.887 291.6C486.883 344.273 925.774 165.53 1158.47 194.025C1344.62 216.822 1486.39 304.84 1534 346" stroke="#6080AF" stroke-width="2" stroke-linejoin="round" stroke-dasharray="10 10"/>
<path d="M1550.13 261.963C1496.11 216.836 1339.26 126.201 1144.1 124.682C900.141 122.784 533.604 386.132 299.647 407.041C112.481 423.768 -52.7702 368.455 -112 338.708" stroke="#6080AF" stroke-width="2" stroke-linejoin="round" stroke-dasharray="10 10"/>
<path d="M-34.2426 90.0979C8.44668 76.9614 125.898 63.7756 254.189 116.124C414.552 181.56 694.715 449.659 930.879 469.677C1167.04 489.694 1322.61 368.896 1413.31 361.194C1485.86 355.033 1539.14 364.438 1556.71 369.911" stroke="#6080AF" stroke-width="2" stroke-linecap="round" stroke-linejoin="round" stroke-dasharray="10 10"/>
</svg>
