<svg width="50" height="48" viewBox="0 0 50 48" fill="none" xmlns="http://www.w3.org/2000/svg">
<path d="M3.23728 11.972L6.62346 15.6514M38.2441 20.5246L34.5712 23.9048M13.8256 12.4199C13.3765 11.9323 12.7524 11.6427 12.0906 11.6148C11.4288 11.5869 10.7834 11.823 10.2963 12.2713L2.94988 19.0322C2.46291 19.4804 2.17421 20.1039 2.14727 20.7657C2.12033 21.4275 2.35737 22.0732 2.80623 22.561L11.2711 31.7589L22.2904 21.6178L13.8256 12.4199ZM29.2252 8.43996L35.4333 2.72672C35.9205 2.2787 36.5659 2.04281 37.2278 2.07093C37.8896 2.09905 38.5135 2.38888 38.9625 2.87669L40.6556 4.71641L48.0293 22.9016C48.2204 23.3705 48.2646 23.8863 48.1561 24.3805C48.0475 24.8747 47.7913 25.324 47.4215 25.6689L25.7319 45.6297C25.3236 46.0281 24.7909 46.2744 24.2226 46.3276C23.6543 46.3807 23.0846 46.2375 22.6083 45.9219L9.69622 37.4202C9.3746 37.2075 9.10645 36.9233 8.91275 36.5898C8.71905 36.2564 8.60505 35.8828 8.57968 35.4982C8.55431 35.1137 8.61826 34.7286 8.76651 34.3731C8.91477 34.0177 9.14332 33.7015 9.43427 33.4493L29.6362 14.8575L28.5036 10.9731C28.3759 10.5252 28.3757 10.0507 28.5032 9.60307C28.6307 9.15548 28.8808 8.75263 29.2252 8.43996V8.43996Z" stroke="#6080AF" stroke-width="2.667" stroke-linecap="round" stroke-linejoin="round"/>
</svg>
