<svg width="262" height="270" viewBox="0 0 262 270" fill="none" xmlns="http://www.w3.org/2000/svg">
<path d="M40 46.1614C15.9323 69.7554 1 102.634 1 139C1 210.797 59.203 269 131 269C202.797 269 261 210.797 261 139C261 67.203 202.797 9 131 9C118.328 9 106.08 10.8131 94.5 14.194" stroke="#6080AF" stroke-width="2" stroke-linecap="round"/>
<path d="M70.8707 47.4284L75.2871 44.7672C75.6181 44.5655 75.8964 44.2878 76.0989 43.957C76.3014 43.6263 76.4223 43.2519 76.4516 42.8648L77.6041 26.2188L82.1248 23.4947C83.2349 22.8258 84.0333 21.7424 84.3443 20.4828C84.6553 19.2233 84.4534 17.8907 83.7831 16.7784V16.7784C83.4513 16.2274 83.0144 15.7472 82.4974 15.3649C81.9805 14.9827 81.3935 14.706 80.7701 14.5507C80.1467 14.3953 79.499 14.3644 78.8641 14.4596C78.2292 14.5548 77.6195 14.7743 77.0697 15.1056L72.549 17.8297L57.2933 11.0708C56.9373 10.9159 56.5499 10.8478 56.1628 10.8723C55.7758 10.8968 55.4002 11.013 55.0672 11.2115L50.6509 13.8727L60.3265 25.1947L54.0476 28.9781L48.3077 27.5485C47.6843 27.3964 47.0266 27.4951 46.4761 27.8235L41.0551 31.0901L50.2966 36.9566L51.1648 47.8675L56.5858 44.601C57.1336 44.268 57.5283 43.7325 57.6848 43.1101L59.1027 37.3673L65.3815 33.5838L70.8707 47.4284Z" stroke="#6080AF" stroke-width="2" stroke-linecap="round" stroke-linejoin="round"/>
</svg>
