<svg width="49" height="47" viewBox="0 0 49 47" fill="none" xmlns="http://www.w3.org/2000/svg">
<path d="M1.52687 32.7288L41.5503 6.23125M36.9083 28.4933L23.879 37.1193M16.3098 35.7347C15.43 36.3169 14.7426 37.147 14.3345 38.12C13.9265 39.093 13.8162 40.1651 14.0175 41.2007C14.2189 42.2364 14.7228 43.1891 15.4656 43.9383C16.2085 44.6876 17.1568 45.1997 18.1907 45.4099C19.2246 45.6201 20.2976 45.519 21.274 45.1193C22.2504 44.7197 23.0864 44.0395 23.6762 43.1647C24.266 42.2899 24.5831 41.2598 24.5875 40.2048C24.5918 39.1497 24.2831 38.1171 23.7006 37.2375C22.9198 36.0581 21.7024 35.2372 20.3164 34.9554C18.9304 34.6736 17.4891 34.9539 16.3098 35.7347V35.7347ZM38.5453 21.0136C37.6655 21.5959 36.9781 22.426 36.5701 23.3989C36.162 24.3719 36.0517 25.444 36.2531 26.4797C36.4544 27.5153 36.9583 28.468 37.7012 29.2172C38.444 29.9665 39.3923 30.4786 40.4262 30.6888C41.4601 30.899 42.5331 30.7979 43.5095 30.3983C44.486 29.9986 45.322 29.3184 45.9117 28.4436C46.5015 27.5688 46.8187 26.5387 46.823 25.4837C46.8273 24.4286 46.5187 23.396 45.9361 22.5164C45.1551 21.3372 43.9378 20.5165 42.5519 20.2347C41.1659 19.9529 39.7248 20.2331 38.5453 21.0136V21.0136ZM14.868 23.8963L28.2092 15.0638L19.3766 1.72263L6.03549 10.5552L14.868 23.8963Z" stroke="#6080AF" stroke-width="2.667" stroke-linecap="round" stroke-linejoin="round"/>
</svg>
