<svg width="51" height="47" viewBox="0 0 51 47" fill="none" xmlns="http://www.w3.org/2000/svg">
<path d="M16.0556 18.1178L18.4978 19.4419M34.1853 2.16269L48.8371 10.1065M39.0689 4.81045L33.667 14.774M42.3999 45.2921L3.32826 24.1085C2.68069 23.7574 2.20185 23.1584 1.99704 22.4431C1.79224 21.7278 1.87822 20.9548 2.2361 20.2942L10.3388 5.34939C10.697 4.68871 11.2978 4.19459 12.0091 3.97574C12.7204 3.75689 13.4839 3.83123 14.1316 4.18241L38.5515 17.4222C40.7963 18.6393 42.7746 20.2954 44.3734 22.2961C45.9722 24.2967 47.1603 26.6027 47.8697 29.0824C48.5791 31.562 48.796 34.1668 48.5081 36.7479C48.2201 39.329 47.4329 41.8359 46.1914 44.1255C45.8331 44.7858 45.2325 45.2795 44.5215 45.4983C43.8106 45.717 43.0475 45.6428 42.3999 45.2921V45.2921ZM38.5515 17.4222L33.667 14.774L29.6157 22.2464C29.2575 22.907 29.1712 23.6802 29.376 24.3957C29.5807 25.1112 30.0596 25.7104 30.7073 26.0616L48.5825 35.753C48.8123 32.0225 47.9919 28.3202 46.2164 25.0756C44.4409 21.831 41.7831 19.1772 38.5515 17.4222V17.4222Z" stroke="#6080AF" stroke-width="2.667" stroke-linecap="round" stroke-linejoin="round"/>
</svg>
