<svg width="46" height="40" viewBox="0 0 46 40" fill="none" xmlns="http://www.w3.org/2000/svg">
<path d="M30.8707 38.4284L35.2871 35.7672C35.6181 35.5655 35.8964 35.2878 36.0989 34.957C36.3014 34.6263 36.4223 34.2519 36.4516 33.8648L37.6041 17.2188L42.1248 14.4947C43.2349 13.8258 44.0333 12.7424 44.3443 11.4828C44.6553 10.2233 44.4534 8.89073 43.7831 7.77836V7.77836C43.4513 7.22745 43.0144 6.74716 42.4974 6.36494C41.9805 5.98271 41.3935 5.70602 40.7701 5.55068C40.1467 5.39535 39.499 5.3644 38.8641 5.4596C38.2292 5.55481 37.6195 5.77431 37.0697 6.10556L32.549 8.82966L17.2933 2.07077C16.9373 1.91587 16.5499 1.84784 16.1628 1.87231C15.7758 1.89677 15.4002 2.01303 15.0672 2.21148L10.6509 4.87267L20.3265 16.1947L14.0476 19.9781L8.30771 18.5485C7.68431 18.3964 7.02661 18.4951 6.47607 18.8235L1.05509 22.0901L10.2966 27.9566L11.1648 38.8675L16.5858 35.601C17.1336 35.268 17.5283 34.7325 17.6848 34.1101L19.1027 28.3673L25.3815 24.5838L30.8707 38.4284Z" stroke="#6080AF" stroke-width="2" stroke-linecap="round" stroke-linejoin="round"/>
</svg>
