<svg width="62" height="59" viewBox="0 0 62 59" fill="none" xmlns="http://www.w3.org/2000/svg">
<path d="M22.6069 51.2579L20.5832 52.5977C19.9936 52.9881 19.273 53.1283 18.58 52.9875C17.887 52.8468 17.2783 52.4365 16.8877 51.847L2.16661 29.6115C1.77614 29.0217 1.63596 28.301 1.77689 27.6078C1.91783 26.9147 2.32835 26.3059 2.91814 25.9154L34.6701 4.894C35.1356 4.58446 35.6866 4.42896 36.2452 4.44946C36.8039 4.46996 37.342 4.66542 37.7835 5.00825L49.3295 13.8977L49.8978 14.5133L57.0229 25.2755C57.413 25.8653 57.553 26.5858 57.4119 27.2788C57.2709 27.9718 56.8604 28.5803 56.2708 28.9707L54.2471 30.3105" stroke="#6080AF" stroke-width="2.667" stroke-linecap="round" stroke-linejoin="round"/>
<path d="M9.52687 40.7288L49.5503 14.2312M44.9083 36.4933L31.879 45.1193M24.3098 43.7347C23.43 44.3169 22.7426 45.147 22.3345 46.12C21.9265 47.093 21.8162 48.1651 22.0175 49.2007C22.2189 50.2364 22.7228 51.1891 23.4656 51.9383C24.2085 52.6876 25.1568 53.1997 26.1907 53.4099C27.2246 53.6201 28.2976 53.519 29.274 53.1193C30.2504 52.7197 31.0864 52.0395 31.6762 51.1647C32.266 50.2899 32.5831 49.2598 32.5875 48.2048C32.5918 47.1497 32.2831 46.1171 31.7006 45.2375C30.9198 44.0581 29.7024 43.2372 28.3164 42.9554C26.9304 42.6736 25.4891 42.9539 24.3098 43.7347V43.7347ZM46.5453 29.0136C45.6655 29.5959 44.9781 30.426 44.5701 31.3989C44.162 32.3719 44.0517 33.444 44.2531 34.4797C44.4544 35.5153 44.9583 36.468 45.7012 37.2172C46.444 37.9665 47.3923 38.4786 48.4262 38.6888C49.4601 38.899 50.5331 38.7979 51.5095 38.3983C52.486 37.9986 53.322 37.3184 53.9117 36.4436C54.5015 35.5688 54.8187 34.5387 54.823 33.4837C54.8273 32.4286 54.5187 31.396 53.9361 30.5164C53.1551 29.3372 51.9378 28.5165 50.5519 28.2347C49.1659 27.9529 47.7248 28.2331 46.5453 29.0136V29.0136ZM22.868 31.8963L36.2092 23.0638L27.3766 9.72263L14.0355 18.5552L22.868 31.8963Z" stroke="#6080AF" stroke-width="2.667" stroke-linecap="round" stroke-linejoin="round"/>
</svg>
