<svg width="116" height="116" viewBox="0 0 116 116" fill="none" xmlns="http://www.w3.org/2000/svg">
<path d="M82.4452 58L45.7786 82.4452V33.5571L82.4452 58ZM58 3C47.122 3 36.4884 6.22569 27.4437 12.2692C18.399 18.3126 11.3495 26.9025 7.18665 36.9524C3.02383 47.0023 1.93465 58.061 4.05683 68.73C6.17902 79.3989 11.4173 89.199 19.1091 96.8909C26.801 104.583 36.6011 109.821 47.27 111.943C57.939 114.065 68.9977 112.976 79.0476 108.813C89.0975 104.651 97.6873 97.6011 103.731 88.5564C109.774 79.5116 113 68.878 113 58C113 43.4131 107.205 29.4236 96.8909 19.1091C86.5764 8.79462 72.5869 3 58 3Z" stroke="#D1DCF1" stroke-width="6" stroke-linecap="round" stroke-linejoin="round"/>
</svg>
