<svg width="54" height="54" viewBox="0 0 54 54" fill="none" xmlns="http://www.w3.org/2000/svg">
<path fill-rule="evenodd" clip-rule="evenodd" d="M27 51C40.2548 51 51 40.2548 51 27C51 13.7452 40.2548 3 27 3C13.7452 3 3 13.7452 3 27C3 40.2548 13.7452 51 27 51ZM27 54C41.9117 54 54 41.9117 54 27C54 12.0883 41.9117 0 27 0C12.0883 0 0 12.0883 0 27C0 41.9117 12.0883 54 27 54Z" fill="#6080AF"/>
<path fill-rule="evenodd" clip-rule="evenodd" d="M27 9.5C25.2761 9.5 23.6228 10.1848 22.4038 11.4038C21.1848 12.6228 20.5 14.2761 20.5 16V28C20.5 29.7239 21.1848 31.3772 22.4038 32.5962C23.6228 33.8152 25.2761 34.5 27 34.5C28.7239 34.5 30.3772 33.8152 31.5962 32.5962C32.8152 31.3772 33.5 29.7239 33.5 28V16C33.5 14.2761 32.8152 12.6228 31.5962 11.4038C30.3772 10.1848 28.7239 9.5 27 9.5ZM28.5 37.3809C30.4638 37.0669 32.2934 36.1416 33.7175 34.7175C35.4991 32.9359 36.5 30.5196 36.5 28V16C36.5 13.4804 35.4991 11.0641 33.7175 9.28249C31.9359 7.50089 29.5196 6.5 27 6.5C24.4804 6.5 22.0641 7.50089 20.2825 9.28249C18.5009 11.0641 17.5 13.4804 17.5 16V28C17.5 30.5196 18.5009 32.9359 20.2825 34.7175C21.7066 36.1416 23.5362 37.0669 25.5 37.3809V42.5H21C20.1716 42.5 19.5 43.1716 19.5 44C19.5 44.8284 20.1716 45.5 21 45.5H33C33.8284 45.5 34.5 44.8284 34.5 44C34.5 43.1716 33.8284 42.5 33 42.5H28.5V37.3809Z" fill="#6080AF"/>
</svg>
