<svg width="54" height="54" viewBox="0 0 54 54" fill="none" xmlns="http://www.w3.org/2000/svg">
<path fill-rule="evenodd" clip-rule="evenodd" d="M27 51C40.2548 51 51 40.2548 51 27C51 13.7452 40.2548 3 27 3C13.7452 3 3 13.7452 3 27C3 40.2548 13.7452 51 27 51ZM27 54C41.9117 54 54 41.9117 54 27C54 12.0883 41.9117 0 27 0C12.0883 0 0 12.0883 0 27C0 41.9117 12.0883 54 27 54Z" fill="#6080AF"/>
<path fill-rule="evenodd" clip-rule="evenodd" d="M33.5 16C33.5 15.1716 34.1716 14.5 35 14.5H44.1C44.5418 14.5 44.9801 14.585 45.39 14.751C45.8 14.917 46.1748 15.1612 46.492 15.4713C46.8093 15.7814 47.0628 16.1514 47.2365 16.5612C47.4101 16.971 47.5 17.4115 47.5 17.8572V23.4286C47.5 23.8742 47.4101 24.3147 47.2365 24.7245C47.0628 25.1343 46.8093 25.5043 46.492 25.8145C46.1748 26.1245 45.8 26.3687 45.39 26.5347C44.9801 26.7007 44.5418 26.7857 44.1 26.7857H36.8469L29.5586 30.3477C29.0937 30.5749 28.5446 30.5464 28.1056 30.2724C27.6667 29.9984 27.4 29.5174 27.4 29V26.4414C27.0717 26.2821 26.7702 26.0708 26.508 25.8145C26.1907 25.5043 25.9372 25.1343 25.7635 24.7245C25.5898 24.3147 25.5 23.8742 25.5 23.4286V19.7143C25.5 18.8859 26.1716 18.2143 27 18.2143C27.8284 18.2143 28.5 18.8859 28.5 19.7143V23.4286C28.5 23.4707 28.5084 23.5132 28.5257 23.554C28.5431 23.5949 28.5694 23.6343 28.605 23.6691C28.6406 23.7039 28.6848 23.7333 28.7358 23.754C28.7869 23.7747 28.8428 23.7857 28.9 23.7857C29.2978 23.7857 29.6794 23.9438 29.9607 24.2251C30.242 24.5064 30.4 24.8879 30.4 25.2857V26.5974L35.8414 23.9381C36.0465 23.8378 36.2717 23.7857 36.5 23.7857H44.1C44.1572 23.7857 44.2131 23.7747 44.2642 23.754C44.3152 23.7333 44.3594 23.7039 44.395 23.6691C44.4306 23.6343 44.4569 23.5949 44.4743 23.554C44.4916 23.5132 44.5 23.4707 44.5 23.4286V17.8571C44.5 17.8151 44.4916 17.7725 44.4743 17.7317C44.4569 17.6908 44.4306 17.6514 44.395 17.6166C44.3594 17.5818 44.3152 17.5524 44.2642 17.5317C44.2131 17.5111 44.1572 17.5 44.1 17.5H35C34.1716 17.5 33.5 16.8284 33.5 16Z" fill="#6080AF"/>
<path fill-rule="evenodd" clip-rule="evenodd" d="M12.4763 9.47631C13.1014 8.85119 13.9493 8.5 14.8333 8.5H33.1667C33.6044 8.5 34.0379 8.58622 34.4423 8.75374C34.8467 8.92125 35.2142 9.16678 35.5237 9.47631C35.8332 9.78585 36.0788 10.1533 36.2463 10.5577C36.4138 10.9621 36.5 11.3956 36.5 11.8333V17.3333C36.5 17.7711 36.4138 18.2045 36.2463 18.6089C36.0788 19.0134 35.8332 19.3808 35.5237 19.6904C35.2142 19.9999 34.8467 20.2454 34.4423 20.4129C34.0379 20.5805 33.6044 20.6667 33.1667 20.6667H14.8333C13.9493 20.6667 13.1014 20.3155 12.4763 19.6904C11.8512 19.0652 11.5 18.2174 11.5 17.3333V11.8333C11.5 10.9493 11.8512 10.1014 12.4763 9.47631ZM14.8333 11.5C14.7449 11.5 14.6601 11.5351 14.5976 11.5976C14.5351 11.6601 14.5 11.7449 14.5 11.8333V17.3333C14.5 17.4217 14.5351 17.5065 14.5976 17.569C14.6601 17.6316 14.7449 17.6667 14.8333 17.6667H33.1667C33.2104 17.6667 33.2538 17.658 33.2942 17.6413C33.3347 17.6245 33.3714 17.6 33.4024 17.569C33.4333 17.5381 33.4579 17.5013 33.4746 17.4609C33.4914 17.4205 33.5 17.3771 33.5 17.3333V11.8333C33.5 11.7896 33.4914 11.7462 33.4746 11.7058C33.4579 11.6653 33.4333 11.6286 33.4024 11.5976C33.3714 11.5667 33.3347 11.5421 33.2942 11.5254C33.2538 11.5086 33.2104 11.5 33.1667 11.5H14.8333ZM15.6296 27.7041C16.4792 27.1364 17.4781 26.8333 18.5 26.8333C19.8703 26.8333 21.1844 27.3777 22.1534 28.3466C23.1223 29.3156 23.6667 30.6297 23.6667 32C23.6667 33.0219 23.3637 34.0208 22.7959 34.8705C22.68 35.0439 22.5542 35.2095 22.4192 35.3667C22.7864 35.6148 23.1318 35.899 23.4497 36.2169C24.7625 37.5297 25.5 39.3102 25.5 41.1667V43C25.5 43.8284 24.8284 44.5 24 44.5H13C12.1716 44.5 11.5 43.8284 11.5 43V41.1667C11.5 39.3102 12.2375 37.5297 13.5503 36.2169C13.8682 35.899 14.2136 35.6148 14.5808 35.3667C14.003 34.694 13.6065 33.882 13.4326 33.008C13.2332 32.0057 13.3356 30.9669 13.7266 30.0228C14.1177 29.0787 14.7799 28.2718 15.6296 27.7041ZM18.4954 34.1667C18.3557 34.1664 18.2157 34.1526 18.0773 34.125C17.657 34.0414 17.2709 33.8351 16.9679 33.5321C16.6649 33.2291 16.4586 32.843 16.375 32.4227C16.2914 32.0024 16.3343 31.5668 16.4983 31.1709C16.6622 30.775 16.94 30.4366 17.2963 30.1985C17.6526 29.9604 18.0715 29.8333 18.5 29.8333C19.0746 29.8333 19.6257 30.0616 20.0321 30.4679C20.4384 30.8743 20.6667 31.4254 20.6667 32C20.6667 32.4285 20.5396 32.8474 20.3015 33.2037C20.0634 33.5601 19.7251 33.8378 19.3292 34.0017C19.0673 34.1102 18.7881 34.1657 18.5074 34.1667M18.5 34.1667C18.4985 34.1667 18.4969 34.1667 18.4954 34.1667L18.5 34.1667ZM18.4941 37.1667C17.4354 37.1682 16.4203 37.5895 15.6716 38.3382C14.9214 39.0884 14.5 40.1058 14.5 41.1667V41.5H22.5V41.1667C22.5 40.1058 22.0786 39.0884 21.3284 38.3382C20.5797 37.5895 19.5646 37.1682 18.5058 37.1667C18.5019 37.1667 18.498 37.1667 18.4941 37.1667Z" fill="#6080AF"/>
</svg>
