<svg width="54" height="54" viewBox="0 0 54 54" fill="none" xmlns="http://www.w3.org/2000/svg">
<path fill-rule="evenodd" clip-rule="evenodd" d="M27 50.0182C40.307 50.0182 51 39.4411 51 26.5091C51 13.577 40.307 3 27 3C13.693 3 3 13.577 3 26.5091C3 39.4411 13.693 50.0182 27 50.0182ZM27 53.0182C41.9117 53.0182 54 41.1497 54 26.5091C54 11.8685 41.9117 0 27 0C12.0883 0 0 11.8685 0 26.5091C0 41.1497 12.0883 53.0182 27 53.0182Z" fill="#6080AF"/>
<path fill-rule="evenodd" clip-rule="evenodd" d="M25.9734 18.6643C25.8092 18.6575 25.6501 18.7047 25.5213 18.7944C25.3932 18.8836 25.3041 19.0083 25.2618 19.145C25.2618 19.1452 25.2619 19.1448 25.2618 19.145L19.1011 39.2718C18.9284 39.8358 18.4409 40.2462 17.8554 40.3204C17.27 40.3946 16.6953 40.1189 16.3873 39.6158L10.398 29.8366C10.3384 29.7378 10.2515 29.6528 10.1435 29.5923C10.0353 29.5319 9.91094 29.4991 9.78292 29.499C9.78283 29.499 9.783 29.499 9.78292 29.499H6.625C5.79657 29.499 5.125 28.8279 5.125 28C5.125 27.1722 5.79657 26.5011 6.625 26.5011H9.78292C10.4213 26.5012 11.0504 26.6642 11.6081 26.976C12.1645 27.287 12.6324 27.7364 12.9635 28.2826C12.9644 28.284 12.9653 28.2854 12.9661 28.2868L17.2068 35.2111L22.3942 18.2644C22.6356 17.4802 23.1343 16.8027 23.8057 16.3351C24.4669 15.8745 25.2601 15.6417 26.0637 15.6677H46.375C47.2034 15.6677 47.875 16.3389 47.875 17.1667C47.875 17.9945 47.2034 18.6657 46.375 18.6657H26.0362C26.0153 18.6657 25.9943 18.6652 25.9734 18.6643ZM29.8463 26.9499C30.4267 26.3592 31.3764 26.3505 31.9676 26.9304L35.3333 30.2327L38.6991 26.9304C39.2902 26.3505 40.24 26.3592 40.8203 26.9499C41.4007 27.5406 41.392 28.4896 40.8009 29.0696L37.4744 32.3334L40.8009 35.5971C41.392 36.1771 41.4007 37.1261 40.8203 37.7169C40.24 38.3076 39.2902 38.3163 38.6991 37.7363L35.3333 34.434L31.9676 37.7363C31.3764 38.3163 30.4267 38.3076 29.8463 37.7169C29.2659 37.1261 29.2746 36.1771 29.8658 35.5971L33.1923 32.3334L29.8658 29.0696C29.2746 28.4896 29.2659 27.5406 29.8463 26.9499Z" fill="#6080AF"/>
</svg>
