<svg width="360" height="186" viewBox="0 0 360 186" fill="none" xmlns="http://www.w3.org/2000/svg">
<path fill-rule="evenodd" clip-rule="evenodd" d="M70.3083 134.009C70.3004 134.007 70.2925 134.005 70.2845 134.003C70.0326 133.939 69.7657 133.977 69.5404 134.107L65.1069 136.668C64.8774 136.801 64.7097 137.019 64.6411 137.275L62.3292 145.904L61.4784 144.938L61.4767 144.936C61.1343 144.55 60.6921 144.265 60.1985 144.113C59.7049 143.961 59.1791 143.948 58.6787 144.076C58.1782 144.203 57.7226 144.466 57.3619 144.836C57.0058 145.201 56.7557 145.655 56.6382 146.151L52.3641 162.104C52.1715 162.824 52.2726 163.591 52.6454 164.236C53.0182 164.882 53.632 165.353 54.3519 165.545L82.3347 173.043C83.0547 173.236 83.8217 173.135 84.4672 172.762C85.1127 172.39 85.5839 171.776 85.777 171.056L90.0742 155.017L90.0756 155.012C90.2038 154.523 90.1976 154.007 90.0574 153.521C89.9173 153.035 89.6485 152.596 89.2794 152.25C88.9104 151.903 88.4547 151.663 87.9605 151.555C87.4663 151.446 86.952 151.473 86.4717 151.632L85.2456 152.051L88.0277 141.667C88.1233 141.31 88.1476 140.938 88.0995 140.572C88.0513 140.206 87.9315 139.853 87.7469 139.534C87.5623 139.214 87.3166 138.934 87.0237 138.709C86.7309 138.484 86.3966 138.319 86.0401 138.224L70.3083 134.009ZM66.3142 138.759L68.8459 139.437C69.1021 139.506 69.3751 139.47 69.6047 139.337C69.8344 139.205 70.002 138.986 70.0706 138.73L70.7491 136.198L85.5225 140.156C85.6253 140.183 85.7218 140.231 85.8062 140.296C85.8907 140.361 85.9616 140.441 86.0149 140.534C86.0681 140.626 86.1027 140.728 86.1166 140.833C86.1305 140.939 86.1234 141.046 86.0959 141.149L82.9664 152.829L72.2514 156.49C72.1043 156.53 71.949 156.527 71.8031 156.482C71.6515 156.436 71.5169 156.346 71.4159 156.223C71.4126 156.219 71.4092 156.215 71.4058 156.211C71.4024 156.207 71.3989 156.203 71.3954 156.199L63.9167 147.707L66.3142 138.759ZM68.1975 137.193L68.3976 137.247L68.4512 137.046L68.1975 137.193ZM61.8719 148.411L59.9792 146.262C59.979 146.262 59.9787 146.262 59.9785 146.261C59.8799 146.15 59.7527 146.068 59.6107 146.025C59.4684 145.981 59.3168 145.977 59.1725 146.014C59.0283 146.051 58.8969 146.127 58.7929 146.233C58.6889 146.34 58.6163 146.473 58.5829 146.618C58.5802 146.63 58.5773 146.641 58.5742 146.653L54.296 162.621C54.296 162.621 54.2961 162.621 54.296 162.621C54.2406 162.828 54.2697 163.05 54.3772 163.236C54.4847 163.422 54.6618 163.558 54.8695 163.614L82.8523 171.111C83.06 171.167 83.2813 171.137 83.4675 171.03C83.6536 170.923 83.7895 170.746 83.8453 170.538C83.8453 170.538 83.8452 170.538 83.8453 170.538L88.1409 154.505C88.1411 154.505 88.1412 154.504 88.1414 154.503C88.1779 154.363 88.1759 154.215 88.1357 154.075C88.0952 153.935 88.0177 153.808 87.9112 153.708C87.8048 153.608 87.6733 153.539 87.5307 153.508C87.3894 153.477 87.2422 153.484 87.1047 153.529C87.1035 153.529 87.1024 153.53 87.1013 153.53L84.3589 154.467C84.281 154.522 84.1945 154.567 84.1017 154.598L72.8724 158.392L72.8691 158.393L72.864 158.395C72.3425 158.568 71.7817 158.584 71.2509 158.442C70.7201 158.3 70.2426 158.005 69.8775 157.594L69.8739 157.59L62.0446 148.688C61.9712 148.605 61.9133 148.511 61.8719 148.411Z" fill="#6080AF"/>
<path d="M-334.019 7.59265C-313.448 2.3867 -256.75 -2.5086 -194.524 19.5578C-137.686 39.7135 -39.9569 108.905 48.0003 146M436.024 129.549C450.001 125.334 409.001 116 366.688 125.334C323.839 134.787 256.711 177.266 142.5 168C135.399 167.424 101.754 161.32 94.5002 160" stroke="#6080AF" stroke-width="2" stroke-linecap="round" stroke-linejoin="round" stroke-dasharray="10 10"/>
</svg>
