<svg width="325" height="105" viewBox="0 0 325 105" fill="none" xmlns="http://www.w3.org/2000/svg">
<path d="M1 104C12.3138 92.6863 23.8922 82.0399 36.5 72.1411M324 10.0002C307.667 5.66684 247.386 -4.29662 190 7C161.702 12.5705 137.575 19.4015 116.5 27.3759" stroke="#3E638C" stroke-linecap="round" stroke-linejoin="round" stroke-dasharray="10 10"/>
<path d="M97.8684 47.9679L109.231 48.8278C109.911 48.8821 110.593 48.7618 111.213 48.4783C111.833 48.1948 112.37 47.7576 112.774 47.2082C113.177 46.6587 113.434 46.0152 113.519 45.3388C113.604 44.6624 113.515 43.9754 113.26 43.3432L104.211 21.1143C103.952 20.4839 103.536 19.9302 103.002 19.5056C102.469 19.0811 101.836 18.7999 101.164 18.6887C100.491 18.5774 99.8015 18.6399 99.1599 18.87C98.5183 19.1002 97.9462 19.4905 97.4978 20.0039L89.966 28.5552L97.8684 47.9679ZM99.2603 61.998L54.8027 80.0954C53.8202 80.4953 52.7191 80.4887 51.7415 80.0769C50.764 79.6652 49.9899 78.8821 49.5896 77.8998L34.5083 40.8513C34.1083 39.8686 34.115 38.7672 34.527 37.7895C34.939 36.8117 35.7226 36.0377 36.7053 35.6377L81.1629 17.5403C82.1456 17.1403 83.247 17.147 84.2247 17.559C85.2025 17.971 85.9765 18.7546 86.3765 19.7373L101.458 56.7858C101.857 57.7684 101.85 58.8695 101.438 59.8469C101.026 60.8243 100.243 61.5981 99.2603 61.998ZM71.6881 47.3095L62.0154 44.7689L66.5397 55.8834L71.6881 47.3095Z" stroke="#3E638C" stroke-width="3" stroke-linecap="round" stroke-linejoin="round"/>
</svg>
