<svg width="176" height="90" viewBox="0 0 176 90" fill="none" xmlns="http://www.w3.org/2000/svg">
<path d="M1 40.9997C13.2209 37.7408 33.146 34.7136 54.5 34.6155M175 88.9998C169.576 82.2192 158.43 68.8999 129 52.3668" stroke="#3E638C" stroke-linecap="round" stroke-linejoin="round" stroke-dasharray="10 10"/>
<path d="M95.144 42.8103L119.204 34.5894C119.727 34.416 120.287 34.387 120.825 34.5054C121.363 34.6237 121.859 34.8852 122.261 35.262C122.663 35.6389 122.955 36.1172 123.108 36.6466C123.261 37.1759 123.267 37.7366 123.128 38.2695L115.866 65.3731C115.656 66.1569 115.143 66.825 114.44 67.2305C113.737 67.6361 112.902 67.746 112.118 67.536L64.8295 54.8661C64.0458 54.6561 63.3775 54.1435 62.9716 53.4408C62.5657 52.7382 62.4555 51.9031 62.6652 51.1193L69.8952 24.1343C70.021 23.5864 70.2953 23.0837 70.688 22.6815C71.0807 22.2793 71.5766 21.9931 72.1214 21.8543C72.6661 21.7155 73.2385 21.7294 73.7758 21.8946C74.3132 22.0599 74.7946 22.3699 75.1672 22.7908L91.9261 41.821C92.3071 42.2823 92.815 42.6219 93.3869 42.7977C93.9588 42.9735 94.5697 42.9779 95.144 42.8103V42.8103ZM91.8921 41.939C92.2897 42.3861 92.8096 42.7069 93.3875 42.8618C93.9655 43.0166 94.5761 42.9987 95.144 42.8103L114.126 36.3971L119.669 15.7075C119.773 15.3193 119.8 14.9145 119.748 14.516C119.695 14.1176 119.565 13.7334 119.364 13.3854C119.163 13.0373 118.895 12.7323 118.576 12.4876C118.258 12.243 117.894 12.0636 117.505 11.9596L90.9051 4.83263L83.4125 9.1615L78.6612 26.8951L91.8921 41.939ZM83.4125 9.1615L89.3233 10.7452L90.9073 4.83322L83.4125 9.1615Z" stroke="#3E638C" stroke-width="3" stroke-linecap="round" stroke-linejoin="round"/>
</svg>
