<svg width="360" height="185" viewBox="0 0 360 185" fill="none" xmlns="http://www.w3.org/2000/svg">
<path d="M-342.019 7.59265C-321.448 2.3867 -264.75 -2.5086 -202.524 19.5578C-145.686 39.7135 -45.457 108.405 42.5001 145.5M428.024 129.549C442.001 125.334 401.001 116 358.688 125.334C315.839 134.787 250.087 166.5 135.5 166.5C125.459 166.5 96.254 162.821 89.0001 161.5" stroke="#6080AF" stroke-width="2" stroke-linecap="round" stroke-linejoin="round" stroke-dasharray="10 10"/>
<path fill-rule="evenodd" clip-rule="evenodd" d="M73.0542 136.731C70.0941 135.798 66.9216 135.757 63.9384 136.615C60.9552 137.472 58.296 139.189 56.2966 141.546C54.2973 143.903 53.0474 146.795 52.7038 149.857C52.3603 152.918 52.9385 156.012 54.3658 158.748C54.7219 159.43 55.1268 160.083 55.5763 160.701C55.6517 160.775 55.714 160.859 55.7619 160.951C57.0877 162.7 58.7764 164.16 60.7253 165.227C63.4447 166.715 66.548 167.37 69.6426 167.107C70.8261 167.006 71.9879 166.773 73.1071 166.416C73.1987 166.369 73.298 166.336 73.4019 166.319C75.0988 165.74 76.6922 164.874 78.1079 163.75C80.5325 161.825 82.3269 159.23 83.2653 156.294C84.5234 152.356 84.1553 148.084 82.2414 144.416C80.3274 140.747 77.0234 137.982 73.0542 136.731ZM74.4646 168.064C76.2208 167.416 77.8719 166.491 79.3515 165.316C82.0854 163.146 84.1108 160.218 85.1704 156.902L85.1704 156.902C86.5911 152.456 86.1751 147.632 84.0146 143.491C81.8542 139.35 78.1273 136.233 73.6555 134.823L73.6554 134.823C70.3205 133.772 66.7468 133.727 63.3859 134.693C60.025 135.659 57.0269 137.593 54.7714 140.252C52.5158 142.912 51.1043 146.176 50.7163 149.634C50.3283 153.091 50.9815 156.585 52.5926 159.673C52.9253 160.31 53.2957 160.925 53.7011 161.513L48.1108 172.377C47.9602 172.669 47.9633 173.018 48.1192 173.308C48.275 173.598 48.5637 173.792 48.891 173.828L60.7814 175.132L71.2524 180.877C71.54 181.034 71.8866 181.041 72.18 180.895C72.4734 180.748 72.6764 180.467 72.7232 180.143L74.4646 168.064ZM72.3526 168.697C71.52 168.891 70.671 169.026 69.812 169.099C66.3262 169.396 62.8299 168.659 59.765 166.981C57.984 166.007 56.3951 164.74 55.0602 163.243L50.5546 171.999L61.1971 173.166C61.3276 173.18 61.454 173.22 61.5691 173.283L70.9495 178.429L72.3526 168.697ZM64.5543 144.383C65.9859 143.646 67.6047 143.348 69.2063 143.525C70.8079 143.702 72.3215 144.347 73.5553 145.38C74.7892 146.412 75.6881 147.785 76.1373 149.326C76.5864 150.868 76.5653 152.507 76.0765 154.036C75.4211 156.087 73.9731 157.793 72.0533 158.781C70.1337 159.768 67.8984 159.958 65.8385 159.309C64.3021 158.825 62.9438 157.898 61.9358 156.646C60.9279 155.394 60.3158 153.872 60.178 152.273C60.0403 150.674 60.3831 149.071 61.1625 147.667C61.9419 146.262 63.1226 145.12 64.5543 144.383ZM68.9863 145.513C67.7749 145.379 66.5509 145.605 65.4694 146.161C64.3879 146.718 63.4981 147.58 62.9113 148.637C62.3247 149.694 62.0671 150.9 62.1707 152.102C62.2742 153.304 62.7343 154.449 63.4938 155.392C64.2533 156.336 65.2783 157.035 66.4397 157.401C67.9974 157.892 69.6877 157.749 71.1382 157.002C72.5884 156.256 73.6786 154.969 74.1714 153.427C74.539 152.277 74.5549 151.045 74.2171 149.886C73.8794 148.727 73.2029 147.692 72.272 146.914C71.3411 146.135 70.1977 145.647 68.9863 145.513Z" fill="#6080AF"/>
</svg>
