<svg width="117" height="155" viewBox="0 0 117 155" fill="none" xmlns="http://www.w3.org/2000/svg">
<path d="M76.3339 134.249L73.7354 152.398L58.6203 144.048L41.4566 142.153L49.8001 125.827" stroke="#3E638C" stroke-width="3" stroke-linecap="round" stroke-linejoin="round"/>
<path d="M91.4618 118.94C90.0433 123.409 87.3315 127.357 83.6692 130.285C80.0069 133.213 75.5586 134.989 70.8869 135.389C66.2152 135.788 61.5299 134.794 57.4234 132.531C53.3169 130.268 49.9737 126.838 47.8166 122.675C45.6595 118.511 44.7853 113.802 45.3046 109.142C45.8239 104.482 47.7134 100.081 50.7342 96.4949C53.7549 92.9088 57.7712 90.299 62.2751 88.9955C66.7791 87.692 71.5684 87.7534 76.0375 89.1718C82.0302 91.0742 87.0217 95.2791 89.9143 100.862C92.8069 106.444 93.3635 112.947 91.4618 118.94V118.94ZM78.5495 114.841C79.1574 112.926 79.1837 110.874 78.6251 108.943C78.0665 107.013 76.948 105.292 75.4112 103.997C73.8743 102.703 71.9881 101.893 69.991 101.67C67.9939 101.448 65.9757 101.823 64.1915 102.747C62.4073 103.671 60.9374 105.104 59.9675 106.864C58.9976 108.624 58.5714 110.632 58.7428 112.634C58.9141 114.636 59.6753 116.543 60.93 118.112C62.1848 119.682 63.8768 120.844 65.7921 121.452C68.3604 122.267 71.1474 122.028 73.5399 120.789C75.9323 119.549 77.7344 117.41 78.5495 114.841Z" stroke="#3E638C" stroke-width="3" stroke-linecap="round" stroke-linejoin="round"/>
<path d="M1 1C4.69739 20.9009 20.4882 61.8955 45.1988 92M116 147C113.081 145.981 104.294 142.116 91.6419 133.5" stroke="#3E638C" stroke-linecap="round" stroke-linejoin="round" stroke-dasharray="10 10"/>
</svg>
