<svg width="360" height="190" viewBox="0 0 360 190" fill="none" xmlns="http://www.w3.org/2000/svg">
<path d="M667.716 7.59265C647.145 2.3867 590.447 -2.5086 528.221 19.5578C471.383 39.7135 381.457 102.905 293.5 140M-102.327 129.549C-116.304 125.334 -75.3037 116 -32.9914 125.334C9.85791 134.787 78.7885 180.766 193 171.5C200.101 170.924 231.246 162.821 238.5 161.5" stroke="#6080AF" stroke-width="2" stroke-linecap="round" stroke-linejoin="round" stroke-dasharray="10 10"/>
<path fill-rule="evenodd" clip-rule="evenodd" d="M270.605 137.104C270.285 136.968 269.924 136.965 269.602 137.098L243.825 147.702C243.503 147.835 243.243 148.093 243.105 148.423C242.967 148.753 242.965 149.126 243.099 149.458L251.843 171.167C251.843 171.167 251.843 171.166 251.843 171.167C251.977 171.498 252.234 171.76 252.555 171.896C252.875 172.032 253.235 172.035 253.557 171.902L279.334 161.298C279.657 161.165 279.917 160.907 280.055 160.577C280.192 160.247 280.195 159.875 280.061 159.542M280.061 159.542L277.98 154.376C277.98 154.376 277.981 154.377 277.98 154.376L271.317 137.834C271.183 137.502 270.926 137.241 270.605 137.104M274.644 140.74L273.172 137.087C272.842 136.267 272.202 135.61 271.389 135.264C270.576 134.918 269.659 134.912 268.841 135.248L243.065 145.852C242.247 146.188 241.599 146.837 241.259 147.653C240.919 148.468 240.914 149.386 241.244 150.206L249.988 171.914C250.318 172.734 250.959 173.39 251.771 173.736C252.585 174.082 253.501 174.088 254.318 173.752L280.095 163.148C280.912 162.812 281.56 162.163 281.9 161.347C282.24 160.532 282.246 159.615 281.917 158.796L280.437 155.122L285.415 155.503C285.416 155.503 285.417 155.503 285.418 155.503C285.983 155.548 286.55 155.447 287.064 155.209C287.58 154.971 288.025 154.604 288.359 154.145C288.693 153.685 288.904 153.148 288.974 152.585C289.044 152.021 288.971 151.449 288.76 150.921L283.513 137.894L283.511 137.89C283.297 137.364 282.953 136.901 282.511 136.545C282.069 136.19 281.543 135.953 280.983 135.86C280.423 135.766 279.849 135.819 279.316 136.012C278.783 136.205 278.309 136.532 277.938 136.961C277.937 136.962 277.937 136.962 277.936 136.963L274.644 140.74ZM275.482 142.822L279.603 153.052L285.572 153.509L285.576 153.509C285.798 153.527 286.022 153.487 286.225 153.393C286.429 153.299 286.607 153.153 286.741 152.969C286.875 152.784 286.961 152.567 286.99 152.338C287.018 152.109 286.988 151.877 286.903 151.664C286.903 151.664 286.903 151.663 286.903 151.663L281.659 138.644C281.659 138.643 281.658 138.643 281.658 138.642C281.571 138.43 281.433 138.245 281.258 138.104C281.081 137.962 280.873 137.869 280.653 137.832C280.433 137.795 280.208 137.816 279.997 137.892C279.787 137.969 279.598 138.098 279.449 138.27L279.447 138.274L275.482 142.822ZM257.371 151.465C257.621 151.182 258.011 151.064 258.376 151.161L263.985 152.65C264.288 152.73 264.536 152.948 264.654 153.238C264.772 153.528 264.748 153.858 264.588 154.127L261.603 159.151C261.409 159.478 261.046 159.666 260.667 159.637C260.287 159.608 259.958 159.366 259.816 159.014L257.192 152.501C257.051 152.15 257.12 151.749 257.371 151.465ZM259.794 153.606L260.916 156.392L262.192 154.243L259.794 153.606Z" fill="#6080AF"/>
</svg>
