<svg width="199" height="198" viewBox="0 0 199 198" fill="none" xmlns="http://www.w3.org/2000/svg">
<path fill-rule="evenodd" clip-rule="evenodd" d="M99.5839 2.94688C97.2829 2.94688 95.0009 3.02759 92.7406 3.18633C92.0795 3.23276 91.506 2.73446 91.4595 2.07334C91.4131 1.41223 91.9114 0.838655 92.5725 0.792226C94.8887 0.629564 97.2268 0.546875 99.5839 0.546875C101.131 0.546875 102.67 0.582495 104.2 0.652968C104.862 0.683465 105.374 1.24488 105.343 1.90692C105.313 2.56896 104.751 3.08092 104.089 3.05043C102.596 2.98165 101.094 2.94688 99.5839 2.94688ZM112.037 2.52766C112.129 1.87133 112.736 1.41379 113.392 1.50573C116.464 1.93602 119.491 2.50779 122.466 3.21427C123.11 3.36741 123.509 4.01427 123.356 4.65908C123.203 5.30388 122.556 5.70246 121.911 5.54931C119.009 4.86015 116.056 4.30234 113.059 3.88252C112.403 3.79059 111.946 3.184 112.037 2.52766ZM80.1132 3.68461C80.253 4.33246 79.841 4.97091 79.1932 5.11063C76.9513 5.59415 74.7384 6.15577 72.5576 6.79249C71.9214 6.97823 71.2551 6.61308 71.0694 5.9769C70.8837 5.34072 71.2488 4.67442 71.885 4.48867C74.1206 3.83595 76.389 3.26023 78.6872 2.76457C79.3351 2.62485 79.9735 3.03676 80.1132 3.68461ZM129.816 6.51905C130.029 5.89153 130.711 5.55567 131.338 5.76887C134.266 6.7638 137.133 7.89251 139.93 9.1477C140.535 9.41901 140.805 10.1291 140.534 10.7338C140.263 11.3385 139.553 11.6087 138.948 11.3374C136.219 10.1129 133.423 9.01183 130.566 8.04129C129.938 7.82809 129.603 7.14656 129.816 6.51905ZM146.531 13.771C146.858 13.1945 147.59 12.992 148.167 13.3189C150.851 14.8405 153.457 16.4842 155.976 18.2425C156.52 18.6218 156.653 19.3698 156.274 19.9133C155.894 20.4568 155.146 20.59 154.603 20.2107C152.144 18.495 149.602 16.8913 146.983 15.4067C146.407 15.0799 146.204 14.3476 146.531 13.771ZM161.601 24.0133C162.029 23.5075 162.787 23.4445 163.293 23.8728C164.468 24.8675 165.619 25.8893 166.746 26.9372C167.231 27.3884 167.259 28.1477 166.808 28.6331C166.356 29.1184 165.597 29.1461 165.112 28.6948C164.012 27.6723 162.888 26.6752 161.742 25.7045C161.236 25.2763 161.173 24.5191 161.601 24.0133Z" fill="#6080AF"/>
<path fill-rule="evenodd" clip-rule="evenodd" d="M165.087 27.0327C165.519 26.5676 166.247 26.5411 166.712 26.9736C186.075 44.9768 198.19 70.6757 198.19 99.2026C198.19 153.661 154.042 197.808 99.5839 197.808C45.1254 197.808 0.978027 153.661 0.978027 99.2026C0.978027 71.6189 12.3056 46.6788 30.5597 28.7839C31.0133 28.3393 31.7414 28.3465 32.186 28.8001C32.6306 29.2536 32.6234 29.9817 32.1698 30.4263C14.3388 47.9064 3.27803 72.2618 3.27803 99.2026C3.27803 152.391 46.3956 195.508 99.5839 195.508C152.772 195.508 195.89 152.391 195.89 99.2026C195.89 71.341 184.06 46.2443 165.146 28.658C164.681 28.2255 164.654 27.4978 165.087 27.0327Z" fill="#6080AF"/>
</svg>
