<svg width="243" height="242" viewBox="0 0 243 242" fill="none" xmlns="http://www.w3.org/2000/svg">
<path fill-rule="evenodd" clip-rule="evenodd" d="M214.56 145.838C213.964 148.06 213.296 150.244 212.558 152.386C212.342 153.012 212.674 153.695 213.301 153.911C213.928 154.127 214.611 153.794 214.827 153.168C215.583 150.973 216.268 148.736 216.878 146.459C217.279 144.965 217.643 143.469 217.97 141.973C218.112 141.326 217.703 140.686 217.055 140.544C216.408 140.402 215.768 140.812 215.626 141.459C215.306 142.919 214.951 144.379 214.56 145.838ZM218.188 133.917C218.846 133.998 219.445 133.531 219.526 132.873C219.905 129.794 220.136 126.723 220.224 123.667C220.243 123.004 219.721 122.452 219.059 122.433C218.396 122.414 217.844 122.935 217.825 123.598C217.74 126.579 217.514 129.576 217.144 132.579C217.063 133.237 217.53 133.836 218.188 133.917ZM208.808 164.454C208.218 164.151 207.495 164.384 207.192 164.974C206.145 167.014 205.03 169.006 203.851 170.948C203.506 171.514 203.687 172.252 204.253 172.596C204.82 172.941 205.558 172.76 205.902 172.194C207.111 170.203 208.254 168.161 209.328 166.07C209.63 165.48 209.398 164.757 208.808 164.454ZM218.934 115.711C219.595 115.668 220.096 115.097 220.053 114.435C219.85 111.349 219.501 108.288 219.013 105.261C218.907 104.607 218.291 104.162 217.637 104.268C216.983 104.373 216.538 104.989 216.644 105.643C217.12 108.596 217.46 111.582 217.658 114.593C217.701 115.254 218.273 115.755 218.934 115.711ZM216.256 97.6887C216.897 97.5222 217.282 96.8673 217.116 96.2258C216.341 93.2393 215.427 90.2969 214.381 87.408C214.155 86.7849 213.467 86.4627 212.844 86.6883C212.221 86.914 211.899 87.6021 212.124 88.2253C213.145 91.0441 214.036 93.9149 214.793 96.8286C214.959 97.4701 215.614 97.8552 216.256 97.6887ZM210.263 80.4812C210.862 80.1985 211.119 79.4834 210.836 78.884C210.179 77.4915 209.49 76.1147 208.77 74.755C208.46 74.1694 207.733 73.9462 207.148 74.2565C206.562 74.5668 206.339 75.293 206.649 75.8786C207.352 77.2055 208.025 78.5489 208.665 79.9077C208.948 80.5072 209.663 80.7639 210.263 80.4812Z" fill="#6080AF"/>
<path fill-rule="evenodd" clip-rule="evenodd" d="M208.248 76.333C208.809 76.0357 209.023 75.3397 208.726 74.7785C196.348 51.4161 174.66 33.0622 147.105 25.679C94.5023 11.584 40.433 42.8009 26.3381 95.4038C12.2432 148.007 43.4601 202.076 96.063 216.171C122.707 223.31 149.729 218.823 171.739 205.823C172.285 205.5 172.467 204.795 172.144 204.248C171.821 203.701 171.116 203.52 170.569 203.843C149.069 216.542 122.681 220.922 96.6583 213.949C45.2824 200.183 14.7936 147.375 28.5597 95.9991C42.3259 44.6232 95.134 14.1344 146.51 27.9006C173.422 35.1117 194.602 53.0339 206.694 75.8553C206.991 76.4165 207.687 76.6304 208.248 76.333Z" fill="#6080AF"/>
</svg>
